<?xml version="1.0" standalone="no"?>
<!DOCTYPE svg PUBLIC "-//W3C//DTD SVG 1.1//EN" "http://www.w3.org/Graphics/SVG/1.1/DTD/svg11.dtd" >
<svg xmlns="http://www.w3.org/2000/svg" xmlns:xlink="http://www.w3.org/1999/xlink" version="1.1">
<metadata>
Created by FontForge 20150824 at Tue Aug  2 21:40:00 2016
 By Everything Fonts
Copyright (c) 2013 by Andriy Konstantynov. All rights reserved.
</metadata>
<defs>
<font id="CynthoSlabProRegular" horiz-adv-x="605" >
  <font-face 
    font-family="CynthoSlabProRegular"
    font-weight="400"
    font-stretch="normal"
    units-per-em="1000"
    panose-1="2 6 0 3 3 2 0 2 0 4"
    ascent="750"
    descent="-250"
    x-height="500"
    cap-height="700"
    bbox="-112 -286 1282 975"
    underline-thickness="50"
    underline-position="-150"
    unicode-range="U+0020-2212"
  />
<missing-glyph horiz-adv-x="235" 
 />
    <glyph glyph-name=".notdef" horiz-adv-x="235" 
 />
    <glyph glyph-name=".null" horiz-adv-x="0" 
 />
    <glyph glyph-name="nonmarkingreturn" horiz-adv-x="333" 
 />
    <glyph glyph-name="space" unicode=" " horiz-adv-x="255" 
 />
    <glyph glyph-name="exclam" unicode="!" horiz-adv-x="238" 
d="M157 213h-76v487h76v-487zM81 0v111h76v-111h-76z" />
    <glyph glyph-name="quotedbl" unicode="&#x22;" horiz-adv-x="426" 
d="M147 437h-56l-10 263h76zM335 437h-55l-11 263h77z" />
    <glyph glyph-name="numbersign" unicode="#" horiz-adv-x="804" 
d="M115 477v61h122l29 162h81l-29 -162h234l29 162h81l-29 -162h113v-61h-123l-45 -254h112v-61h-122l-29 -162h-81l28 162h-233l-29 -162h-81l28 162h-112v61h123l44 254h-111zM308 477l-45 -254h234l44 254h-233z" />
    <glyph glyph-name="dollar" unicode="$" horiz-adv-x="558" 
d="M506 203q0 -87 -59 -143.5t-151 -63.5v-96h-35v95q-123 3 -211 64v133h69v-93q58 -37 142 -38v264q-38 13 -60 22t-53 26t-48 35t-30 46.5t-13 62.5q0 83 57.5 134.5t146.5 53.5v95h35v-96q109 -7 191 -65v-133h-68v93q-55 35 -123 39v-253q106 -38 143 -63
q67 -46 67 -119zM425 199q0 22 -9.5 39t-30 30.5t-39.5 22.5t-50 21v-248q57 6 93 43t36 92zM138 519q0 -43 32 -70t91 -49v238q-57 -3 -90 -35.5t-33 -83.5z" />
    <glyph glyph-name="percent" unicode="%" horiz-adv-x="927" 
d="M297 0h-83l418 725h83zM53 562q0 74 46 120t120 46t119.5 -46t45.5 -120t-46 -119.5t-119 -45.5q-74 0 -120 46t-46 119zM118 562q0 -47 28.5 -77.5t72.5 -30.5t72.5 30.5t28.5 77.5q0 48 -28.5 78.5t-72.5 30.5t-72.5 -30.5t-28.5 -78.5zM543 162q0 74 46 120t120 46
t119.5 -46t45.5 -120t-46 -119.5t-119 -45.5q-74 0 -120 46t-46 119zM608 162q0 -47 28.5 -77.5t72.5 -30.5t72.5 30.5t28.5 77.5q0 48 -28.5 78.5t-72.5 30.5t-72.5 -30.5t-28.5 -78.5z" />
    <glyph glyph-name="ampersand" unicode="&#x26;" horiz-adv-x="714" 
d="M458 307v55h226v-55h-83q-9 -115 -69 -195l99 -73q-32 -32 -49 -48q-41 28 -97 73q-86 -69 -214 -69q-96 0 -157.5 55.5t-61.5 141.5q0 67 36.5 111t101.5 80q-49 87 -49 159t47.5 117.5t122.5 45.5q72 0 117.5 -41.5t45.5 -109.5q0 -29 -12 -55.5t-26.5 -44t-44 -38
t-47.5 -31t-55 -29.5q71 -100 190 -200q46 61 55 151h-76zM432 107q-133 115 -204 216q-48 -29 -74 -59.5t-26 -71.5q0 -60 40.5 -98.5t102.5 -38.5q93 0 161 52zM217 542q0 -57 36 -127q37 19 56 29.5t43.5 28.5t35 37.5t10.5 43.5q0 40 -24 65t-62 25q-42 0 -68.5 -28.5
t-26.5 -73.5z" />
    <glyph glyph-name="quotesingle" unicode="'" horiz-adv-x="238" 
d="M147 437h-56l-10 263h76z" />
    <glyph glyph-name="parenleft" unicode="(" horiz-adv-x="294" 
d="M73 312q0 133 30 254t83 199l42 -42q-37 -65 -58 -176t-21 -235q0 -122 21 -233t58 -177l-42 -42q-53 77 -83 198.5t-30 253.5z" />
    <glyph glyph-name="parenright" unicode=")" horiz-adv-x="294" 
d="M221 313q0 -133 -30 -254t-83 -199l-42 42q37 65 58 176t21 235q0 122 -21 233t-58 177l42 42q53 -77 83 -198.5t30 -253.5z" />
    <glyph glyph-name="asterisk" unicode="*" horiz-adv-x="510" 
d="M86 642l144 -84v167h50v-167l144 84l25 -44l-144 -84l144 -82l-25 -44l-144 83v-166h-50v166l-144 -83l-25 44l143 82l-143 84z" />
    <glyph glyph-name="plus" unicode="+" horiz-adv-x="582" 
d="M323 581v-191h188v-60h-188v-190h-66v190h-186v60h186v191h66z" />
    <glyph glyph-name="comma" unicode="," horiz-adv-x="238" 
d="M50 -163l-33 34q31 31 47.5 97t16.5 143h76q0 -82 -30.5 -155.5t-76.5 -118.5z" />
    <glyph glyph-name="hyphen" unicode="-" horiz-adv-x="397" 
d="M316 260h-235v60h235v-60z" />
    <glyph glyph-name="period" unicode="." horiz-adv-x="238" 
d="M81 0v111h76v-111h-76z" />
    <glyph glyph-name="slash" unicode="/" horiz-adv-x="358" 
d="M67 -100h-76l300 825h77z" />
    <glyph glyph-name="zero" unicode="0" horiz-adv-x="638" 
d="M50 350q0 159 73.5 257t195.5 98t195.5 -98.5t73.5 -256.5t-73.5 -256.5t-195.5 -98.5t-195.5 98t-73.5 257zM128 349q0 -129 53 -210t138 -81q86 0 138.5 81t52.5 210q0 130 -52.5 211.5t-138.5 81.5q-85 0 -138 -81.5t-53 -211.5z" />
    <glyph glyph-name="one" unicode="1" horiz-adv-x="544" 
d="M74 0v63h196v553l-191 -107l-34 59l225 132h79v-637h165v-63h-440z" />
    <glyph glyph-name="two" unicode="2" horiz-adv-x="556" 
d="M125 501h-68v133q89 71 216 71q95 0 156.5 -56t61.5 -146q0 -59 -35 -126.5t-85 -121t-100 -98t-85 -69.5l-35 -25h352v-63h-451v63q15 10 39 28t86.5 71t110 103t86.5 114.5t39 115.5q0 66 -39.5 106.5t-106.5 40.5q-81 0 -142 -41v-100z" />
    <glyph glyph-name="three" unicode="3" horiz-adv-x="575" 
d="M136 506h-69v133q86 66 223 66q94 0 152.5 -48.5t58.5 -126.5q0 -57 -34.5 -99t-94.5 -61q70 -20 110.5 -67.5t40.5 -113.5q0 -86 -65.5 -140t-169.5 -54q-144 0 -236 98l45 45q66 -80 186 -80q71 0 116 39.5t45 101.5t-47 101t-121 39h-39v61h41q64 0 104.5 33.5
t40.5 86.5q0 54 -38.5 88t-99.5 34q-87 0 -149 -39v-97z" />
    <glyph glyph-name="four" unicode="4" horiz-adv-x="645" 
d="M454 0v123h-389v42l378 535h90v-517h87v-60h-87v-123h-79zM163 183h291v408z" />
    <glyph glyph-name="five" unicode="5" horiz-adv-x="553" 
d="M470 562h-68v75h-244v-217h117q101 0 164.5 -61t63.5 -159q0 -92 -64.5 -148.5t-164.5 -56.5q-142 0 -239 99l42 42q75 -78 189 -78q73 0 116 40t43 104q0 70 -43.5 112.5t-112.5 42.5h-189v343h390v-138z" />
    <glyph glyph-name="six" unicode="6" horiz-adv-x="593" 
d="M319 642q-80 0 -132.5 -73t-58.5 -192q66 58 165 58q111 0 181 -62t70 -158q0 -98 -65.5 -159t-169.5 -61q-118 0 -188.5 98t-70.5 257t73.5 257t195.5 98q121 0 199 -73l-43 -43q-58 53 -156 53zM307 58q70 0 114 44t44 113q0 68 -49 112.5t-126 44.5q-51 0 -94 -19.5
t-68 -54.5q8 -108 57 -174t122 -66z" />
    <glyph glyph-name="seven" unicode="7" horiz-adv-x="627" 
d="M128 562h-68v138h502v-42l-331 -658h-81l320 637h-342v-75z" />
    <glyph glyph-name="eight" unicode="8" horiz-adv-x="596" 
d="M75 531q0 77 62 125.5t161 48.5q100 0 162 -48.5t62 -125.5q0 -56 -34.5 -97.5t-94.5 -60.5q70 -20 110.5 -68.5t40.5 -113.5q0 -87 -68.5 -141.5t-177.5 -54.5t-177.5 54.5t-68.5 141.5q0 65 40.5 113.5t110.5 68.5q-60 19 -94 61t-34 97zM131 201q0 -63 46.5 -103
t119.5 -40q74 0 121 40t47 103q0 64 -47 104t-121 40q-73 0 -119.5 -40t-46.5 -104zM154 520q0 -53 40.5 -86.5t104.5 -33.5t104 33.5t40 86.5q0 54 -40 88t-104 34t-104.5 -34t-40.5 -88z" />
    <glyph glyph-name="nine" unicode="9" horiz-adv-x="591" 
d="M264 58q84 0 138 71.5t60 188.5q-63 -66 -162 -66q-111 0 -180.5 63t-69.5 163q0 101 64.5 164t168.5 63q117 0 187.5 -98t70.5 -257t-75.5 -257t-202.5 -98q-126 0 -204 73l42 42q60 -52 163 -52zM285 642q-70 0 -113.5 -45.5t-43.5 -118.5q0 -72 48.5 -117t126.5 -45
q52 0 94.5 22.5t64.5 62.5q-9 112 -57 176.5t-120 64.5z" />
    <glyph glyph-name="colon" unicode=":" horiz-adv-x="238" 
d="M81 0v111h76v-111h-76zM81 389v111h76v-111h-76z" />
    <glyph glyph-name="semicolon" unicode=";" horiz-adv-x="238" 
d="M50 -163l-33 34q31 31 47.5 97t16.5 143h76q0 -82 -30.5 -155.5t-76.5 -118.5zM81 389v111h76v-111h-76z" />
    <glyph glyph-name="less" unicode="&#x3c;" horiz-adv-x="641" 
d="M55 325v52l529 238v-75l-419 -188l419 -189v-76z" />
    <glyph glyph-name="equal" unicode="=" horiz-adv-x="661" 
d="M581 200h-500v60h500v-60zM581 449h-500v61h500v-61z" />
    <glyph glyph-name="greater" unicode="&#x3e;" horiz-adv-x="641" 
d="M585 376v-52l-529 -238v75l419 188l-419 189v76z" />
    <glyph glyph-name="question" unicode="?" horiz-adv-x="509" 
d="M113 501h-68v133q87 71 209 71q92 0 149.5 -49t57.5 -128q0 -37 -9.5 -65.5t-25 -46t-34 -32t-37.5 -29t-34.5 -32t-25 -45.5t-9.5 -65h-76q0 62 18 103.5t43.5 62.5t51 38.5t43.5 43.5t18 65q0 51 -36.5 84.5t-101.5 33.5q-78 0 -133 -39v-104zM210 0v111h76v-111h-76z
" />
    <glyph glyph-name="at" unicode="@" horiz-adv-x="1052" 
d="M840 -66l40 -39q-138 -125 -355 -125q-211 0 -343 133.5t-132 346.5t132 346.5t343 133.5q212 0 345 -126.5t133 -328.5q0 -140 -60.5 -209.5t-140.5 -69.5q-56 0 -95.5 34.5t-39.5 89.5q-24 -58 -73 -91t-114 -33q-88 0 -143 67.5t-55 176.5q0 118 75.5 191.5
t196.5 73.5q107 0 181 -35v-304q0 -50 23.5 -79.5t55.5 -29.5q44 0 78 56t34 162q0 174 -111.5 284t-289.5 110q-176 0 -287.5 -117.5t-111.5 -301.5t111.5 -301.5t287.5 -117.5q204 0 315 103zM659 208v217q-52 19 -120 19q-80 0 -130.5 -57t-50.5 -147q0 -82 42 -132.5
t109 -50.5q64 0 106 43.5t44 107.5z" />
    <glyph glyph-name="A" unicode="A" horiz-adv-x="815" 
d="M593 0v56h75l-66 143h-388l-68 -143h75v-56h-231v56h75l276 588h-82v56h190l300 -644h76v-56h-232zM408 616l-164 -351h328z" />
    <glyph glyph-name="B" unicode="B" horiz-adv-x="630" 
d="M25 644v56h335q79 0 129 -48.5t50 -125.5q0 -53 -24.5 -94t-65.5 -62q58 -16 93.5 -64.5t35.5 -115.5q0 -84 -54 -137t-141 -53h-358v56h75v588h-75zM181 66h177q60 0 97.5 37t37.5 96t-37.5 96t-97.5 37h-177v-266zM337 634h-156v-236h156q54 0 87.5 33t33.5 85
t-33.5 85t-87.5 33z" />
    <glyph glyph-name="C" unicode="C" horiz-adv-x="725" 
d="M658 506h-68v91q-72 42 -182 42q-123 0 -200 -80.5t-77 -208.5t77 -208.5t200 -80.5q135 0 207 83l48 -48q-99 -101 -259 -101q-157 0 -255.5 98.5t-98.5 256.5t98.5 256.5t255.5 98.5q155 0 254 -71v-128z" />
    <glyph glyph-name="D" unicode="D" horiz-adv-x="762" 
d="M30 644v56h335q154 0 251 -97.5t97 -252.5t-97 -252.5t-251 -97.5h-335v56h75v588h-75zM632 350q0 125 -74.5 204.5t-192.5 79.5h-179v-568h179q118 0 192.5 79.5t74.5 204.5z" />
    <glyph glyph-name="E" unicode="E" horiz-adv-x="647" 
d="M577 0h-548v55h75v589h-75v56h541v-139h-69v73h-316v-244h334v-66h-334v-259h324v73h68v-138z" />
    <glyph glyph-name="F" unicode="F" horiz-adv-x="632" 
d="M568 562h-69v72h-313v-259h332v-65h-332v-254h74v-56h-230v56h75v588h-75v56h538v-138z" />
    <glyph glyph-name="G" unicode="G" horiz-adv-x="743" 
d="M661 511h-69v91q-71 37 -184 37q-123 0 -200 -81t-77 -209t77 -208t200 -80q105 0 174 57v189h-193v66h274v-277q-99 -101 -259 -101q-158 0 -256 98.5t-98 256.5q0 157 98.5 256t255.5 99q156 0 257 -66v-128z" />
    <glyph glyph-name="H" unicode="H" horiz-adv-x="787" 
d="M527 644v56h231v-56h-75v-588h75v-56h-231v56h75v268h-416v-268h74v-56h-230v56h75v588h-75v56h230v-56h-74v-254h416v254h-75z" />
    <glyph glyph-name="I" unicode="I" horiz-adv-x="290" 
d="M30 644v56h230v-56h-74v-588h74v-56h-230v56h75v588h-75z" />
    <glyph glyph-name="J" unicode="J" horiz-adv-x="608" 
d="M347 644v56h231v-56h-75v-394q0 -113 -71.5 -184t-185.5 -71t-189 50v130h68v-90q45 -24 116 -24q80 0 130.5 52.5t50.5 136.5v394h-75z" />
    <glyph glyph-name="K" unicode="K" horiz-adv-x="697" 
d="M456 0v56h63l-244 286l-89 -90v-196h74v-56h-230v56h75v588h-75v56h230v-56h-74v-288l289 288h-53v56h230v-56h-75l-248 -248l283 -340h78v-56h-234z" />
    <glyph glyph-name="L" unicode="L" horiz-adv-x="652" 
d="M592 0h-562v56h75v588h-75v56h230v-56h-74v-578h338v72h68v-138z" />
    <glyph glyph-name="M" unicode="M" horiz-adv-x="986" 
d="M726 0v56h74v524l-276 -580h-62l-276 580v-524h74v-56h-230v56h75v588h-75v56h181l282 -591l282 591h181v-56h-74v-588h74v-56h-230z" />
    <glyph glyph-name="N" unicode="N" horiz-adv-x="810" 
d="M549 644v56h231v-56h-75v-644h-81l-438 577v-521h74v-56h-230v56h75v588h-75v56h156l438 -577v521h-75z" />
    <glyph glyph-name="O" unicode="O" horiz-adv-x="804" 
d="M50 350q0 158 97.5 256.5t254.5 98.5q156 0 254.5 -99t98.5 -256t-98.5 -256t-254.5 -99q-157 0 -254.5 98.5t-97.5 256.5zM131 350q0 -127 76 -208t195 -81q120 0 195.5 80.5t75.5 208.5t-75.5 208.5t-195.5 80.5q-119 0 -195 -81t-76 -208z" />
    <glyph glyph-name="P" unicode="P" horiz-adv-x="622" 
d="M30 644v56h321q96 0 156 -60.5t60 -157.5q0 -96 -60 -157t-156 -61h-165v-208h74v-56h-230v56h75v588h-75zM343 634h-157v-304h157q64 0 103.5 42.5t39.5 109.5t-39.5 109.5t-103.5 42.5z" />
    <glyph glyph-name="Q" unicode="Q" horiz-adv-x="804" 
d="M704 -10l-78 78q-92 -73 -224 -73q-157 0 -254.5 98.5t-97.5 256.5t97.5 256.5t254.5 98.5q156 0 254.5 -99t98.5 -256q0 -138 -80 -236l77 -76zM452 242l48 48l118 -118q55 72 55 178q0 128 -75.5 208.5t-195.5 80.5q-119 0 -195 -81t-76 -208t76 -208t195 -81
q104 0 172 59z" />
    <glyph glyph-name="R" unicode="R" horiz-adv-x="634" 
d="M402 0v56h68l-181 244h-103v-244h74v-56h-230v56h75v588h-75v56h342q88 0 143.5 -55.5t55.5 -144.5q0 -88 -53.5 -143.5t-139.5 -56.5l182 -244h74v-56h-232zM186 365h177q56 0 91.5 38t35.5 97t-36 96.5t-91 37.5h-177v-269z" />
    <glyph glyph-name="S" unicode="S" horiz-adv-x="555" 
d="M484 508h-68v94q-60 37 -146 37q-62 0 -98.5 -33.5t-36.5 -86.5q0 -45 38 -75t92 -49t108 -39.5t92 -58.5t38 -94q0 -93 -66 -150.5t-166 -57.5q-132 0 -224 64v130h69v-92q62 -36 154 -36q67 0 109.5 38.5t42.5 99.5q0 41 -38 69t-92 46t-108 39t-92 62t-38 102
q0 84 59 136t150 52q129 0 221 -66v-131z" />
    <glyph glyph-name="T" unicode="T" horiz-adv-x="745" 
d="M257 0v56h75v578h-204v-72h-68v138h626v-138h-69v72h-204v-578h75v-56h-231z" />
    <glyph glyph-name="U" unicode="U" horiz-adv-x="821" 
d="M30 644v56h230v-56h-74v-339q0 -109 62 -176.5t162 -67.5q101 0 163 67.5t62 176.5v339h-75v56h231v-56h-75v-339q0 -142 -83.5 -226t-222.5 -84t-222 83.5t-83 226.5v339h-75z" />
    <glyph glyph-name="V" unicode="V" horiz-adv-x="806" 
d="M-10 644v56h227v-56h-72l258 -560l257 560h-71v56h227v-56h-71l-301 -644h-83l-300 644h-71z" />
    <glyph glyph-name="W" unicode="W" horiz-adv-x="1173" 
d="M951 644v56h232v-56h-78l-226 -644h-87l-205 596l-206 -596h-88l-226 644h-77v56h233v-56h-78l190 -540l208 596h87l207 -596l190 540h-76z" />
    <glyph glyph-name="X" unicode="X" horiz-adv-x="752" 
d="M510 0v56h63l-197 245l-198 -245h65v-56h-235v56h79l241 301l-229 287h-79v56h235v-56h-64l185 -231l185 231h-63v56h235v-56h-80l-228 -287l241 -301h79v-56h-235z" />
    <glyph glyph-name="Y" unicode="Y" horiz-adv-x="705" 
d="M482 644v56h233v-56h-77l-245 -382v-206h75v-56h-231v56h75v206l-246 382h-76v56h233v-56h-72l201 -309l202 309h-72z" />
    <glyph glyph-name="Z" unicode="Z" horiz-adv-x="731" 
d="M666 0h-602v42q81 99 241.5 296.5t240.5 295.5h-405v-73h-68v139h587v-43q-80 -98 -240.5 -296t-241.5 -296h420v73h68v-138z" />
    <glyph glyph-name="bracketleft" unicode="[" horiz-adv-x="332" 
d="M101 -125v875h156v-61h-80v-753h80v-61h-156z" />
    <glyph glyph-name="backslash" unicode="\" horiz-adv-x="358" 
d="M368 -100h-77l-300 825h76z" />
    <glyph glyph-name="bracketright" unicode="]" horiz-adv-x="332" 
d="M232 750v-875h-156v61h79v753h-79v61h156z" />
    <glyph glyph-name="asciicircum" unicode="^" horiz-adv-x="509" 
d="M58 579l202 154l203 -154l-39 -39l-164 124l-163 -124z" />
    <glyph glyph-name="underscore" unicode="_" horiz-adv-x="582" 
d="M581 -93h-580v61h580v-61z" />
    <glyph glyph-name="grave" unicode="`" horiz-adv-x="324" 
d="M68 703l46 47l147 -146l-32 -32z" />
    <glyph glyph-name="a" unicode="a" horiz-adv-x="575" 
d="M402 0v114q-25 -55 -72.5 -86.5t-109.5 -31.5q-74 0 -121 39.5t-47 101.5q0 72 66 117t170 45q57 0 114 -11v30q0 57 -36.5 91.5t-94.5 34.5q-76 0 -129 -22v-60h-66v98q76 45 191 45q94 0 152.5 -51.5t58.5 -133.5v-264h70v-56h-146zM402 236q-46 15 -109 15
q-73 0 -119 -30t-46 -77q0 -40 33.5 -64t85.5 -24q67 0 111 52.5t44 127.5z" />
    <glyph glyph-name="b" unicode="b" horiz-adv-x="607" 
d="M25 669v56h146v-340q25 55 74 87t114 32q89 0 145 -70.5t56 -183.5t-78 -184t-202 -71q-108 0 -185 34v640h-70zM328 443q-67 0 -111 -43t-46 -107v-218q54 -19 127 -19q82 0 134 53.5t52 139.5q0 87 -43.5 140.5t-112.5 53.5z" />
    <glyph glyph-name="c" unicode="c" horiz-adv-x="540" 
d="M482 357h-66v65q-41 22 -110 22q-81 0 -132 -54t-51 -140t51 -140t132 -54q88 0 139 53l42 -41q-70 -73 -186 -73q-113 0 -183.5 71t-70.5 184t71 184t184 71q110 0 180 -48v-100z" />
    <glyph glyph-name="d" unicode="d" horiz-adv-x="617" 
d="M441 0v132q-24 -62 -74.5 -98.5t-116.5 -36.5q-90 0 -146.5 67t-56.5 176q0 117 69 190t180 73q83 0 145 -38v204h-70v56h146v-670h70v-55h-146zM282 57q76 0 117.5 59.5t41.5 145.5v145q-56 35 -138 35q-80 0 -130 -56.5t-50 -145.5q0 -83 44 -133t115 -50z" />
    <glyph glyph-name="e" unicode="e" horiz-adv-x="568" 
d="M520 229h-397q5 -77 56.5 -125.5t130.5 -48.5q92 0 142 55q7 -6 14 -13.5t15.5 -16l13.5 -13.5q-72 -72 -189 -72q-115 0 -187 70.5t-72 184.5q0 113 66 184t171 71t170.5 -71t65.5 -184v-21zM124 282h320q-2 72 -46.5 117t-111.5 45q-66 0 -110.5 -44.5t-51.5 -117.5z
" />
    <glyph glyph-name="f" unicode="f" horiz-adv-x="363" 
d="M29 439v61h70v58q0 77 40.5 124.5t115.5 47.5q71 0 116 -47q-14 -13 -41 -40q-28 26 -68 26q-38 0 -62.5 -24t-24.5 -61v-84h160v-61h-160v-384h70v-55h-216v55h70v384h-70z" />
    <glyph glyph-name="g" unicode="g" horiz-adv-x="583" 
d="M67 -157l41 40q58 -52 154 -52q77 0 126 47t49 122v115q-25 -55 -74.5 -87t-114.5 -32q-89 0 -145 68t-56 176q0 118 78 191.5t202 73.5q109 0 186 -35v-470q0 -102 -70 -166t-181 -64q-119 0 -195 73zM437 208v217q-55 19 -125 19q-83 0 -136 -56.5t-53 -147.5
q0 -82 44 -132.5t113 -50.5q67 0 111 43.5t46 107.5z" />
    <glyph glyph-name="h" unicode="h" horiz-adv-x="650" 
d="M30 669v56h146v-358q25 63 76.5 100.5t117.5 37.5q80 0 130 -53t50 -137v-259h70v-56h-216v56h70v246q0 64 -38 103t-99 39q-69 0 -114 -55t-47 -136v-197h70v-56h-216v56h70v613h-70z" />
    <glyph glyph-name="i" unicode="i" horiz-adv-x="275" 
d="M29 444v56h146v-445h70v-55h-216v55h70v389h-70zM99 607v93h76v-93h-76z" />
    <glyph glyph-name="j" unicode="j" horiz-adv-x="254" 
d="M30 444v56h146v-560q0 -76 -46.5 -123t-120.5 -47t-121 49l40 40q28 -28 76 -28q42 0 69 30t27 77v506h-70zM100 607v93h76v-93h-76z" />
    <glyph glyph-name="k" unicode="k" horiz-adv-x="572" 
d="M356 0v56h58l-160 175l-78 -69v-106h70v-56h-216v56h70v613h-70v56h146v-471l64 54l134 136h-52v56h213v-56h-67l-166 -166l200 -222h62v-56h-208z" />
    <glyph glyph-name="l" unicode="l" horiz-adv-x="325" 
d="M27 669v56h146v-613q0 -25 14.5 -40.5t36.5 -15.5q27 0 40 15l41 -41q-35 -35 -88 -35t-86.5 33.5t-33.5 88.5v552h-70z" />
    <glyph glyph-name="m" unicode="m" horiz-adv-x="920" 
d="M352 0v55h69v262q0 57 -30 92t-78 35q-60 0 -98 -44t-40 -113v-232h70v-55h-216v55h70v389h-70v56h146v-98q24 49 68 76t100 27q48 0 84.5 -27t54.5 -74q55 101 176 101q71 0 116.5 -52.5t45.5 -135.5v-262h69v-55h-215v55h70v239q0 67 -28 108.5t-81 41.5
q-61 0 -99.5 -46t-38.5 -118v-225h70v-55h-215z" />
    <glyph glyph-name="n" unicode="n" horiz-adv-x="650" 
d="M404 0v56h70v246q0 64 -38 103t-99 39q-69 0 -114 -55t-47 -136v-197h70v-56h-216v56h70v388h-70v56h146v-129q27 62 77.5 98t116.5 36q80 0 130 -53t50 -137v-259h70v-56h-216z" />
    <glyph glyph-name="o" unicode="o" 
d="M47 250q0 113 71 184t184 71t184 -71t71 -184t-71 -184t-184 -71t-184 71t-71 184zM123 250q0 -86 50 -140t129 -54q80 0 129.5 54t49.5 140t-49.5 140t-129.5 54q-79 0 -129 -54t-50 -140z" />
    <glyph glyph-name="p" unicode="p" horiz-adv-x="617" 
d="M29 444v56h146v-134q25 63 75 100t116 37q90 0 146.5 -70.5t56.5 -182.5q0 -113 -69 -183t-179 -70q-85 0 -146 37v-203h70v-56h-216v56h70v613h-70zM175 253v-161q59 -35 139 -35q79 0 129 53.5t50 139.5q0 87 -44 139.5t-115 52.5q-70 0 -114.5 -54.5t-44.5 -134.5z
" />
    <glyph glyph-name="q" unicode="q" horiz-adv-x="592" 
d="M367 -225v56h70v283q-25 -54 -74.5 -86t-114.5 -32q-89 0 -145 68t-56 176q0 118 78 191.5t202 73.5q109 0 186 -35v-639h69v-56h-215zM437 208v216q-54 20 -125 20q-84 0 -136.5 -56.5t-52.5 -147.5q0 -82 43.5 -132.5t113.5 -50.5q67 0 111 43t46 108z" />
    <glyph glyph-name="r" unicode="r" horiz-adv-x="458" 
d="M27 444v56h146v-146q25 69 76.5 110t120.5 41h35v-130h-65v64q-71 0 -118 -60t-49 -147v-176h70v-56h-216v56h70v388h-70z" />
    <glyph glyph-name="s" unicode="s" horiz-adv-x="447" 
d="M377 365h-66v58q-34 21 -90 21q-40 0 -64.5 -21t-24.5 -54q0 -29 27 -49.5t66 -34t77.5 -29t65.5 -44t27 -69.5q0 -65 -51.5 -106.5t-125.5 -41.5q-98 0 -166 49v94h66v-58q38 -24 99 -24q44 0 73 24t29 61q0 28 -27 47t-66 31.5t-77.5 28t-65.5 45.5t-27 73
q0 61 46.5 100.5t114.5 39.5q97 0 160 -46v-95z" />
    <glyph glyph-name="t" unicode="t" horiz-adv-x="437" 
d="M27 439v61h75v115h76v-115h200v-61h-200v-267q0 -51 31 -83.5t78 -32.5q48 0 82 32l41 -40q-48 -53 -131 -53q-78 0 -127.5 49.5t-49.5 130.5v264h-75z" />
    <glyph glyph-name="u" unicode="u" horiz-adv-x="645" 
d="M402 444v56h146v-444h70v-56h-146v129q-28 -62 -78.5 -98t-115.5 -36q-80 0 -130.5 55.5t-50.5 144.5v249h-70v56h146v-295q0 -67 38 -108t99 -41q71 0 116.5 57.5t45.5 140.5v190h-70z" />
    <glyph glyph-name="v" unicode="v" horiz-adv-x="601" 
d="M-10 444v56h217v-56h-72l165 -363l165 363h-70v56h216v-56h-71l-201 -444h-77l-201 444h-71z" />
    <glyph glyph-name="w" unicode="w" horiz-adv-x="881" 
d="M674 444v56h217v-56h-72l-163 -444h-71l-144 396l-144 -396h-72l-163 444h-72v56h218v-56h-72l127 -345l143 401h70l142 -401l127 345h-71z" />
    <glyph glyph-name="x" unicode="x" horiz-adv-x="578" 
d="M360 0v55h59q-23 29 -67.5 84t-63.5 79q-25 -33 -74 -93.5t-56 -69.5h60v-55h-211v55h64q28 34 82 101t81 100q-51 62 -153 188h-64v56h210v-56h-60q20 -26 60.5 -75.5t60.5 -75.5q105 131 121 151h-59v56h211v-56h-66q-73 -91 -152 -188q28 -34 81.5 -101t81.5 -100h64
v-55h-210z" />
    <glyph glyph-name="y" unicode="y" horiz-adv-x="600" 
d="M394 444v56h216v-56h-71l-247 -541q-60 -133 -151 -133q-71 0 -113 43l40 40q21 -22 67 -22q30 0 51.5 25t43.5 73l32 72l-202 443h-70v56h217v-56h-72l164 -359l165 359h-70z" />
    <glyph glyph-name="z" unicode="z" horiz-adv-x="565" 
d="M135 369h-66v131h426v-41q-49 -59 -104.5 -125.5t-123.5 -148t-105 -125.5h272v70h65v-130h-435v40q110 133 328 399h-257v-70z" />
    <glyph glyph-name="braceleft" unicode="{" horiz-adv-x="392" 
d="M76 280v60q27 0 44 30.5t23 76t16.5 98.5t24.5 98.5t48 76t85 30.5v-61q-28 0 -46.5 -26t-26.5 -65.5t-16 -87t-15 -89t-25.5 -73t-45.5 -38.5q32 -8 51 -50t27 -95t16 -105.5t27.5 -88t53.5 -35.5v-61q-51 0 -85 30t-48 75t-24.5 97.5t-16.5 97.5t-23 75t-44 30z" />
    <glyph glyph-name="bar" unicode="|" horiz-adv-x="238" 
d="M157 -100h-76v825h76v-825z" />
    <glyph glyph-name="braceright" unicode="}" horiz-adv-x="392" 
d="M317 340v-60q-28 0 -44.5 -30t-23 -75t-17 -97.5t-24 -97.5t-47.5 -75t-85 -30v61q28 0 46.5 25.5t26.5 64.5t16 85.5t15 88t25.5 72.5t45.5 38q-27 7 -45.5 38.5t-25.5 73t-15 89t-16 87t-26.5 65.5t-46.5 26v61q51 0 85 -30.5t47.5 -76t24.5 -98.5t17 -98.5t23 -76
t44 -30.5z" />
    <glyph glyph-name="asciitilde" unicode="~" horiz-adv-x="471" 
d="M91 256l-40 40q55 55 111 55q28 0 77 -18.5t72 -18.5q35 0 69 31l40 -40q-54 -55 -109 -55q-28 0 -76.5 18.5t-71.5 18.5q-37 0 -72 -31z" />
    <glyph glyph-name="exclamdown" unicode="&#xa1;" horiz-adv-x="238" 
d="M81 365h76v-493h-76v493zM157 577v-110h-76v110h76z" />
    <glyph glyph-name="cent" unicode="&#xa2;" horiz-adv-x="540" 
d="M482 445h-66v76q-39 21 -96 22v-387q80 5 125 53l42 -42q-66 -66 -167 -72v-95h-50v95q-101 11 -162 80.5t-61 174.5q0 104 61 173t162 80v97h50v-96q97 -4 162 -47v-112zM270 160v378q-67 -11 -107 -62t-40 -126q0 -76 40 -127.5t107 -62.5z" />
    <glyph glyph-name="sterling" unicode="&#xa3;" horiz-adv-x="601" 
d="M541 0h-496v63h54v251h-54v61h54v128q0 90 62 146t157 56q126 0 216 -64v-133h-68v100q-60 34 -142 34q-67 0 -106.5 -40.5t-39.5 -106.5v-120h277v-61h-277v-251h295v75h68v-138z" />
    <glyph glyph-name="currency" unicode="&#xa4;" horiz-adv-x="548" 
d="M95 350q0 62 30 102l-79 79l47 47l79 -80q42 31 102 31q59 0 102 -31l80 80l46 -46l-79 -80q30 -44 30 -102q0 -60 -31 -103l80 -79l-46 -46l-81 79q-43 -30 -101 -30q-59 0 -102 30l-79 -79l-47 47l79 78q-30 42 -30 103zM154 350q0 -58 33.5 -94t86.5 -36q54 0 87 36
t33 94t-33 94t-87 36q-53 0 -86.5 -36t-33.5 -94z" />
    <glyph glyph-name="yen" unicode="&#xa5;" horiz-adv-x="704" 
d="M482 644v56h232v-56h-77l-245 -382v-27h196v-46h-196v-69h196v-46h-196v-74h-81v74h-196v46h196v69h-196v46h196v27l-245 382h-76v56h232v-56h-71l201 -309l201 309h-71z" />
    <glyph glyph-name="brokenbar" unicode="&#xa6;" horiz-adv-x="238" 
d="M157 725v-380h-76v380h76zM157 -100h-76v380h76v-380z" />
    <glyph glyph-name="section" unicode="&#xa7;" horiz-adv-x="553" 
d="M489 521h-68v102q-62 41 -146 41q-66 0 -104 -33.5t-38 -87.5q0 -39 27.5 -67.5t68 -44t88.5 -34t88.5 -37t68 -54t27.5 -83.5q0 -83 -57 -137q57 -45 57 -113q0 -91 -67 -147t-167 -56q-126 0 -215 76v133h69v-101q58 -42 144 -42q68 0 111.5 37t43.5 96q0 36 -27.5 62
t-68 40.5t-88.5 33t-88.5 38.5t-68 57.5t-27.5 89.5q0 80 54 131q-54 47 -54 119q0 85 60.5 137.5t154.5 52.5q130 0 222 -76v-133zM420 219q0 34 -26 59t-58 38t-84 32t-80 33q-39 -34 -39 -88q0 -29 14.5 -51.5t42.5 -39t55.5 -27.5t67 -26t63.5 -26q44 37 44 96z" />
    <glyph glyph-name="dieresis" unicode="&#xa8;" horiz-adv-x="467" 
d="M81 607v93h76v-93h-76zM311 607v93h76v-93h-76z" />
    <glyph glyph-name="copyright" unicode="&#xa9;" horiz-adv-x="804" 
d="M50 350q0 158 97.5 256.5t254.5 98.5q156 0 254.5 -99t98.5 -256t-98.5 -256t-254.5 -99q-157 0 -254.5 98.5t-97.5 256.5zM110 350q0 -134 81.5 -219t209.5 -85q130 0 211 85t81 219t-81 219t-211 85q-128 0 -209.5 -85t-81.5 -219zM555 408h-45v62q-45 24 -100 24
q-60 0 -97.5 -39.5t-37.5 -103.5t37.5 -104t97.5 -40q73 0 115 44l33 -30q-59 -61 -152 -61q-84 0 -136.5 53t-52.5 138q0 84 53 137t137 53q90 0 148 -45v-88z" />
    <glyph glyph-name="ordfeminine" unicode="&#xaa;" horiz-adv-x="478" 
d="M108 596h-43v71q48 37 126 37q70 0 113.5 -40t43.5 -104v-210h-57v74q-17 -35 -48.5 -56t-73.5 -21q-51 0 -83.5 28t-32.5 73q0 49 45.5 79.5t117.5 30.5q35 0 75 -5v7q0 45 -27 71.5t-71 26.5q-51 0 -85 -19v-43zM291 511q-28 11 -72 11q-48 0 -79 -19.5t-31 -50.5
q0 -27 22.5 -43.5t56.5 -16.5q45 0 74 34.5t29 84.5z" />
    <glyph glyph-name="guillemotleft" unicode="&#xab;" horiz-adv-x="617" 
d="M271 72l-203 203l203 203l46 -47l-156 -156l156 -156zM492 72l-203 203l203 203l47 -47l-157 -156l157 -156z" />
    <glyph glyph-name="logicalnot" unicode="&#xac;" horiz-adv-x="661" 
d="M581 180h-76v155h-424v60h500v-215z" />
    <glyph glyph-name="uni00AD" unicode="&#xad;" horiz-adv-x="397" 
d="M316 260h-235v60h235v-60z" />
    <glyph glyph-name="registered" unicode="&#xae;" horiz-adv-x="466" 
d="M53 525q0 80 49.5 130t129.5 50t130 -50t50 -130t-50 -130t-130 -50t-129.5 50t-49.5 130zM89 525q0 -66 40 -107.5t104 -41.5t103.5 41.5t39.5 107.5t-39.5 107.5t-103.5 41.5t-104 -41.5t-40 -107.5zM278 430l-60 80h-24v-80h-27v192h77q25 0 40.5 -15.5t15.5 -40.5
q0 -24 -14.5 -39.5t-37.5 -16.5l60 -80h-30zM194 600v-67h47q14 0 22.5 9t8.5 24t-8.5 24.5t-22.5 9.5h-47z" />
    <glyph glyph-name="macron" unicode="&#xaf;" horiz-adv-x="468" 
d="M387 649h-306v51h306v-51z" />
    <glyph glyph-name="degree" unicode="&#xb0;" horiz-adv-x="413" 
d="M53 574q0 68 43 111t111 43t110.5 -43t42.5 -111t-42.5 -110.5t-110.5 -42.5t-111 42.5t-43 110.5zM118 574q0 -41 25 -68t64 -27t64 27t25 68q0 43 -25 70t-64 27t-64 -27t-25 -70z" />
    <glyph glyph-name="plusminus" unicode="&#xb1;" horiz-adv-x="582" 
d="M323 638v-180h178v-61h-178v-179h-66v179h-176v61h176v180h66zM501 98h-420v60h420v-60z" />
    <glyph glyph-name="twosuperior" unicode="&#xb2;" horiz-adv-x="319" 
d="M61 615v58q43 33 101 33q45 0 74.5 -26.5t29.5 -68.5q0 -28 -15.5 -58.5t-37 -54.5t-45.5 -45t-38.5 -31t-17.5 -12h159v-35h-212v35q7 5 18 13t39 31.5t50 46.5t39.5 52t17.5 53q0 29 -17 47t-48 18q-35 0 -64 -17v-39h-33z" />
    <glyph glyph-name="threesuperior" unicode="&#xb3;" horiz-adv-x="320" 
d="M59 618v58q40 28 101 28q45 0 73 -23t28 -59q0 -53 -59 -74q32 -10 50.5 -32t18.5 -52q0 -41 -31 -66.5t-81 -25.5q-66 0 -110 47l23 24q28 -36 85 -36q31 0 51.5 17.5t20.5 43.5q0 28 -21 46t-53 18h-20v32h21q28 0 45.5 15t17.5 38t-17 37.5t-45 14.5q-35 0 -65 -14
v-37h-33z" />
    <glyph glyph-name="acute" unicode="&#xb4;" horiz-adv-x="323" 
d="M214 750l46 -47l-161 -131l-31 32z" />
    <glyph glyph-name="mu" unicode="&#xb5;" horiz-adv-x="652" 
d="M31 444v56h146v-295q0 -67 38.5 -108t98.5 -41q70 0 115 56.5t47 139.5v192h-70v56h146v-444h70v-56h-146v133q-26 -64 -77 -101t-117 -37q-70 0 -106 54v-218h71v-56h-217v56h71v613h-70z" />
    <glyph glyph-name="paragraph" unicode="&#xb6;" horiz-adv-x="618" 
d="M568 700v-66h-85v-809h-76v809h-124v-809h-76v525q-76 0 -124.5 49t-48.5 126t48.5 126t124.5 49h361z" />
    <glyph glyph-name="periodcentered" unicode="&#xb7;" horiz-adv-x="238" 
d="M81 245v110h76v-110h-76z" />
    <glyph glyph-name="cedilla" unicode="&#xb8;" horiz-adv-x="302" 
d="M57 -159q5 4 15 13.5t15 14.5q27 -29 57 -29q44 0 44 34q0 15 -11 25t-24.5 16.5t-24.5 28t-11 56.5h45q0 -31 11 -48t24.5 -22t24.5 -19.5t11 -40.5q0 -32 -24.5 -52t-62.5 -20q-51 0 -89 43z" />
    <glyph glyph-name="onesuperior" unicode="&#xb9;" horiz-adv-x="274" 
d="M77 375v36h82v244l-90 -50l-18 31l108 64h42v-289h51v-36h-175z" />
    <glyph glyph-name="ordmasculine" unicode="&#xba;" horiz-adv-x="464" 
d="M53 525q0 79 49.5 129t128.5 50t129 -50t50 -129t-50 -129t-129 -50t-128.5 50t-49.5 129zM109 525q0 -58 34.5 -95.5t88.5 -37.5t88 37t34 96t-34 96t-88 37t-88.5 -37.5t-34.5 -95.5z" />
    <glyph glyph-name="guillemotright" unicode="&#xbb;" horiz-adv-x="619" 
d="M124 478l203 -203l-203 -203l-47 47l157 156l-157 156zM345 478l203 -203l-203 -203l-46 47l156 156l-156 156z" />
    <glyph glyph-name="questiondown" unicode="&#xbf;" horiz-adv-x="515" 
d="M466 -51q-87 -76 -206 -76q-92 0 -149 49t-57 128q0 37 9.5 65.5t25 46t34 32t37.5 29t34.5 32t25 45.5t9.5 65h76q0 -62 -18 -103.5t-43.5 -62.5t-51.5 -38.5t-44 -43.5t-18 -65q0 -51 37 -84.5t100 -33.5q75 0 130 42v106h69v-133zM305 577v-110h-76v110h76z" />
    <glyph glyph-name="Agrave" unicode="&#xc0;" horiz-adv-x="815" 
d="M593 0v56h75l-66 143h-388l-68 -143h75v-56h-231v56h75l276 588h-82v56h190l300 -644h76v-56h-232zM408 616l-164 -351h328zM311 903l46 47l147 -146l-32 -32z" />
    <glyph glyph-name="Aacute" unicode="&#xc1;" horiz-adv-x="815" 
d="M593 0v56h75l-66 143h-388l-68 -143h75v-56h-231v56h75l276 588h-82v56h190l300 -644h76v-56h-232zM408 616l-164 -351h328zM457 950l46 -47l-161 -131l-31 32z" />
    <glyph glyph-name="Acircumflex" unicode="&#xc2;" horiz-adv-x="815" 
d="M593 0v56h75l-66 143h-388l-68 -143h75v-56h-231v56h75l276 588h-82v56h190l300 -644h76v-56h-232zM408 616l-164 -351h328zM248 837l160 113l160 -113l-39 -39l-121 87l-121 -87z" />
    <glyph glyph-name="Atilde" unicode="&#xc3;" horiz-adv-x="815" 
d="M593 0v56h75l-66 143h-388l-68 -143h75v-56h-231v56h75l276 588h-82v56h190l300 -644h76v-56h-232zM408 616l-164 -351h328zM258 826l-10.5 10.5l-12 12l-10.5 10.5q55 55 112 55q28 0 76.5 -18.5t71.5 -18.5q37 0 69 31q23 -22 34 -33q-54 -55 -110 -55q-28 0 -76.5 19
t-71.5 19q-37 0 -72 -32z" />
    <glyph glyph-name="Adieresis" unicode="&#xc4;" horiz-adv-x="815" 
d="M593 0v56h75l-66 143h-388l-68 -143h75v-56h-231v56h75l276 588h-82v56h190l300 -644h76v-56h-232zM408 616l-164 -351h328zM255 807v93h76v-93h-76zM485 807v93h76v-93h-76z" />
    <glyph glyph-name="Aring" unicode="&#xc5;" horiz-adv-x="815" 
d="M593 0v56h75l-66 143h-388l-68 -143h75v-56h-231v56h75l276 588h-82v56h190l300 -644h76v-56h-232zM408 616l-164 -351h328zM329 872q0 36 21.5 58t56.5 22t56.5 -22t21.5 -58q0 -35 -21.5 -57t-56.5 -22t-56.5 22t-21.5 57zM361 872q0 -20 13 -33t33 -13t32.5 13
t12.5 33q0 21 -12.5 34t-32.5 13t-33 -13t-13 -34z" />
    <glyph glyph-name="AE" unicode="&#xc6;" horiz-adv-x="905" 
d="M402 0v194h-191q-5 -11 -29 -61.5t-37 -77.5h76v-55h-231v55h75q46 98 137.5 294.5t137.5 294.5h-76v56h563v-139h-68v73h-276v-244h311v-66h-311v-259h284v73h68v-138h-433zM241 260h161v344q-26 -57 -80 -172t-81 -172z" />
    <glyph glyph-name="Ccedilla" unicode="&#xc7;" horiz-adv-x="725" 
d="M301 -159q5 4 15 14t15 14q27 -29 57 -29q44 0 44 34q0 15 -11 25t-24 16.5t-24.5 27t-11.5 54.5q-141 14 -226 110t-85 243q0 158 98.5 256.5t255.5 98.5q155 0 254 -71v-128h-68v91q-72 42 -182 42q-123 0 -200 -80.5t-77 -208.5t77 -208.5t200 -80.5q135 0 207 83
l48 -48q-98 -99 -257 -101q1 -28 12 -44.5t24 -21t24 -19t11 -40.5q0 -32 -24.5 -52t-62.5 -20q-51 0 -89 43z" />
    <glyph glyph-name="Egrave" unicode="&#xc8;" horiz-adv-x="647" 
d="M577 0h-548v55h75v589h-75v56h541v-139h-69v73h-316v-244h334v-66h-334v-259h324v73h68v-138zM245 903l46 47l147 -146l-32 -32z" />
    <glyph glyph-name="Eacute" unicode="&#xc9;" horiz-adv-x="647" 
d="M577 0h-548v55h75v589h-75v56h541v-139h-69v73h-316v-244h334v-66h-334v-259h324v73h68v-138zM392 950l46 -47l-161 -131l-31 32z" />
    <glyph glyph-name="Ecircumflex" unicode="&#xca;" horiz-adv-x="647" 
d="M577 0h-548v55h75v589h-75v56h541v-139h-69v73h-316v-244h334v-66h-334v-259h324v73h68v-138zM182 837l160 113l160 -113l-39 -39l-121 87l-121 -87z" />
    <glyph glyph-name="Edieresis" unicode="&#xcb;" horiz-adv-x="647" 
d="M577 0h-548v55h75v589h-75v56h541v-139h-69v73h-316v-244h334v-66h-334v-259h324v73h68v-138zM189 807v93h76v-93h-76zM419 807v93h76v-93h-76z" />
    <glyph glyph-name="Igrave" unicode="&#xcc;" horiz-adv-x="290" 
d="M30 644v56h230v-56h-74v-588h74v-56h-230v56h75v588h-75zM50 903l46 47l147 -146l-32 -32z" />
    <glyph glyph-name="Iacute" unicode="&#xcd;" horiz-adv-x="290" 
d="M30 644v56h230v-56h-74v-588h74v-56h-230v56h75v588h-75zM196 950l46 -47l-161 -131l-31 32z" />
    <glyph glyph-name="Icircumflex" unicode="&#xce;" horiz-adv-x="330" 
d="M49 644v56h230v-56h-74v-588h74v-56h-230v56h75v588h-75zM6 837l160 113l160 -113l-39 -39l-121 87l-121 -87z" />
    <glyph glyph-name="Idieresis" unicode="&#xcf;" horiz-adv-x="339" 
d="M53 644v56h230v-56h-74v-588h74v-56h-230v56h75v588h-75zM17 807v93h76v-93h-76zM247 807v93h76v-93h-76z" />
    <glyph glyph-name="Eth" unicode="&#xd0;" horiz-adv-x="783" 
d="M50 644v56h336q154 0 250.5 -97.5t96.5 -252.5t-96.5 -252.5t-250.5 -97.5h-336v56h75v268h-100v66h100v254h-75zM445 324h-239v-258h180q118 0 192 79.5t74 204.5t-74 204.5t-192 79.5h-180v-244h239v-66z" />
    <glyph glyph-name="Ntilde" unicode="&#xd1;" horiz-adv-x="810" 
d="M549 644v56h231v-56h-75v-644h-81l-438 577v-521h74v-56h-230v56h75v588h-75v56h156l438 -577v521h-75zM255 826l-33 33q55 55 112 55q28 0 76.5 -18.5t71.5 -18.5q37 0 69 31q23 -22 34 -33q-54 -55 -110 -55q-28 0 -76.5 19t-71.5 19q-37 0 -72 -32z" />
    <glyph glyph-name="Ograve" unicode="&#xd2;" horiz-adv-x="804" 
d="M50 350q0 158 97.5 256.5t254.5 98.5q156 0 254.5 -99t98.5 -256t-98.5 -256t-254.5 -99q-157 0 -254.5 98.5t-97.5 256.5zM131 350q0 -127 76 -208t195 -81q120 0 195.5 80.5t75.5 208.5t-75.5 208.5t-195.5 80.5q-119 0 -195 -81t-76 -208zM305 903l46 47l147 -146
l-32 -32z" />
    <glyph glyph-name="Oacute" unicode="&#xd3;" horiz-adv-x="804" 
d="M50 350q0 158 97.5 256.5t254.5 98.5q156 0 254.5 -99t98.5 -256t-98.5 -256t-254.5 -99q-157 0 -254.5 98.5t-97.5 256.5zM131 350q0 -127 76 -208t195 -81q120 0 195.5 80.5t75.5 208.5t-75.5 208.5t-195.5 80.5q-119 0 -195 -81t-76 -208zM451 950l46 -47l-161 -131
l-31 32z" />
    <glyph glyph-name="Ocircumflex" unicode="&#xd4;" horiz-adv-x="804" 
d="M50 350q0 158 97.5 256.5t254.5 98.5q156 0 254.5 -99t98.5 -256t-98.5 -256t-254.5 -99q-157 0 -254.5 98.5t-97.5 256.5zM131 350q0 -127 76 -208t195 -81q120 0 195.5 80.5t75.5 208.5t-75.5 208.5t-195.5 80.5q-119 0 -195 -81t-76 -208zM242 837l160 113l160 -113
l-39 -39l-121 87l-121 -87z" />
    <glyph glyph-name="Otilde" unicode="&#xd5;" horiz-adv-x="804" 
d="M50 350q0 158 97.5 256.5t254.5 98.5q156 0 254.5 -99t98.5 -256t-98.5 -256t-254.5 -99q-157 0 -254.5 98.5t-97.5 256.5zM131 350q0 -127 76 -208t195 -81q120 0 195.5 80.5t75.5 208.5t-75.5 208.5t-195.5 80.5q-119 0 -195 -81t-76 -208zM252 826l-33 33
q55 55 112 55q28 0 76.5 -18.5t71.5 -18.5q37 0 69 31q23 -22 34 -33q-54 -55 -110 -55q-28 0 -76.5 19t-71.5 19q-37 0 -72 -32z" />
    <glyph glyph-name="Odieresis" unicode="&#xd6;" horiz-adv-x="804" 
d="M50 350q0 158 97.5 256.5t254.5 98.5q156 0 254.5 -99t98.5 -256t-98.5 -256t-254.5 -99q-157 0 -254.5 98.5t-97.5 256.5zM131 350q0 -127 76 -208t195 -81q120 0 195.5 80.5t75.5 208.5t-75.5 208.5t-195.5 80.5q-119 0 -195 -81t-76 -208zM249 807v93h76v-93h-76z
M479 807v93h76v-93h-76z" />
    <glyph glyph-name="multiply" unicode="&#xd7;" horiz-adv-x="582" 
d="M489 512l-152 -152l152 -152l-47 -46l-152 151l-151 -151l-46 47l151 151l-151 151l46 47l151 -151l152 151z" />
    <glyph glyph-name="Oslash" unicode="&#xd8;" horiz-adv-x="804" 
d="M210 -50h-77l60 106q-68 46 -105.5 122t-37.5 172q0 158 97.5 256.5t254.5 98.5q82 0 149 -30l43 75h77l-61 -106q68 -46 106.5 -122.5t38.5 -171.5q0 -157 -98.5 -256t-254.5 -99q-83 0 -149 30zM673 350q0 151 -101 228l-284 -493q49 -24 114 -24q120 0 195.5 80.5
t75.5 208.5zM131 350q0 -149 101 -228l284 492q-52 25 -114 25q-119 0 -195 -81t-76 -208z" />
    <glyph glyph-name="Ugrave" unicode="&#xd9;" horiz-adv-x="821" 
d="M30 644v56h230v-56h-74v-339q0 -109 62 -176.5t162 -67.5q101 0 163 67.5t62 176.5v339h-75v56h231v-56h-75v-339q0 -142 -83.5 -226t-222.5 -84t-222 83.5t-83 226.5v339h-75zM313 903l46 47l147 -146l-32 -32z" />
    <glyph glyph-name="Uacute" unicode="&#xda;" horiz-adv-x="821" 
d="M30 644v56h230v-56h-74v-339q0 -109 62 -176.5t162 -67.5q101 0 163 67.5t62 176.5v339h-75v56h231v-56h-75v-339q0 -142 -83.5 -226t-222.5 -84t-222 83.5t-83 226.5v339h-75zM460 950l46 -47l-161 -131l-31 32z" />
    <glyph glyph-name="Ucircumflex" unicode="&#xdb;" horiz-adv-x="821" 
d="M30 644v56h230v-56h-74v-339q0 -109 62 -176.5t162 -67.5q101 0 163 67.5t62 176.5v339h-75v56h231v-56h-75v-339q0 -142 -83.5 -226t-222.5 -84t-222 83.5t-83 226.5v339h-75zM250 837l160 113l160 -113l-39 -39l-121 87l-121 -87z" />
    <glyph glyph-name="Udieresis" unicode="&#xdc;" horiz-adv-x="821" 
d="M30 644v56h230v-56h-74v-339q0 -109 62 -176.5t162 -67.5q101 0 163 67.5t62 176.5v339h-75v56h231v-56h-75v-339q0 -142 -83.5 -226t-222.5 -84t-222 83.5t-83 226.5v339h-75zM257 807v93h76v-93h-76zM487 807v93h76v-93h-76z" />
    <glyph glyph-name="Yacute" unicode="&#xdd;" horiz-adv-x="706" 
d="M482 644v56h233v-56h-77l-245 -382v-206h75v-56h-231v56h75v206l-246 382h-76v56h233v-56h-72l201 -309l202 309h-72zM403 950l46 -47l-161 -131l-31 32z" />
    <glyph glyph-name="Thorn" unicode="&#xde;" horiz-adv-x="617" 
d="M30 644v56h230v-56h-74v-69h165q96 0 156 -59t60 -153q0 -93 -60 -152t-156 -59h-165v-96h74v-56h-230v56h75v588h-75zM343 509h-157v-291h157q64 0 103.5 40.5t39.5 104.5q0 65 -39.5 105.5t-103.5 40.5z" />
    <glyph glyph-name="germandbls" unicode="&#xdf;" horiz-adv-x="647" 
d="M30 444v56h70v57q0 77 49.5 125t129.5 48t132 -46.5t52 -115.5q0 -26 -12.5 -48t-30.5 -38t-36.5 -31.5t-31 -35.5t-12.5 -44q0 -29 26.5 -50t64.5 -34.5t75.5 -29.5t64 -44.5t26.5 -69.5q0 -65 -51.5 -106.5t-125.5 -41.5q-100 0 -168 73l41 40q47 -52 127 -52
q43 0 72 24t29 61q0 28 -26.5 47.5t-64.5 33.5t-76 30t-64.5 46t-26.5 73q0 27 12.5 51t30.5 42t36.5 34.5t31 35t12.5 36.5q0 44 -29.5 71.5t-74.5 27.5q-46 0 -76 -29.5t-30 -75.5v-564h-146v56h70v388h-70z" />
    <glyph glyph-name="agrave" unicode="&#xe0;" horiz-adv-x="575" 
d="M402 0v114q-25 -55 -72.5 -86.5t-109.5 -31.5q-74 0 -121 39.5t-47 101.5q0 72 66 117t170 45q57 0 114 -11v30q0 57 -36.5 91.5t-94.5 34.5q-76 0 -129 -22v-60h-66v98q76 45 191 45q94 0 152.5 -51.5t58.5 -133.5v-264h70v-56h-146zM402 236q-46 15 -109 15
q-73 0 -119 -30t-46 -77q0 -40 33.5 -64t85.5 -24q67 0 111 52.5t44 127.5zM170 703l46 47l147 -146l-32 -32z" />
    <glyph glyph-name="aacute" unicode="&#xe1;" horiz-adv-x="575" 
d="M402 0v114q-25 -55 -72.5 -86.5t-109.5 -31.5q-74 0 -121 39.5t-47 101.5q0 72 66 117t170 45q57 0 114 -11v30q0 57 -36.5 91.5t-94.5 34.5q-76 0 -129 -22v-60h-66v98q76 45 191 45q94 0 152.5 -51.5t58.5 -133.5v-264h70v-56h-146zM402 236q-46 15 -109 15
q-73 0 -119 -30t-46 -77q0 -40 33.5 -64t85.5 -24q67 0 111 52.5t44 127.5zM317 750l46 -47l-161 -131l-31 32z" />
    <glyph glyph-name="acircumflex" unicode="&#xe2;" horiz-adv-x="575" 
d="M402 0v114q-25 -55 -72.5 -86.5t-109.5 -31.5q-74 0 -121 39.5t-47 101.5q0 72 66 117t170 45q57 0 114 -11v30q0 57 -36.5 91.5t-94.5 34.5q-76 0 -129 -22v-60h-66v98q76 45 191 45q94 0 152.5 -51.5t58.5 -133.5v-264h70v-56h-146zM402 236q-46 15 -109 15
q-73 0 -119 -30t-46 -77q0 -40 33.5 -64t85.5 -24q67 0 111 52.5t44 127.5zM107 637l160 113l160 -113l-39 -39l-121 87l-121 -87z" />
    <glyph glyph-name="atilde" unicode="&#xe3;" horiz-adv-x="575" 
d="M402 0v114q-25 -55 -72.5 -86.5t-109.5 -31.5q-74 0 -121 39.5t-47 101.5q0 72 66 117t170 45q57 0 114 -11v30q0 57 -36.5 91.5t-94.5 34.5q-76 0 -129 -22v-60h-66v98q76 45 191 45q94 0 152.5 -51.5t58.5 -133.5v-264h70v-56h-146zM402 236q-46 15 -109 15
q-73 0 -119 -30t-46 -77q0 -40 33.5 -64t85.5 -24q67 0 111 52.5t44 127.5zM119 626l-10.5 10.5l-12 12l-10.5 10.5q55 55 112 55q28 0 76.5 -18.5t71.5 -18.5q37 0 69 31q23 -22 34 -33q-54 -55 -110 -55q-28 0 -76.5 19t-71.5 19q-37 0 -72 -32z" />
    <glyph glyph-name="adieresis" unicode="&#xe4;" horiz-adv-x="575" 
d="M402 0v114q-25 -55 -72.5 -86.5t-109.5 -31.5q-74 0 -121 39.5t-47 101.5q0 72 66 117t170 45q57 0 114 -11v30q0 57 -36.5 91.5t-94.5 34.5q-76 0 -129 -22v-60h-66v98q76 45 191 45q94 0 152.5 -51.5t58.5 -133.5v-264h70v-56h-146zM402 236q-46 15 -109 15
q-73 0 -119 -30t-46 -77q0 -40 33.5 -64t85.5 -24q67 0 111 52.5t44 127.5zM114 607v93h76v-93h-76zM344 607v93h76v-93h-76z" />
    <glyph glyph-name="aring" unicode="&#xe5;" horiz-adv-x="575" 
d="M402 0v114q-25 -55 -72.5 -86.5t-109.5 -31.5q-74 0 -121 39.5t-47 101.5q0 72 66 117t170 45q57 0 114 -11v30q0 57 -36.5 91.5t-94.5 34.5q-76 0 -129 -22v-60h-66v98q76 45 191 45q94 0 152.5 -51.5t58.5 -133.5v-264h70v-56h-146zM402 236q-46 15 -109 15
q-73 0 -119 -30t-46 -77q0 -40 33.5 -64t85.5 -24q67 0 111 52.5t44 127.5zM189 672q0 36 21.5 58t56.5 22t56.5 -22t21.5 -58q0 -35 -21.5 -57t-56.5 -22t-56.5 22t-21.5 57zM221 672q0 -20 13 -33t33 -13t32.5 13t12.5 33q0 21 -12.5 34t-32.5 13t-33 -13t-13 -34z" />
    <glyph glyph-name="ae" unicode="&#xe6;" horiz-adv-x="920" 
d="M140 362h-66v97q71 46 188 46q63 0 110.5 -30t71.5 -81q28 52 78 81.5t114 29.5q105 0 170.5 -71t65.5 -184v-21h-397q5 -77 56.5 -125.5t130.5 -48.5q92 0 142 55l43 -43q-72 -72 -189 -72q-76 0 -133.5 33.5t-86.5 92.5q-57 -124 -210 -124q-78 0 -127 38.5t-49 101.5
q0 72 65 116t169 44q60 0 113 -11v14q0 65 -37 104.5t-96 39.5q-78 0 -126 -22v-60zM476 282h320q-2 72 -46.5 117t-111.5 45q-66 0 -110.5 -44.5t-51.5 -117.5zM399 234q-44 16 -108 16q-73 0 -118 -30t-45 -77q0 -39 33 -63.5t84 -24.5q66 0 109 51t45 128z" />
    <glyph glyph-name="ccedilla" unicode="&#xe7;" horiz-adv-x="540" 
d="M200 -159q5 4 15 14t15 14q27 -29 57 -29q44 0 44 34q0 15 -11 25t-24 16.5t-24.5 27.5t-11.5 55q-96 13 -154.5 81.5t-58.5 170.5q0 113 71 184t184 71q110 0 180 -48v-100h-66v65q-41 22 -110 22q-81 0 -132 -54t-51 -140t51 -140t132 -54q88 0 139 53l42 -41
q-68 -71 -182 -73q1 -28 12 -44.5t24 -21t24 -19t11 -40.5q0 -32 -24.5 -52t-62.5 -20q-51 0 -89 43z" />
    <glyph glyph-name="egrave" unicode="&#xe8;" horiz-adv-x="568" 
d="M520 229h-397q5 -77 56.5 -125.5t130.5 -48.5q92 0 142 55q7 -6 14 -13.5t15.5 -16l13.5 -13.5q-72 -72 -189 -72q-115 0 -187 70.5t-72 184.5q0 113 66 184t171 71t170.5 -71t65.5 -184v-21zM124 282h320q-2 72 -46.5 117t-111.5 45q-66 0 -110.5 -44.5t-51.5 -117.5z
M186 703l46 47l147 -146l-32 -32z" />
    <glyph glyph-name="eacute" unicode="&#xe9;" horiz-adv-x="568" 
d="M520 229h-397q5 -77 56.5 -125.5t130.5 -48.5q92 0 142 55q7 -6 14 -13.5t15.5 -16l13.5 -13.5q-72 -72 -189 -72q-115 0 -187 70.5t-72 184.5q0 113 66 184t171 71t170.5 -71t65.5 -184v-21zM124 282h320q-2 72 -46.5 117t-111.5 45q-66 0 -110.5 -44.5t-51.5 -117.5z
M333 750l46 -47l-161 -131l-31 32z" />
    <glyph glyph-name="ecircumflex" unicode="&#xea;" horiz-adv-x="568" 
d="M520 229h-397q5 -77 56.5 -125.5t130.5 -48.5q92 0 142 55q7 -6 14 -13.5t15.5 -16l13.5 -13.5q-72 -72 -189 -72q-115 0 -187 70.5t-72 184.5q0 113 66 184t171 71t170.5 -71t65.5 -184v-21zM124 282h320q-2 72 -46.5 117t-111.5 45q-66 0 -110.5 -44.5t-51.5 -117.5z
M123 637l160 113l160 -113l-39 -39l-121 87l-121 -87z" />
    <glyph glyph-name="edieresis" unicode="&#xeb;" horiz-adv-x="568" 
d="M520 229h-397q5 -77 56.5 -125.5t130.5 -48.5q92 0 142 55q7 -6 14 -13.5t15.5 -16l13.5 -13.5q-72 -72 -189 -72q-115 0 -187 70.5t-72 184.5q0 113 66 184t171 71t170.5 -71t65.5 -184v-21zM124 282h320q-2 72 -46.5 117t-111.5 45q-66 0 -110.5 -44.5t-51.5 -117.5z
M130 607v93h76v-93h-76zM360 607v93h76v-93h-76z" />
    <glyph glyph-name="igrave" unicode="&#xec;" horiz-adv-x="275" 
d="M29 444v56h146v-445h70v-55h-216v55h70v389h-70zM42 703l46 47l147 -146l-32 -32z" />
    <glyph glyph-name="iacute" unicode="&#xed;" horiz-adv-x="275" 
d="M29 444v56h146v-445h70v-55h-216v55h70v389h-70zM189 750l46 -47l-161 -131l-31 32z" />
    <glyph glyph-name="icircumflex" unicode="&#xee;" horiz-adv-x="380" 
d="M81 444v56h146v-445h70v-55h-216v55h70v389h-70zM31 637l160 113l160 -113l-39 -39l-121 87l-121 -87z" />
    <glyph glyph-name="idieresis" unicode="&#xef;" horiz-adv-x="366" 
d="M29 607v93h77v-93h-77zM259 607v93h76v-93h-76zM74 444v56h146v-445h70v-55h-216v55h70v389h-70z" />
    <glyph glyph-name="eth" unicode="&#xf0;" horiz-adv-x="588" 
d="M329 550h-58l57 77q-43 26 -95 41.5t-83 17.5l-30 3l43 43q12 0 31.5 -1.5t72.5 -15.5t96 -39l37 49h58l-55 -74q135 -100 135 -301v-100q0 -113 -68 -184t-176 -71q-110 0 -178.5 71t-68.5 184t62.5 183.5t159.5 70.5q64 0 115.5 -33.5t77.5 -90.5q0 140 -96 220z
M462 249q0 86 -47 140t-122 54t-122.5 -54t-47.5 -140q0 -85 47.5 -139t122.5 -54q76 1 122.5 54.5t46.5 138.5z" />
    <glyph glyph-name="ntilde" unicode="&#xf1;" horiz-adv-x="650" 
d="M404 0v56h70v246q0 64 -38 103t-99 39q-69 0 -114 -55t-47 -136v-197h70v-56h-216v56h70v388h-70v56h146v-129q27 62 77.5 98t116.5 36q80 0 130 -53t50 -137v-259h70v-56h-216zM175 626l-10.5 10.5l-12 12l-10.5 10.5q55 55 112 55q28 0 76.5 -18.5t71.5 -18.5
q37 0 69 31q23 -22 34 -33q-54 -55 -110 -55q-28 0 -76.5 19t-71.5 19q-37 0 -72 -32z" />
    <glyph glyph-name="ograve" unicode="&#xf2;" 
d="M47 250q0 113 71 184t184 71t184 -71t71 -184t-71 -184t-184 -71t-184 71t-71 184zM123 250q0 -86 50 -140t129 -54q80 0 129.5 54t49.5 140t-49.5 140t-129.5 54q-79 0 -129 -54t-50 -140zM205 703l46 47l147 -146l-32 -32z" />
    <glyph glyph-name="oacute" unicode="&#xf3;" 
d="M47 250q0 113 71 184t184 71t184 -71t71 -184t-71 -184t-184 -71t-184 71t-71 184zM123 250q0 -86 50 -140t129 -54q80 0 129.5 54t49.5 140t-49.5 140t-129.5 54q-79 0 -129 -54t-50 -140zM351 750l46 -47l-161 -131l-31 32z" />
    <glyph glyph-name="ocircumflex" unicode="&#xf4;" 
d="M47 250q0 113 71 184t184 71t184 -71t71 -184t-71 -184t-184 -71t-184 71t-71 184zM123 250q0 -86 50 -140t129 -54q80 0 129.5 54t49.5 140t-49.5 140t-129.5 54q-79 0 -129 -54t-50 -140zM142 637l160 113l160 -113l-39 -39l-121 87l-121 -87z" />
    <glyph glyph-name="otilde" unicode="&#xf5;" 
d="M47 250q0 113 71 184t184 71t184 -71t71 -184t-71 -184t-184 -71t-184 71t-71 184zM123 250q0 -86 50 -140t129 -54q80 0 129.5 54t49.5 140t-49.5 140t-129.5 54q-79 0 -129 -54t-50 -140zM152 626l-10.5 10.5l-12 12l-10.5 10.5q55 55 112 55q28 0 76.5 -18.5
t71.5 -18.5q37 0 69 31q23 -22 34 -33q-54 -55 -110 -55q-28 0 -76.5 19t-71.5 19q-37 0 -72 -32z" />
    <glyph glyph-name="odieresis" unicode="&#xf6;" 
d="M47 250q0 113 71 184t184 71t184 -71t71 -184t-71 -184t-184 -71t-184 71t-71 184zM123 250q0 -86 50 -140t129 -54q80 0 129.5 54t49.5 140t-49.5 140t-129.5 54q-79 0 -129 -54t-50 -140zM149 607v93h76v-93h-76zM379 607v93h76v-93h-76z" />
    <glyph glyph-name="divide" unicode="&#xf7;" horiz-adv-x="582" 
d="M501 330h-420v60h420v-60zM252 142v103h76v-103h-76zM252 475v103h76v-103h-76z" />
    <glyph glyph-name="oslash" unicode="&#xf8;" 
d="M163 -50h-67l52 91q-101 71 -101 209q0 113 71 184t184 71q54 0 103 -19l37 64h67l-53 -91q101 -69 101 -209q0 -113 -71 -184t-184 -71q-58 0 -102 19zM481 250q0 94 -62 145l-187 -325q28 -14 70 -14q80 0 129.5 54t49.5 140zM123 250q0 -95 61 -145l189 325
q-33 14 -71 14q-79 0 -129 -54t-50 -140z" />
    <glyph glyph-name="ugrave" unicode="&#xf9;" horiz-adv-x="645" 
d="M402 444v56h146v-444h70v-56h-146v129q-28 -62 -78.5 -98t-115.5 -36q-80 0 -130.5 55.5t-50.5 144.5v249h-70v56h146v-295q0 -67 38 -108t99 -41q69 0 114.5 54.5t47.5 135.5v198h-70zM225 703l46 47l147 -146l-32 -32z" />
    <glyph glyph-name="uacute" unicode="&#xfa;" horiz-adv-x="645" 
d="M402 444v56h146v-444h70v-56h-146v129q-28 -62 -78.5 -98t-115.5 -36q-80 0 -130.5 55.5t-50.5 144.5v249h-70v56h146v-295q0 -67 38 -108t99 -41q71 0 116.5 57.5t45.5 140.5v190h-70zM371 750l46 -47l-161 -131l-31 32z" />
    <glyph glyph-name="ucircumflex" unicode="&#xfb;" horiz-adv-x="645" 
d="M402 444v56h146v-444h70v-56h-146v129q-28 -62 -78.5 -98t-115.5 -36q-80 0 -130.5 55.5t-50.5 144.5v249h-70v56h146v-295q0 -67 38 -108t99 -41q69 0 114.5 54.5t47.5 135.5v198h-70zM162 637l160 113l160 -113l-39 -39l-121 87l-121 -87z" />
    <glyph glyph-name="udieresis" unicode="&#xfc;" horiz-adv-x="645" 
d="M402 444v56h146v-444h70v-56h-146v129q-28 -62 -78.5 -98t-115.5 -36q-80 0 -130.5 55.5t-50.5 144.5v249h-70v56h146v-295q0 -67 38 -108t99 -41q69 0 114.5 54.5t47.5 135.5v198h-70zM399 607v93h76v-93h-76zM169 607v93h76v-93h-76z" />
    <glyph glyph-name="yacute" unicode="&#xfd;" horiz-adv-x="600" 
d="M394 444v56h216v-56h-71l-247 -541q-60 -133 -151 -133q-71 0 -113 43l40 40q21 -22 67 -22q30 0 51.5 25t43.5 73l32 72l-202 443h-70v56h217v-56h-72l164 -359l165 359h-70zM349 750l46 -47l-161 -131l-31 32z" />
    <glyph glyph-name="thorn" unicode="&#xfe;" horiz-adv-x="609" 
d="M22 669v56h146v-359q24 63 74 100t116 37q90 0 147 -70.5t57 -182.5q0 -113 -69 -183t-180 -70q-84 0 -145 37v-203h70v-56h-216v56h70v838h-70zM168 253v-161q57 -35 138 -35q80 0 130 53.5t50 139.5q0 87 -44 139.5t-116 52.5q-69 0 -113.5 -54.5t-44.5 -134.5z" />
    <glyph glyph-name="ydieresis" unicode="&#xff;" horiz-adv-x="600" 
d="M394 444v56h216v-56h-71l-247 -541q-60 -133 -151 -133q-71 0 -113 43l40 40q21 -22 67 -22q30 0 51.5 25t43.5 73l32 72l-202 443h-70v56h217v-56h-72l164 -359l165 359h-70zM147 607v93h76v-93h-76zM377 607v93h76v-93h-76z" />
    <glyph glyph-name="Amacron" unicode="&#x100;" horiz-adv-x="815" 
d="M593 0v56h75l-66 143h-388l-68 -143h75v-56h-231v56h75l276 588h-82v56h190l300 -644h76v-56h-232zM408 616l-164 -351h328zM561 849h-306v51h306v-51z" />
    <glyph glyph-name="amacron" unicode="&#x101;" horiz-adv-x="575" 
d="M402 0v114q-25 -55 -72.5 -86.5t-109.5 -31.5q-74 0 -121 39.5t-47 101.5q0 72 66 117t170 45q57 0 114 -11v30q0 57 -36.5 91.5t-94.5 34.5q-76 0 -129 -22v-60h-66v98q76 45 191 45q94 0 152.5 -51.5t58.5 -133.5v-264h70v-56h-146zM402 236q-46 15 -109 15
q-73 0 -119 -30t-46 -77q0 -40 33.5 -64t85.5 -24q67 0 111 52.5t44 127.5zM425 649h-306v51h306v-51z" />
    <glyph glyph-name="Abreve" unicode="&#x102;" horiz-adv-x="815" 
d="M593 0v56h75l-66 143h-388l-68 -143h75v-56h-231v56h75l276 588h-82v56h190l300 -644h76v-56h-232zM408 616l-164 -351h328zM237 884l38 39q53 -53 133 -53q81 0 132 53l38 -39q-68 -71 -170 -71t-171 71z" />
    <glyph glyph-name="abreve" unicode="&#x103;" horiz-adv-x="575" 
d="M402 0v114q-25 -55 -72.5 -86.5t-109.5 -31.5q-74 0 -121 39.5t-47 101.5q0 72 66 117t170 45q57 0 114 -11v30q0 57 -36.5 91.5t-94.5 34.5q-76 0 -129 -22v-60h-66v98q76 45 191 45q94 0 152.5 -51.5t58.5 -133.5v-264h70v-56h-146zM402 236q-46 15 -109 15
q-73 0 -119 -30t-46 -77q0 -40 33.5 -64t85.5 -24q67 0 111 52.5t44 127.5zM101 684l38 39q53 -53 133 -53q81 0 132 53l38 -39q-68 -71 -170 -71t-171 71z" />
    <glyph glyph-name="Aogonek" unicode="&#x104;" horiz-adv-x="818" 
d="M593 0v56h75l-66 143h-388l-68 -143h75v-56h-231v56h75l276 588h-82v56h190l300 -644h76v-56h-55q-9 -11 -23 -29.5t-37 -61.5t-23 -70q0 -21 11 -33t32 -12q34 0 59 25l30 -31q-38 -41 -90 -41q-39 0 -64 23t-25 59q0 38 19 80.5t37 66.5l19 24h-122zM408 616l-164 -351
h328z" />
    <glyph glyph-name="aogonek" unicode="&#x105;" horiz-adv-x="578" 
d="M402 0v114q-25 -55 -72.5 -86.5t-109.5 -31.5q-74 0 -121 39.5t-47 101.5q0 72 66 117t170 45q57 0 114 -11v30q0 57 -36.5 91.5t-94.5 34.5q-76 0 -129 -22v-60h-66v98q76 45 191 45q94 0 152.5 -51.5t58.5 -133.5v-264h70v-56h-52q-9 -11 -23 -29.5t-37 -61.5t-23 -70
q0 -21 11 -33t32 -12q34 0 59 25l30 -31q-38 -41 -90 -41q-39 0 -64 23t-25 59q0 38 19 80.5t37 66.5l19 24h-39zM402 236q-46 15 -109 15q-73 0 -119 -30t-46 -77q0 -40 33.5 -64t85.5 -24q67 0 111 52.5t44 127.5z" />
    <glyph glyph-name="Cacute" unicode="&#x106;" horiz-adv-x="725" 
d="M658 506h-68v91q-72 42 -182 42q-123 0 -200 -80.5t-77 -208.5t77 -208.5t200 -80.5q135 0 207 83l48 -48q-99 -101 -259 -101q-157 0 -255.5 98.5t-98.5 256.5t98.5 256.5t255.5 98.5q155 0 254 -71v-128zM446 950l46 -47l-161 -131l-31 32z" />
    <glyph glyph-name="cacute" unicode="&#x107;" horiz-adv-x="540" 
d="M482 357h-66v65q-41 22 -110 22q-81 0 -132 -54t-51 -140t51 -140t132 -54q88 0 139 53l42 -41q-70 -73 -186 -73q-113 0 -183.5 71t-70.5 184t71 184t184 71q110 0 180 -48v-100zM343 750l46 -47l-161 -131l-31 32z" />
    <glyph glyph-name="Ccircumflex" unicode="&#x108;" horiz-adv-x="725" 
d="M658 506h-68v91q-72 42 -182 42q-123 0 -200 -80.5t-77 -208.5t77 -208.5t200 -80.5q135 0 207 83l48 -48q-99 -101 -259 -101q-157 0 -255.5 98.5t-98.5 256.5t98.5 256.5t255.5 98.5q155 0 254 -71v-128zM234 837l160 113l160 -113l-39 -39l-121 87l-121 -87z" />
    <glyph glyph-name="ccircumflex" unicode="&#x109;" horiz-adv-x="540" 
d="M482 357h-66v65q-41 22 -110 22q-81 0 -132 -54t-51 -140t51 -140t132 -54q88 0 139 53l42 -41q-70 -73 -186 -73q-113 0 -183.5 71t-70.5 184t71 184t184 71q110 0 180 -48v-100zM133 637l160 113l160 -113l-39 -39l-121 87l-121 -87z" />
    <glyph glyph-name="Cdotaccent" unicode="&#x10a;" horiz-adv-x="725" 
d="M658 506h-68v91q-72 42 -182 42q-123 0 -200 -80.5t-77 -208.5t77 -208.5t200 -80.5q135 0 207 83l48 -48q-99 -101 -259 -101q-157 0 -255.5 98.5t-98.5 256.5t98.5 256.5t255.5 98.5q155 0 254 -71v-128zM356 807v93h76v-93h-76z" />
    <glyph glyph-name="cdotaccent" unicode="&#x10b;" horiz-adv-x="540" 
d="M482 357h-66v65q-41 22 -110 22q-81 0 -132 -54t-51 -140t51 -140t132 -54q88 0 139 53l42 -41q-70 -73 -186 -73q-113 0 -183.5 71t-70.5 184t71 184t184 71q110 0 180 -48v-100zM255 607v93h76v-93h-76z" />
    <glyph glyph-name="Ccaron" unicode="&#x10c;" horiz-adv-x="725" 
d="M658 506h-68v91q-72 42 -182 42q-123 0 -200 -80.5t-77 -208.5t77 -208.5t200 -80.5q135 0 207 83l48 -48q-99 -101 -259 -101q-157 0 -255.5 98.5t-98.5 256.5t98.5 256.5t255.5 98.5q155 0 254 -71v-128zM554 912l-159 -115l-160 114l39 39l121 -87l121 87z" />
    <glyph glyph-name="ccaron" unicode="&#x10d;" horiz-adv-x="540" 
d="M482 357h-66v65q-41 22 -110 22q-81 0 -132 -54t-51 -140t51 -140t132 -54q88 0 139 53l42 -41q-70 -73 -186 -73q-113 0 -183.5 71t-70.5 184t71 184t184 71q110 0 180 -48v-100zM452 712l-159 -115l-160 114l39 39l121 -87l121 87z" />
    <glyph glyph-name="Dcaron" unicode="&#x10e;" horiz-adv-x="762" 
d="M30 644v56h335q154 0 251 -97.5t97 -252.5t-97 -252.5t-251 -97.5h-335v56h75v588h-75zM632 350q0 125 -74.5 204.5t-192.5 79.5h-179v-568h179q118 0 192.5 79.5t74.5 204.5zM529 912l-159 -115l-160 114l39 39l121 -87l121 87z" />
    <glyph glyph-name="dcaron" unicode="&#x10f;" horiz-adv-x="756" 
d="M441 0v132q-24 -62 -74.5 -98.5t-116.5 -36.5q-90 0 -146.5 67t-56.5 176q0 117 69 190t180 73q83 0 145 -38v204h-70v56h146v-670h70v-55h-146zM282 57q76 0 117.5 59.5t41.5 145.5v145q-56 35 -138 35q-80 0 -130 -56.5t-50 -145.5q0 -83 44 -133t115 -50zM640 501
l-29 29q56 56 56 199h66q0 -135 -93 -228z" />
    <glyph glyph-name="Dcroat" unicode="&#x110;" horiz-adv-x="783" 
d="M50 644v56h336q154 0 250.5 -97.5t96.5 -252.5t-96.5 -252.5t-250.5 -97.5h-336v56h75v268h-100v66h100v254h-75zM445 324h-239v-258h180q118 0 192 79.5t74 204.5t-74 204.5t-192 79.5h-180v-244h239v-66z" />
    <glyph glyph-name="dcroat" unicode="&#x111;" horiz-adv-x="635" 
d="M604 589h-87v-534h70v-55h-146v132q-24 -62 -74.5 -98.5t-116.5 -36.5q-90 0 -146.5 67t-56.5 176q0 117 69 190t180 73q83 0 145 -38v124h-274v48h274v88h76v-88h87v-48zM441 244v164q-57 34 -138 34q-80 0 -130 -56.5t-50 -145.5q0 -83 44 -133t115 -50q68 0 113.5 54
t45.5 133z" />
    <glyph glyph-name="Emacron" unicode="&#x112;" horiz-adv-x="647" 
d="M577 0h-548v55h75v589h-75v56h541v-139h-69v73h-316v-244h334v-66h-334v-259h324v73h68v-138zM490 849h-306v51h306v-51z" />
    <glyph glyph-name="emacron" unicode="&#x113;" horiz-adv-x="568" 
d="M520 229h-397q5 -77 56.5 -125.5t130.5 -48.5q92 0 142 55q7 -6 14 -13.5t15.5 -16l13.5 -13.5q-72 -72 -189 -72q-115 0 -187 70.5t-72 184.5q0 113 66 184t171 71t170.5 -71t65.5 -184v-21zM124 282h320q-2 72 -46.5 117t-111.5 45q-66 0 -110.5 -44.5t-51.5 -117.5z
M436 649h-306v51h306v-51z" />
    <glyph glyph-name="Ebreve" unicode="&#x114;" horiz-adv-x="647" 
d="M577 0h-548v55h75v589h-75v56h541v-139h-69v73h-316v-244h334v-66h-334v-259h324v73h68v-138zM166 884l38 39q53 -53 133 -53q81 0 132 53l38 -39q-68 -71 -170 -71t-171 71z" />
    <glyph glyph-name="ebreve" unicode="&#x115;" horiz-adv-x="568" 
d="M520 229h-397q5 -77 56.5 -125.5t130.5 -48.5q92 0 142 55q7 -6 14 -13.5t15.5 -16l13.5 -13.5q-72 -72 -189 -72q-115 0 -187 70.5t-72 184.5q0 113 66 184t171 71t170.5 -71t65.5 -184v-21zM124 282h320q-2 72 -46.5 117t-111.5 45q-66 0 -110.5 -44.5t-51.5 -117.5z
M112 684l38 39q53 -53 133 -53q81 0 132 53l38 -39q-68 -71 -170 -71t-171 71z" />
    <glyph glyph-name="Edotaccent" unicode="&#x116;" horiz-adv-x="647" 
d="M577 0h-548v55h75v589h-75v56h541v-139h-69v73h-316v-244h334v-66h-334v-259h324v73h68v-138zM299 807v93h76v-93h-76z" />
    <glyph glyph-name="edotaccent" unicode="&#x117;" horiz-adv-x="568" 
d="M520 229h-397q5 -77 56.5 -125.5t130.5 -48.5q92 0 142 55q7 -6 14 -13.5t15.5 -16l13.5 -13.5q-72 -72 -189 -72q-115 0 -187 70.5t-72 184.5q0 113 66 184t171 71t170.5 -71t65.5 -184v-21zM124 282h320q-2 72 -46.5 117t-111.5 45q-66 0 -110.5 -44.5t-51.5 -117.5z
M245 607v93h76v-93h-76z" />
    <glyph glyph-name="Eogonek" unicode="&#x118;" horiz-adv-x="650" 
d="M473 0h-444v55h75v589h-75v56h541v-139h-69v73h-316v-244h334v-66h-334v-259h324v73h68v-138h-49q-9 -11 -23 -29.5t-37 -61.5t-23 -70q0 -21 11 -33t32 -12q34 0 59 25l30 -31q-38 -41 -90 -41q-39 0 -64 23t-25 59q0 38 19 80.5t37 66.5z" />
    <glyph glyph-name="eogonek" unicode="&#x119;" horiz-adv-x="568" 
d="M520 229h-397q5 -77 56.5 -125.5t130.5 -48.5q92 0 142 55q7 -6 14 -13.5t15.5 -16l13.5 -13.5q-55 -55 -137 -67l-9 -12q-9 -12 -21 -29.5t-24 -38t-20 -42.5t-8 -39q0 -21 11 -33t32 -12q34 0 59 25l30 -31q-38 -41 -90 -41q-39 0 -64 23t-25 59q0 33 15.5 71.5
t29.5 59t26 35.5q-113 2 -183 72.5t-70 182.5q0 113 66 184t171 71t170.5 -71t65.5 -184v-21zM124 282h320q-2 72 -46.5 117t-111.5 45q-66 0 -110.5 -44.5t-51.5 -117.5z" />
    <glyph glyph-name="Ecaron" unicode="&#x11a;" horiz-adv-x="647" 
d="M577 0h-548v55h75v589h-75v56h541v-139h-69v73h-316v-244h334v-66h-334v-259h324v73h68v-138zM496 912l-159 -115l-160 114l39 39l121 -87l121 87z" />
    <glyph glyph-name="ecaron" unicode="&#x11b;" horiz-adv-x="568" 
d="M520 229h-397q5 -77 56.5 -125.5t130.5 -48.5q92 0 142 55q7 -6 14 -13.5t15.5 -16l13.5 -13.5q-72 -72 -189 -72q-115 0 -187 70.5t-72 184.5q0 113 66 184t171 71t170.5 -71t65.5 -184v-21zM124 282h320q-2 72 -46.5 117t-111.5 45q-66 0 -110.5 -44.5t-51.5 -117.5z
M443 712l-159 -115l-160 114l39 39l121 -87l121 87z" />
    <glyph glyph-name="Gcircumflex" unicode="&#x11c;" horiz-adv-x="743" 
d="M661 511h-69v91q-71 37 -184 37q-123 0 -200 -81t-77 -209t77 -208t200 -80q105 0 174 57v189h-193v66h274v-277q-99 -101 -259 -101q-158 0 -256 98.5t-98 256.5q0 157 98.5 256t255.5 99q156 0 257 -66v-128zM210 837l160 113l160 -113l-39 -39l-121 87l-121 -87z" />
    <glyph glyph-name="gcircumflex" unicode="&#x11d;" horiz-adv-x="583" 
d="M67 -157l41 40q58 -52 154 -52q77 0 126 47t49 122v115q-25 -55 -74.5 -87t-114.5 -32q-89 0 -145 68t-56 176q0 118 78 191.5t202 73.5q109 0 186 -35v-470q0 -102 -70 -166t-181 -64q-119 0 -195 73zM437 208v217q-55 19 -125 19q-83 0 -136 -56.5t-53 -147.5
q0 -82 44 -132.5t113 -50.5q67 0 111 43.5t46 107.5zM133 637l160 113l160 -113l-39 -39l-121 87l-121 -87z" />
    <glyph glyph-name="Gbreve" unicode="&#x11e;" horiz-adv-x="743" 
d="M661 511h-69v91q-71 37 -184 37q-123 0 -200 -81t-77 -209t77 -208t200 -80q105 0 174 57v189h-193v66h274v-277q-99 -101 -259 -101q-158 0 -256 98.5t-98 256.5q0 157 98.5 256t255.5 99q156 0 257 -66v-128zM199 884l38 39q53 -53 133 -53q81 0 132 53l38 -39
q-68 -71 -170 -71t-171 71z" />
    <glyph glyph-name="gbreve" unicode="&#x11f;" horiz-adv-x="583" 
d="M67 -157l41 40q58 -52 154 -52q77 0 126 47t49 122v115q-25 -55 -74.5 -87t-114.5 -32q-89 0 -145 68t-56 176q0 118 78 191.5t202 73.5q109 0 186 -35v-470q0 -102 -70 -166t-181 -64q-119 0 -195 73zM437 208v217q-55 19 -125 19q-83 0 -136 -56.5t-53 -147.5
q0 -82 44 -132.5t113 -50.5q67 0 111 43.5t46 107.5zM122 684l38 39q53 -53 133 -53q81 0 132 53l38 -39q-68 -71 -170 -71t-171 71z" />
    <glyph glyph-name="Gdotaccent" unicode="&#x120;" horiz-adv-x="743" 
d="M661 511h-69v91q-71 37 -184 37q-123 0 -200 -81t-77 -209t77 -208t200 -80q105 0 174 57v189h-193v66h274v-277q-99 -101 -259 -101q-158 0 -256 98.5t-98 256.5q0 157 98.5 256t255.5 99q156 0 257 -66v-128zM332 807v93h76v-93h-76z" />
    <glyph glyph-name="gdotaccent" unicode="&#x121;" horiz-adv-x="583" 
d="M67 -157l41 40q58 -52 154 -52q77 0 126 47t49 122v115q-25 -55 -74.5 -87t-114.5 -32q-89 0 -145 68t-56 176q0 118 78 191.5t202 73.5q109 0 186 -35v-470q0 -102 -70 -166t-181 -64q-119 0 -195 73zM437 208v217q-55 19 -125 19q-83 0 -136 -56.5t-53 -147.5
q0 -82 44 -132.5t113 -50.5q67 0 111 43.5t46 107.5zM255 607v93h76v-93h-76z" />
    <glyph glyph-name="Gcommaaccent" unicode="&#x122;" horiz-adv-x="743" 
d="M661 511h-69v91q-71 37 -184 37q-123 0 -200 -81t-77 -209t77 -208t200 -80q105 0 174 57v189h-193v66h274v-277q-99 -101 -259 -101q-158 0 -256 98.5t-98 256.5q0 157 98.5 256t255.5 99q156 0 257 -66v-128zM340 -286l-27 27q54 54 54 179h60q0 -119 -87 -206z" />
    <glyph glyph-name="gcommaaccent" unicode="&#x123;" horiz-adv-x="583" 
d="M67 -157l41 40q58 -52 154 -52q77 0 126 47t49 122v115q-25 -55 -74.5 -87t-114.5 -32q-89 0 -145 68t-56 176q0 118 78 191.5t202 73.5q109 0 186 -35v-470q0 -102 -70 -166t-181 -64q-119 0 -195 73zM437 208v217q-55 19 -125 19q-83 0 -136 -56.5t-53 -147.5
q0 -82 44 -132.5t113 -50.5q67 0 111 43.5t46 107.5zM356 810l30 -30q-56 -53 -56 -198h-66q0 136 92 228z" />
    <glyph glyph-name="Hcircumflex" unicode="&#x124;" horiz-adv-x="787" 
d="M527 644v56h231v-56h-75v-588h75v-56h-231v56h75v268h-416v-268h74v-56h-230v56h75v588h-75v56h230v-56h-74v-254h416v254h-75zM238 837l160 113l160 -113l-39 -39l-121 87l-121 -87z" />
    <glyph glyph-name="hcircumflex" unicode="&#x125;" horiz-adv-x="650" 
d="M30 669v56h146v-358q25 63 76.5 100.5t117.5 37.5q80 0 130 -53t50 -137v-259h70v-56h-216v56h70v246q0 64 -38 103t-99 39q-69 0 -114 -55t-47 -136v-197h70v-56h-216v56h70v613h-70zM165 837l160 113l160 -113l-39 -39l-121 87l-121 -87z" />
    <glyph glyph-name="Hbar" unicode="&#x126;" horiz-adv-x="833" 
d="M552 644v56h231v-56h-75v-86h100v-56h-100v-446h75v-56h-231v56h75v268h-421v-268h75v-56h-231v56h75v446h-100v56h100v86h-75v56h231v-56h-75v-86h421v86h-75zM206 390h421v112h-421v-112z" />
    <glyph glyph-name="hbar" unicode="&#x127;" horiz-adv-x="667" 
d="M47 0v56h70v534h-87v48h87v87h76v-87h274v-48h-274v-223q26 63 77 100.5t117 37.5q80 0 130.5 -53t50.5 -137v-259h70v-56h-216v56h70v246q0 64 -38 103t-99 39q-69 0 -114.5 -55t-47.5 -136v-197h70v-56h-216z" />
    <glyph glyph-name="Itilde" unicode="&#x128;" horiz-adv-x="365" 
d="M67 644v56h230v-56h-74v-588h74v-56h-230v56h75v588h-75zM34 826l-33 33q55 55 112 55q28 0 76.5 -18.5t71.5 -18.5q37 0 69 31q23 -22 34 -33q-54 -55 -110 -55q-28 0 -76.5 19t-71.5 19q-37 0 -72 -32z" />
    <glyph glyph-name="itilde" unicode="&#x129;" horiz-adv-x="422" 
d="M62 626l-10.5 10.5l-12 12l-10.5 10.5q55 55 112 55q28 0 76.5 -18.5t71.5 -18.5q37 0 69 31q23 -22 34 -33q-54 -55 -110 -55q-28 0 -76.5 19t-71.5 19q-37 0 -72 -32zM103 444v56h145v-445h70v-55h-215v55h69v389h-69z" />
    <glyph glyph-name="Imacron" unicode="&#x12a;" horiz-adv-x="346" 
d="M58 644v56h230v-56h-74v-588h74v-56h-230v56h75v588h-75zM327 849h-306v51h306v-51z" />
    <glyph glyph-name="imacron" unicode="&#x12b;" horiz-adv-x="366" 
d="M336 649h-307v51h307v-51zM75 444v56h146v-445h69v-55h-215v55h70v389h-70z" />
    <glyph glyph-name="Ibreve" unicode="&#x12c;" horiz-adv-x="343" 
d="M56 644v56h230v-56h-74v-588h74v-56h-230v56h75v588h-75zM1 884l38 39q53 -53 133 -53q81 0 132 53l38 -39q-68 -71 -170 -71t-171 71z" />
    <glyph glyph-name="ibreve" unicode="&#x12d;" horiz-adv-x="401" 
d="M29 684q14 13 39 38q51 -53 132 -53t132 53q14 -13 39 -38q-68 -71 -171 -71t-171 71zM92 444v56h146v-445h70v-55h-216v55h70v389h-70z" />
    <glyph glyph-name="Iogonek" unicode="&#x12e;" horiz-adv-x="290" 
d="M149 0h-119v56h75v588h-75v56h230v-56h-74v-588h74v-56h-56q-9 -11 -23 -29.5t-37 -61.5t-23 -70q0 -21 11 -33t32 -12q34 0 59 25l30 -31q-38 -41 -90 -41q-39 0 -64 23t-25 59q0 38 18.5 80.5t37.5 66.5z" />
    <glyph glyph-name="iogonek" unicode="&#x12f;" horiz-adv-x="277" 
d="M120 0h-90v55h70v389h-70v56h146v-445h70v-55h-71q-9 -11 -23 -29.5t-37 -61.5t-23 -70q0 -21 11 -33t32 -12q34 0 59 25l30 -31q-38 -41 -90 -41q-39 0 -64 23t-25 59q0 38 18.5 80.5t37.5 66.5zM100 607v93h76v-93h-76z" />
    <glyph glyph-name="Idotaccent" unicode="&#x130;" horiz-adv-x="290" 
d="M30 644v56h230v-56h-74v-588h74v-56h-230v56h75v588h-75zM107 807v93h76v-93h-76z" />
    <glyph glyph-name="dotlessi" unicode="&#x131;" horiz-adv-x="275" 
d="M29 444v56h146v-445h70v-55h-216v55h70v389h-70z" />
    <glyph glyph-name="IJ" unicode="&#x132;" horiz-adv-x="637" 
d="M377 644v56h230v-56h-74v-644q0 -102 -65 -166t-168 -64q-114 0 -189 50v103h69v-63q44 -24 115 -24q69 0 112.5 45.5t43.5 118.5v644h-74zM30 644v56h230v-56h-74v-588h74v-56h-230v56h75v588h-75z" />
    <glyph glyph-name="ij" unicode="&#x133;" horiz-adv-x="482" 
d="M29 444v56h146v-445h70v-55h-216v55h70v389h-70zM99 607v93h76v-93h-76zM282 444v56h146v-560q0 -76 -46.5 -123t-120.5 -47t-121 49l40 40q28 -28 76 -28q42 0 69 30t27 77v506h-70zM352 607v93h76v-93h-76z" />
    <glyph glyph-name="Jcircumflex" unicode="&#x134;" horiz-adv-x="628" 
d="M347 644v56h231v-56h-75v-394q0 -113 -71.5 -184t-185.5 -71t-189 50v130h68v-90q45 -24 116 -24q80 0 130.5 52.5t50.5 136.5v394h-75zM303 837l160 113l160 -113l-39 -39l-121 87l-121 -87z" />
    <glyph glyph-name="jcircumflex" unicode="&#x135;" horiz-adv-x="309" 
d="M30 444v56h146v-560q0 -76 -46.5 -123t-120.5 -47t-121 49l40 40q28 -28 76 -28q42 0 69 30t27 77v506h-70zM-35 637l160 113l160 -113l-39 -39l-121 87l-121 -87z" />
    <glyph glyph-name="Kcommaaccent" unicode="&#x136;" horiz-adv-x="697" 
d="M456 0v56h63l-244 286l-89 -90v-196h74v-56h-230v56h75v588h-75v56h230v-56h-74v-288l289 288h-53v56h230v-56h-75l-248 -248l283 -340h78v-56h-234zM331 -286l-27 27q54 54 54 179h60q0 -119 -87 -206z" />
    <glyph glyph-name="kcommaaccent" unicode="&#x137;" horiz-adv-x="572" 
d="M356 0v56h58l-160 175l-78 -69v-106h70v-56h-216v56h70v613h-70v56h146v-471l64 54l134 136h-52v56h213v-56h-67l-166 -166l200 -222h62v-56h-208zM266 -286l-27 27q54 54 54 179h60q0 -119 -87 -206z" />
    <glyph glyph-name="kgreenlandic" unicode="&#x138;" horiz-adv-x="572" 
d="M356 0v56h58l-160 175l-78 -69v-106h70v-56h-216v56h70v388h-70v56h146v-246l64 54l134 136h-52v56h213v-56h-67l-166 -166l200 -222h62v-56h-208z" />
    <glyph glyph-name="Lacute" unicode="&#x139;" horiz-adv-x="652" 
d="M592 0h-562v56h75v588h-75v56h230v-56h-74v-578h338v72h68v-138zM419 950l46 -47l-161 -131l-31 32z" />
    <glyph glyph-name="lacute" unicode="&#x13a;" horiz-adv-x="325" 
d="M27 669v56h146v-613q0 -25 14.5 -40.5t36.5 -15.5q27 0 40 15l41 -41q-35 -35 -88 -35t-86.5 33.5t-33.5 88.5v552h-70zM187 975l46 -47l-161 -131l-31 32z" />
    <glyph glyph-name="Lcommaaccent" unicode="&#x13b;" horiz-adv-x="652" 
d="M592 0h-562v56h75v588h-75v56h230v-56h-74v-578h338v72h68v-138zM314 -286l-27 27q54 54 54 179h60q0 -119 -87 -206z" />
    <glyph glyph-name="lcommaaccent" unicode="&#x13c;" horiz-adv-x="325" 
d="M27 669v56h146v-613q0 -25 14.5 -40.5t36.5 -15.5q27 0 40 15l41 -41q-35 -35 -88 -35t-86.5 33.5t-33.5 88.5v552h-70zM149 -286l-27 27q54 54 54 179h60q0 -119 -87 -206z" />
    <glyph glyph-name="Lcaron" unicode="&#x13d;" horiz-adv-x="672" 
d="M611 0h-562v56h75v588h-75v56h230v-56h-74v-578h338v72h68v-138zM325 912l-159 -115l-160 114l39 39l121 -87l121 87z" />
    <glyph glyph-name="lcaron" unicode="&#x13e;" horiz-adv-x="434" 
d="M27 669v56h146v-613q0 -25 14.5 -40.5t36.5 -15.5q27 0 40 15l41 -41q-35 -35 -88 -35t-86.5 33.5t-33.5 88.5v552h-70zM328 501l-29 29q56 56 56 199h66q0 -135 -93 -228z" />
    <glyph glyph-name="Ldot" unicode="&#x13f;" horiz-adv-x="667" 
d="M592 0h-562v56h75v588h-75v56h230v-56h-74v-578h338v72h68v-138zM521 257v110h76v-110h-76z" />
    <glyph glyph-name="ldot" unicode="&#x140;" horiz-adv-x="449" 
d="M27 669v56h146v-613q0 -25 14.5 -40.5t36.5 -15.5q27 0 40 15l41 -41q-35 -35 -88 -35t-86.5 33.5t-33.5 88.5v552h-70zM353 245v110h76v-110h-76z" />
    <glyph glyph-name="Lslash" unicode="&#x141;" horiz-adv-x="741" 
d="M119 644v56h230v-56h-74v-211l126 73l31 -52l-157 -91v-297h338v72h68v-138h-562v56h74v260l-125 -72l-31 52l156 90v258h-74z" />
    <glyph glyph-name="lslash" unicode="&#x142;" horiz-adv-x="472" 
d="M127 669v56h145v-293l130 74l30 -52l-160 -93v-249q0 -25 14.5 -40.5t36.5 -15.5q27 0 40 15l41 -41q-35 -35 -88 -35t-86.5 33.5t-33.5 88.5v200l-128 -73l-30 52l158 92v281h-69z" />
    <glyph glyph-name="Nacute" unicode="&#x143;" horiz-adv-x="810" 
d="M549 644v56h231v-56h-75v-644h-81l-438 577v-521h74v-56h-230v56h75v588h-75v56h156l438 -577v521h-75zM454 950l46 -47l-161 -131l-31 32z" />
    <glyph glyph-name="nacute" unicode="&#x144;" horiz-adv-x="650" 
d="M404 0v56h70v246q0 64 -38 103t-99 39q-69 0 -114 -55t-47 -136v-197h70v-56h-216v56h70v388h-70v56h146v-129q27 62 77.5 98t116.5 36q80 0 130 -53t50 -137v-259h70v-56h-216zM374 750l46 -47l-161 -131l-31 32z" />
    <glyph glyph-name="Ncommaaccent" unicode="&#x145;" horiz-adv-x="810" 
d="M549 644v56h231v-56h-75v-644h-81l-438 577v-521h74v-56h-230v56h75v588h-75v56h156l438 -577v521h-75zM369 -286l-27 27q54 54 54 179h60q0 -119 -87 -206z" />
    <glyph glyph-name="ncommaaccent" unicode="&#x146;" horiz-adv-x="650" 
d="M404 0v56h70v246q0 64 -38 103t-99 39q-69 0 -114 -55t-47 -136v-197h70v-56h-216v56h70v388h-70v56h146v-129q27 62 77.5 98t116.5 36q80 0 130 -53t50 -137v-259h70v-56h-216zM287 -286l-27 27q54 54 54 179h60q0 -119 -87 -206z" />
    <glyph glyph-name="Ncaron" unicode="&#x147;" horiz-adv-x="810" 
d="M549 644v56h231v-56h-75v-644h-81l-438 577v-521h74v-56h-230v56h75v588h-75v56h156l438 -577v521h-75zM564 912l-159 -115l-160 114l39 39l121 -87l121 87z" />
    <glyph glyph-name="ncaron" unicode="&#x148;" horiz-adv-x="650" 
d="M404 0v56h70v246q0 64 -38 103t-99 39q-69 0 -114 -55t-47 -136v-197h70v-56h-216v56h70v388h-70v56h146v-129q27 62 77.5 98t116.5 36q80 0 130 -53t50 -137v-259h70v-56h-216zM484 712l-159 -115l-160 114l39 39l121 -87l121 87z" />
    <glyph glyph-name="Eng" unicode="&#x14a;" horiz-adv-x="807" 
d="M417 -181q4 4 12.5 12t15 15t12.5 13q26 -28 74 -28q41 0 67 29t26 75v65q-73 96 -219.5 288t-219.5 288v-521h75v-55h-231v55h75v589h-75v56h156q86 -114 248.5 -327t190.5 -250v521h-75v56h231v-56h-75v-703q0 -75 -47.5 -123t-119.5 -48q-74 0 -121 49z" />
    <glyph glyph-name="eng" unicode="&#x14b;" horiz-adv-x="630" 
d="M30 0v56h70v388h-70v56h146v-133q25 63 76.5 100.5t117.5 37.5q80 0 130 -53t50 -137v-375q0 -76 -46 -123t-120 -47q-75 0 -122 49l41 40q26 -28 76 -28q42 0 68.5 30t26.5 77v364q0 64 -38 103t-99 39q-69 0 -114 -55.5t-47 -137.5v-195h70v-56h-216z" />
    <glyph glyph-name="Omacron" unicode="&#x14c;" horiz-adv-x="804" 
d="M50 350q0 158 97.5 256.5t254.5 98.5q156 0 254.5 -99t98.5 -256t-98.5 -256t-254.5 -99q-157 0 -254.5 98.5t-97.5 256.5zM131 350q0 -127 76 -208t195 -81q120 0 195.5 80.5t75.5 208.5t-75.5 208.5t-195.5 80.5q-119 0 -195 -81t-76 -208zM554 849h-306v51h306v-51z
" />
    <glyph glyph-name="omacron" unicode="&#x14d;" 
d="M47 250q0 113 71 184t184 71t184 -71t71 -184t-71 -184t-184 -71t-184 71t-71 184zM123 250q0 -86 50 -140t129 -54q80 0 129.5 54t49.5 140t-49.5 140t-129.5 54q-79 0 -129 -54t-50 -140zM455 649h-306v51h306v-51z" />
    <glyph glyph-name="Obreve" unicode="&#x14e;" horiz-adv-x="804" 
d="M50 350q0 158 97.5 256.5t254.5 98.5q156 0 254.5 -99t98.5 -256t-98.5 -256t-254.5 -99q-157 0 -254.5 98.5t-97.5 256.5zM131 350q0 -127 76 -208t195 -81q120 0 195.5 80.5t75.5 208.5t-75.5 208.5t-195.5 80.5q-119 0 -195 -81t-76 -208zM231 884l38 39
q53 -53 133 -53q81 0 132 53l38 -39q-68 -71 -170 -71t-171 71z" />
    <glyph glyph-name="obreve" unicode="&#x14f;" 
d="M47 250q0 113 71 184t184 71t184 -71t71 -184t-71 -184t-184 -71t-184 71t-71 184zM123 250q0 -86 50 -140t129 -54q80 0 129.5 54t49.5 140t-49.5 140t-129.5 54q-79 0 -129 -54t-50 -140zM131 684l38 39q53 -53 133 -53q81 0 132 53l38 -39q-68 -71 -170 -71t-171 71z
" />
    <glyph glyph-name="Ohungarumlaut" unicode="&#x150;" horiz-adv-x="804" 
d="M50 350q0 158 97.5 256.5t254.5 98.5q156 0 254.5 -99t98.5 -256t-98.5 -256t-254.5 -99q-157 0 -254.5 98.5t-97.5 256.5zM131 350q0 -127 76 -208t195 -81q120 0 195.5 80.5t75.5 208.5t-75.5 208.5t-195.5 80.5q-119 0 -195 -81t-76 -208zM361 950l46 -47l-161 -131
l-31 32zM591 950l46 -47l-161 -131l-31 32z" />
    <glyph glyph-name="ohungarumlaut" unicode="&#x151;" 
d="M47 250q0 113 71 184t184 71t184 -71t71 -184t-71 -184t-184 -71t-184 71t-71 184zM123 250q0 -86 50 -140t129 -54q80 0 129.5 54t49.5 140t-49.5 140t-129.5 54q-79 0 -129 -54t-50 -140zM262 750l46 -47l-161 -131l-31 32zM492 750l46 -47l-161 -131l-31 32z" />
    <glyph glyph-name="OE" unicode="&#x152;" horiz-adv-x="1216" 
d="M1138 561h-68v73h-316v-244h344v-66h-344v-259h323v73h69v-138h-470v141q-40 -69 -112 -107.5t-163 -38.5q-156 0 -254 99t-98 256t98 256t254 99q91 0 163 -39.5t112 -108.5v143h462v-139zM130 350q0 -128 76 -209t195 -81q120 0 196 81t76 209q0 127 -76 208t-196 81
q-119 0 -195 -81t-76 -208z" />
    <glyph glyph-name="oe" unicode="&#x153;" horiz-adv-x="1002" 
d="M955 229h-398q5 -77 56.5 -125.5t130.5 -48.5q91 0 143 55q7 -7 21 -21.5t21 -21.5q-72 -72 -189 -72q-76 0 -133.5 33.5t-87.5 92.5q-29 -59 -86 -92.5t-131 -33.5q-113 0 -184 70.5t-71 184.5q0 113 71 184t184 71q73 0 129.5 -33.5t85.5 -91.5q27 58 80 91.5t122 33.5
q105 0 170.5 -71t65.5 -184v-21zM123 250q0 -86 50 -140.5t129 -54.5t129 54t50 141q0 86 -50 140t-129 54t-129 -54t-50 -140zM558 282h321q-3 72 -47.5 117t-111.5 45q-66 0 -110 -44.5t-52 -117.5z" />
    <glyph glyph-name="Racute" unicode="&#x154;" horiz-adv-x="634" 
d="M402 0v56h68l-181 244h-103v-244h74v-56h-230v56h75v588h-75v56h342q88 0 143.5 -55.5t55.5 -144.5q0 -88 -53.5 -143.5t-139.5 -56.5l182 -244h74v-56h-232zM186 365h177q56 0 91.5 38t35.5 97t-36 96.5t-91 37.5h-177v-269zM382 950l46 -47l-161 -131l-31 32z" />
    <glyph glyph-name="racute" unicode="&#x155;" horiz-adv-x="458" 
d="M27 444v56h146v-146q25 69 76.5 110t120.5 41h35v-130h-65v64q-71 0 -118 -60t-49 -147v-176h70v-56h-216v56h70v388h-70zM273 750l46 -47l-161 -131l-31 32z" />
    <glyph glyph-name="Rcommaaccent" unicode="&#x156;" horiz-adv-x="634" 
d="M402 0v56h68l-181 244h-103v-244h74v-56h-230v56h75v588h-75v56h342q88 0 143.5 -55.5t55.5 -144.5q0 -88 -53.5 -143.5t-139.5 -56.5l182 -244h74v-56h-232zM186 365h177q56 0 91.5 38t35.5 97t-36 96.5t-91 37.5h-177v-269zM302 -286l-27 27q54 54 54 179h60
q0 -119 -87 -206z" />
    <glyph glyph-name="rcommaaccent" unicode="&#x157;" horiz-adv-x="458" 
d="M27 444v56h146v-146q25 69 76.5 110t120.5 41h35v-130h-65v64q-71 0 -118 -60t-49 -147v-176h70v-56h-216v56h70v388h-70zM79 -286l-27 27q54 54 54 179h60q0 -119 -87 -206z" />
    <glyph glyph-name="Rcaron" unicode="&#x158;" horiz-adv-x="634" 
d="M402 0v56h68l-181 244h-103v-244h74v-56h-230v56h75v588h-75v56h342q88 0 143.5 -55.5t55.5 -144.5q0 -88 -53.5 -143.5t-139.5 -56.5l182 -244h74v-56h-232zM186 365h177q56 0 91.5 38t35.5 97t-36 96.5t-91 37.5h-177v-269zM491 912l-159 -115l-160 114l39 39l121 -87
l121 87z" />
    <glyph glyph-name="rcaron" unicode="&#x159;" horiz-adv-x="458" 
d="M27 444v56h146v-146q25 69 76.5 110t120.5 41h35v-130h-65v64q-71 0 -118 -60t-49 -147v-176h70v-56h-216v56h70v388h-70zM383 712l-159 -115l-160 114l39 39l121 -87l121 87z" />
    <glyph glyph-name="Sacute" unicode="&#x15a;" horiz-adv-x="555" 
d="M484 508h-68v94q-60 37 -146 37q-62 0 -98.5 -33.5t-36.5 -86.5q0 -45 38 -75t92 -49t108 -39.5t92 -58.5t38 -94q0 -93 -66 -150.5t-166 -57.5q-132 0 -224 64v130h69v-92q62 -36 154 -36q67 0 109.5 38.5t42.5 99.5q0 41 -38 69t-92 46t-108 39t-92 62t-38 102
q0 84 59 136t150 52q129 0 221 -66v-131zM327 950l46 -47l-161 -131l-31 32z" />
    <glyph glyph-name="sacute" unicode="&#x15b;" horiz-adv-x="447" 
d="M377 365h-66v58q-34 21 -90 21q-40 0 -64.5 -21t-24.5 -54q0 -29 27 -49.5t66 -34t77.5 -29t65.5 -44t27 -69.5q0 -65 -51.5 -106.5t-125.5 -41.5q-98 0 -166 49v94h66v-58q38 -24 99 -24q44 0 73 24t29 61q0 28 -27 47t-66 31.5t-77.5 28t-65.5 45.5t-27 73
q0 61 46.5 100.5t114.5 39.5q97 0 160 -46v-95zM269 750l46 -47l-161 -131l-31 32z" />
    <glyph glyph-name="Scircumflex" unicode="&#x15c;" horiz-adv-x="555" 
d="M484 508h-68v94q-60 37 -146 37q-62 0 -98.5 -33.5t-36.5 -86.5q0 -45 38 -75t92 -49t108 -39.5t92 -58.5t38 -94q0 -93 -66 -150.5t-166 -57.5q-132 0 -224 64v130h69v-92q62 -36 154 -36q67 0 109.5 38.5t42.5 99.5q0 41 -38 69t-92 46t-108 39t-92 62t-38 102
q0 84 59 136t150 52q129 0 221 -66v-131zM118 837l160 113l160 -113l-39 -39l-121 87l-121 -87z" />
    <glyph glyph-name="scircumflex" unicode="&#x15d;" horiz-adv-x="447" 
d="M377 365h-66v58q-34 21 -90 21q-40 0 -64.5 -21t-24.5 -54q0 -29 27 -49.5t66 -34t77.5 -29t65.5 -44t27 -69.5q0 -65 -51.5 -106.5t-125.5 -41.5q-98 0 -166 49v94h66v-58q38 -24 99 -24q44 0 73 24t29 61q0 28 -27 47t-66 31.5t-77.5 28t-65.5 45.5t-27 73
q0 61 46.5 100.5t114.5 39.5q97 0 160 -46v-95zM60 637l160 113l160 -113l-39 -39l-121 87l-121 -87z" />
    <glyph glyph-name="Scedilla" unicode="&#x15e;" horiz-adv-x="555" 
d="M189 -159q5 4 15 14t15 14q27 -29 57 -29q44 0 44 34q0 15 -11 25t-24 16.5t-24 27t-12 53.5q-119 4 -202 63v130h69v-92q62 -36 154 -36q67 0 109.5 38.5t42.5 99.5q0 41 -38 69t-92 46t-108 39t-92 62t-38 102q0 84 59 136t150 52q129 0 221 -66v-131h-68v94
q-60 37 -146 37q-62 0 -98.5 -33.5t-36.5 -86.5q0 -45 38 -75t92 -49t108 -39.5t92 -58.5t38 -94q0 -87 -59 -143.5t-150 -63.5q1 -29 12 -45t24 -21t24 -19.5t11 -40.5q0 -32 -24.5 -52t-62.5 -20q-51 0 -89 43z" />
    <glyph glyph-name="scedilla" unicode="&#x15f;" horiz-adv-x="447" 
d="M130 -159q5 4 15 14t15 14q27 -29 57 -29q44 0 44 34q0 15 -11 25t-24 16.5t-24 27t-12 53.5q-80 6 -138 48v94h66v-58q38 -24 99 -24q44 0 73 24t29 61q0 28 -27 47t-66 31.5t-77.5 28t-65.5 45.5t-27 73q0 61 46.5 100.5t114.5 39.5q97 0 160 -46v-95h-66v58
q-34 21 -90 21q-40 0 -64.5 -21t-24.5 -54q0 -29 27 -49.5t66 -34t77.5 -29t65.5 -44t27 -69.5q0 -61 -46 -101.5t-114 -45.5q1 -29 12 -45t24 -21t24 -19.5t11 -40.5q0 -32 -24.5 -52t-62.5 -20q-51 0 -89 43z" />
    <glyph glyph-name="Scaron" unicode="&#x160;" horiz-adv-x="555" 
d="M484 508h-68v94q-60 37 -146 37q-62 0 -98.5 -33.5t-36.5 -86.5q0 -45 38 -75t92 -49t108 -39.5t92 -58.5t38 -94q0 -93 -66 -150.5t-166 -57.5q-132 0 -224 64v130h69v-92q62 -36 154 -36q67 0 109.5 38.5t42.5 99.5q0 41 -38 69t-92 46t-108 39t-92 62t-38 102
q0 84 59 136t150 52q129 0 221 -66v-131zM437 912l-159 -115l-160 114l39 39l121 -87l121 87z" />
    <glyph glyph-name="scaron" unicode="&#x161;" horiz-adv-x="447" 
d="M377 365h-66v58q-34 21 -90 21q-40 0 -64.5 -21t-24.5 -54q0 -29 27 -49.5t66 -34t77.5 -29t65.5 -44t27 -69.5q0 -65 -51.5 -106.5t-125.5 -41.5q-98 0 -166 49v94h66v-58q38 -24 99 -24q44 0 73 24t29 61q0 28 -27 47t-66 31.5t-77.5 28t-65.5 45.5t-27 73
q0 61 46.5 100.5t114.5 39.5q97 0 160 -46v-95zM379 712l-159 -115l-160 114l39 39l121 -87l121 87z" />
    <glyph glyph-name="Tcommaaccent" unicode="&#x162;" horiz-adv-x="745" 
d="M257 0v56h75v578h-204v-72h-68v138h626v-138h-69v72h-204v-578h75v-56h-231zM316 -286l-27 27q54 54 54 179h60q0 -119 -87 -206z" />
    <glyph glyph-name="tcommaaccent" unicode="&#x163;" horiz-adv-x="437" 
d="M27 439v61h75v115h76v-115h200v-61h-200v-267q0 -51 31 -83.5t78 -32.5q48 0 82 32l41 -40q-48 -53 -131 -53q-78 0 -127.5 49.5t-49.5 130.5v264h-75zM185 -286l-27 27q54 54 54 179h60q0 -119 -87 -206z" />
    <glyph glyph-name="Tcaron" unicode="&#x164;" horiz-adv-x="745" 
d="M257 0v56h75v578h-204v-72h-68v138h626v-138h-69v72h-204v-578h75v-56h-231zM531 912l-159 -115l-160 114l39 39l121 -87l121 87z" />
    <glyph glyph-name="tcaron" unicode="&#x165;" horiz-adv-x="596" 
d="M27 439v61h75v115h76v-115h200v-61h-200v-267q0 -51 31 -83.5t78 -32.5q48 0 82 32l41 -40q-48 -53 -131 -53q-78 0 -127.5 49.5t-49.5 130.5v264h-75zM483 387l-29 29q56 56 56 199h66q0 -135 -93 -228z" />
    <glyph glyph-name="Tbar" unicode="&#x166;" horiz-adv-x="745" 
d="M686 562h-69v72h-204v-197h200v-61h-200v-320h75v-56h-231v56h75v320h-199v61h199v197h-204v-72h-68v138h626v-138z" />
    <glyph glyph-name="tbar" unicode="&#x167;" horiz-adv-x="437" 
d="M375 274h-197v-102q0 -51 31 -83.5t78 -32.5q48 0 82 32l41 -40q-48 -53 -131 -53q-78 0 -127.5 49.5t-49.5 130.5v99h-75v56h75v109h-75v61h75v115h76v-115h197v-61h-197v-109h197v-56z" />
    <glyph glyph-name="Utilde" unicode="&#x168;" horiz-adv-x="821" 
d="M30 644v56h230v-56h-74v-339q0 -109 62 -176.5t162 -67.5q101 0 163 67.5t62 176.5v339h-75v56h231v-56h-75v-339q0 -142 -83.5 -226t-222.5 -84t-222 83.5t-83 226.5v339h-75zM260 826l-33 33q55 55 112 55q28 0 76.5 -18.5t71.5 -18.5q37 0 69 31q23 -22 34 -33
q-54 -55 -110 -55q-28 0 -76.5 19t-71.5 19q-37 0 -72 -32z" />
    <glyph glyph-name="utilde" unicode="&#x169;" horiz-adv-x="645" 
d="M402 444v56h146v-444h70v-56h-146v129q-28 -62 -78.5 -98t-115.5 -36q-80 0 -130.5 55.5t-50.5 144.5v249h-70v56h146v-295q0 -67 38 -108t99 -41q69 0 114.5 54.5t47.5 135.5v198h-70zM173 626l-10.5 10.5l-12 12l-10.5 10.5q55 55 112 55q28 0 76.5 -18.5t71.5 -18.5
q37 0 69 31q23 -22 34 -33q-54 -55 -110 -55q-28 0 -76.5 19t-71.5 19q-37 0 -72 -32z" />
    <glyph glyph-name="Umacron" unicode="&#x16a;" horiz-adv-x="821" 
d="M30 644v56h230v-56h-74v-339q0 -109 62 -176.5t162 -67.5q101 0 163 67.5t62 176.5v339h-75v56h231v-56h-75v-339q0 -142 -83.5 -226t-222.5 -84t-222 83.5t-83 226.5v339h-75zM562 849h-306v51h306v-51z" />
    <glyph glyph-name="umacron" unicode="&#x16b;" horiz-adv-x="645" 
d="M402 444v56h146v-444h70v-56h-146v129q-28 -62 -78.5 -98t-115.5 -36q-80 0 -130.5 55.5t-50.5 144.5v249h-70v56h146v-295q0 -67 38 -108t99 -41q69 0 114.5 54.5t47.5 135.5v198h-70zM475 649h-306v51h306v-51z" />
    <glyph glyph-name="Ubreve" unicode="&#x16c;" horiz-adv-x="821" 
d="M30 644v56h230v-56h-74v-339q0 -109 62 -176.5t162 -67.5q101 0 163 67.5t62 176.5v339h-75v56h231v-56h-75v-339q0 -142 -83.5 -226t-222.5 -84t-222 83.5t-83 226.5v339h-75zM239 884l38 39q53 -53 133 -53q81 0 132 53l38 -39q-68 -71 -170 -71t-171 71z" />
    <glyph glyph-name="ubreve" unicode="&#x16d;" horiz-adv-x="645" 
d="M402 444v56h146v-444h70v-56h-146v129q-28 -62 -78.5 -98t-115.5 -36q-80 0 -130.5 55.5t-50.5 144.5v249h-70v56h146v-295q0 -67 38 -108t99 -41q71 0 116.5 57.5t45.5 140.5v190h-70zM151 684l38 39q53 -53 133 -53q81 0 132 53l38 -39q-68 -71 -170 -71t-171 71z" />
    <glyph glyph-name="Uring" unicode="&#x16e;" horiz-adv-x="821" 
d="M30 644v56h230v-56h-74v-339q0 -109 62 -176.5t162 -67.5q101 0 163 67.5t62 176.5v339h-75v56h231v-56h-75v-339q0 -142 -83.5 -226t-222.5 -84t-222 83.5t-83 226.5v339h-75zM332 872q0 36 21.5 58t56.5 22t56.5 -22t21.5 -58q0 -35 -21.5 -57t-56.5 -22t-56.5 22
t-21.5 57zM364 872q0 -20 13 -33t33 -13t32.5 13t12.5 33q0 21 -12.5 34t-32.5 13t-33 -13t-13 -34z" />
    <glyph glyph-name="uring" unicode="&#x16f;" horiz-adv-x="645" 
d="M402 444v56h146v-444h70v-56h-146v129q-28 -62 -78.5 -98t-115.5 -36q-80 0 -130.5 55.5t-50.5 144.5v249h-70v56h146v-295q0 -67 38 -108t99 -41q69 0 114.5 54.5t47.5 135.5v198h-70zM243 672q0 36 21.5 58t56.5 22t56.5 -22t21.5 -58q0 -35 -21.5 -57t-56.5 -22
t-56.5 22t-21.5 57zM275 672q0 -20 13 -33t33 -13t32.5 13t12.5 33q0 21 -12.5 34t-32.5 13t-33 -13t-13 -34z" />
    <glyph glyph-name="Uhungarumlaut" unicode="&#x170;" horiz-adv-x="821" 
d="M30 644v56h230v-56h-74v-339q0 -109 62 -176.5t162 -67.5q101 0 163 67.5t62 176.5v339h-75v56h231v-56h-75v-339q0 -142 -83.5 -226t-222.5 -84t-222 83.5t-83 226.5v339h-75zM369 950l46 -47l-161 -131l-31 32zM599 950l46 -47l-161 -131l-31 32z" />
    <glyph glyph-name="uhungarumlaut" unicode="&#x171;" horiz-adv-x="645" 
d="M402 444v56h146v-444h70v-56h-146v129q-28 -62 -78.5 -98t-115.5 -36q-80 0 -130.5 55.5t-50.5 144.5v249h-70v56h146v-295q0 -67 38 -108t99 -41q69 0 114.5 54.5t47.5 135.5v198h-70zM512 750l46 -47l-161 -131l-31 32zM282 750l46 -47l-161 -131l-31 32z" />
    <glyph glyph-name="Uogonek" unicode="&#x172;" horiz-adv-x="821" 
d="M30 644v56h230v-56h-74v-339q0 -109 62 -176.5t162 -67.5q101 0 163 67.5t62 176.5v339h-75v56h231v-56h-75v-339q0 -126 -66 -207t-180 -98l-9 -12q-9 -12 -21 -29.5t-24 -38t-20 -42.5t-8 -39q0 -21 11 -33t32 -12q34 0 59 25l30 -31q-38 -41 -90 -41q-39 0 -64 23
t-25 59q0 33 15.5 71.5t29.5 59t26 35.5h-2q-139 0 -222 83.5t-83 226.5v339h-75z" />
    <glyph glyph-name="uogonek" unicode="&#x173;" horiz-adv-x="645" 
d="M500 0h-28v129q-28 -62 -78.5 -98t-115.5 -36q-80 0 -130.5 55.5t-50.5 144.5v249h-70v56h146v-295q0 -67 38 -108t99 -41q69 0 114.5 54.5t47.5 135.5v198h-70v56h146v-444h70v-56h-63q-9 -11 -23 -29.5t-37 -61.5t-23 -70q0 -21 11 -33t32 -12q34 0 59 25l30 -31
q-38 -41 -90 -41q-39 0 -64 23t-25 59q0 38 18.5 80.5t37.5 66.5z" />
    <glyph glyph-name="Wcircumflex" unicode="&#x174;" horiz-adv-x="1173" 
d="M951 644v56h232v-56h-78l-226 -644h-87l-205 596l-206 -596h-88l-226 644h-77v56h233v-56h-78l190 -540l208 596h87l207 -596l190 540h-76zM427 837l160 113l160 -113l-39 -39l-121 87l-121 -87z" />
    <glyph glyph-name="wcircumflex" unicode="&#x175;" horiz-adv-x="881" 
d="M674 444v56h217v-56h-72l-163 -444h-71l-144 396l-144 -396h-72l-163 444h-72v56h218v-56h-72l127 -345l143 401h70l142 -401l127 345h-71zM281 637l160 113l160 -113l-39 -39l-121 87l-121 -87z" />
    <glyph glyph-name="Ycircumflex" unicode="&#x176;" horiz-adv-x="706" 
d="M482 644v56h233v-56h-77l-245 -382v-206h75v-56h-231v56h75v206l-246 382h-76v56h233v-56h-72l201 -309l202 309h-72zM193 837l160 113l160 -113l-39 -39l-121 87l-121 -87z" />
    <glyph glyph-name="ycircumflex" unicode="&#x177;" horiz-adv-x="600" 
d="M394 444v56h216v-56h-71l-247 -541q-60 -133 -151 -133q-71 0 -113 43l40 40q21 -22 67 -22q30 0 51.5 25t43.5 73l32 72l-202 443h-70v56h217v-56h-72l164 -359l165 359h-70zM140 637l160 113l160 -113l-39 -39l-121 87l-121 -87z" />
    <glyph glyph-name="Ydieresis" unicode="&#x178;" horiz-adv-x="706" 
d="M482 644v56h233v-56h-77l-245 -382v-206h75v-56h-231v56h75v206l-246 382h-76v56h233v-56h-72l201 -309l202 309h-72zM200 807v93h76v-93h-76zM430 807v93h76v-93h-76z" />
    <glyph glyph-name="Zacute" unicode="&#x179;" horiz-adv-x="731" 
d="M666 0h-602v42q81 99 241.5 296.5t240.5 295.5h-405v-73h-68v139h587v-43q-80 -98 -240.5 -296t-241.5 -296h420v73h68v-138zM415 950l46 -47l-161 -131l-31 32z" />
    <glyph glyph-name="zacute" unicode="&#x17a;" horiz-adv-x="565" 
d="M135 369h-66v131h426v-41q-49 -59 -104.5 -125.5t-123.5 -148t-105 -125.5h272v70h65v-130h-435v40q110 133 328 399h-257v-70zM332 750l46 -47l-161 -131l-31 32z" />
    <glyph glyph-name="Zdotaccent" unicode="&#x17b;" horiz-adv-x="731" 
d="M666 0h-602v42q81 99 241.5 296.5t240.5 295.5h-405v-73h-68v139h587v-43q-80 -98 -240.5 -296t-241.5 -296h420v73h68v-138zM328 807v93h76v-93h-76z" />
    <glyph glyph-name="zdotaccent" unicode="&#x17c;" horiz-adv-x="565" 
d="M135 369h-66v131h426v-41q-49 -59 -104.5 -125.5t-123.5 -148t-105 -125.5h272v70h65v-130h-435v40q110 133 328 399h-257v-70zM244 607v93h76v-93h-76z" />
    <glyph glyph-name="Zcaron" unicode="&#x17d;" horiz-adv-x="731" 
d="M666 0h-602v42q81 99 241.5 296.5t240.5 295.5h-405v-73h-68v139h587v-43q-80 -98 -240.5 -296t-241.5 -296h420v73h68v-138zM525 912l-159 -115l-160 114l39 39l121 -87l121 87z" />
    <glyph glyph-name="zcaron" unicode="&#x17e;" horiz-adv-x="565" 
d="M135 369h-66v131h426v-41q-49 -59 -104.5 -125.5t-123.5 -148t-105 -125.5h272v70h65v-130h-435v40q110 133 328 399h-257v-70zM441 712l-159 -115l-160 114l39 39l121 -87l121 87z" />
    <glyph glyph-name="longs" unicode="&#x17f;" horiz-adv-x="351" 
d="M30 444v56h70v57q0 77 49 125t127 48q83 0 131 -53l-40 -40q-34 32 -85 32q-46 0 -76 -29.5t-30 -75.5v-508h70v-56h-216v56h70v388h-70z" />
    <glyph glyph-name="uni018F" unicode="&#x18f;" horiz-adv-x="764" 
d="M150 508h-68v130q100 67 267 67q162 0 263.5 -98.5t101.5 -256.5t-92.5 -256.5t-240.5 -98.5q-147 0 -239.5 98.5t-92.5 256.5v26h582q-8 117 -85 190t-195 73q-122 0 -201 -44v-87zM631 315h-499q9 -114 77.5 -184.5t171.5 -70.5q104 0 172 70t78 185z" />
    <glyph glyph-name="florin" unicode="&#x192;" horiz-adv-x="499" 
d="M87 439v61h75v57q0 77 49 125t128 48q82 0 130 -53l-40 -40q-34 32 -84 32q-47 0 -77 -29.5t-30 -75.5v-64h190v-61h-190v-499q0 -76 -46 -123t-120 -47q-75 0 -122 49l41 40q26 -28 76 -28q42 0 68.5 30t26.5 77v501h-75z" />
    <glyph glyph-name="uni01DD" unicode="&#x1dd;" horiz-adv-x="568" 
d="M126 359h-66v98q74 48 201 48q115 0 187 -71t72 -184q0 -114 -66 -184.5t-171 -70.5t-170.5 70.5t-65.5 183.5v21h397q-4 77 -54.5 125.5t-128.5 48.5q-82 0 -135 -29v-56zM443 217h-320q2 -72 46.5 -117t111.5 -45q66 0 110.5 44.5t51.5 117.5z" />
    <glyph glyph-name="AEacute" unicode="&#x1fc;" horiz-adv-x="905" 
d="M402 0v194h-191q-5 -11 -29 -61.5t-37 -77.5h76v-55h-231v55h75q46 98 137.5 294.5t137.5 294.5h-76v56h563v-139h-68v73h-276v-244h311v-66h-311v-259h284v73h68v-138h-433zM241 260h161v344q-26 -57 -80 -172t-81 -172zM551 950l46 -47l-161 -131l-31 32z" />
    <glyph glyph-name="aeacute" unicode="&#x1fd;" horiz-adv-x="920" 
d="M140 362h-66v97q71 46 188 46q63 0 110.5 -30t71.5 -81q28 52 78 81.5t114 29.5q105 0 170.5 -71t65.5 -184v-21h-397q5 -77 56.5 -125.5t130.5 -48.5q92 0 142 55l43 -43q-72 -72 -189 -72q-76 0 -133.5 33.5t-86.5 92.5q-57 -124 -210 -124q-78 0 -127 38.5t-49 101.5
q0 72 65 116t169 44q60 0 113 -11v14q0 65 -37 104.5t-96 39.5q-78 0 -126 -22v-60zM476 282h320q-2 72 -46.5 117t-111.5 45q-66 0 -110.5 -44.5t-51.5 -117.5zM399 234q-44 16 -108 16q-73 0 -118 -30t-45 -77q0 -39 33 -63.5t84 -24.5q66 0 109 51t45 128zM512 750
l46 -47l-161 -131l-31 32z" />
    <glyph glyph-name="Oslashacute" unicode="&#x1fe;" horiz-adv-x="804" 
d="M210 -50h-77l60 106q-68 46 -105.5 122t-37.5 172q0 158 97.5 256.5t254.5 98.5q82 0 149 -30l43 75h77l-61 -106q68 -46 106.5 -122.5t38.5 -171.5q0 -157 -98.5 -256t-254.5 -99q-83 0 -149 30zM673 350q0 151 -101 228l-284 -493q49 -24 114 -24q120 0 195.5 80.5
t75.5 208.5zM131 350q0 -149 101 -228l284 492q-52 25 -114 25q-119 0 -195 -81t-76 -208zM451 950l46 -47l-161 -131l-31 32z" />
    <glyph glyph-name="oslashacute" unicode="&#x1ff;" 
d="M163 -50h-67l52 91q-101 71 -101 209q0 113 71 184t184 71q54 0 103 -19l37 64h67l-53 -91q101 -69 101 -209q0 -113 -71 -184t-184 -71q-58 0 -102 19zM481 250q0 94 -62 145l-187 -325q28 -14 70 -14q80 0 129.5 54t49.5 140zM123 250q0 -95 61 -145l189 325
q-33 14 -71 14q-79 0 -129 -54t-50 -140zM351 750l46 -47l-161 -131l-31 32z" />
    <glyph glyph-name="Scommaaccent" unicode="&#x218;" horiz-adv-x="555" 
d="M484 508h-68v94q-60 37 -146 37q-62 0 -98.5 -33.5t-36.5 -86.5q0 -45 38 -75t92 -49t108 -39.5t92 -58.5t38 -94q0 -93 -66 -150.5t-166 -57.5q-132 0 -224 64v130h69v-92q62 -36 154 -36q67 0 109.5 38.5t42.5 99.5q0 41 -38 69t-92 46t-108 39t-92 62t-38 102
q0 84 59 136t150 52q129 0 221 -66v-131zM232 -286l-27 27q54 54 54 179h60q0 -119 -87 -206z" />
    <glyph glyph-name="scommaaccent" unicode="&#x219;" horiz-adv-x="447" 
d="M377 365h-66v58q-34 21 -90 21q-40 0 -64.5 -21t-24.5 -54q0 -29 27 -49.5t66 -34t77.5 -29t65.5 -44t27 -69.5q0 -65 -51.5 -106.5t-125.5 -41.5q-98 0 -166 49v94h66v-58q38 -24 99 -24q44 0 73 24t29 61q0 28 -27 47t-66 31.5t-77.5 28t-65.5 45.5t-27 73
q0 61 46.5 100.5t114.5 39.5q97 0 160 -46v-95zM184 -286l-27 27q54 54 54 179h60q0 -119 -87 -206z" />
    <glyph glyph-name="dotlessj" unicode="&#x237;" horiz-adv-x="254" 
d="M30 444v56h146v-560q0 -76 -46.5 -123t-120.5 -47t-121 49l40 40q28 -28 76 -28q42 0 69 30t27 77v506h-70z" />
    <glyph glyph-name="circumflex" unicode="&#x2c6;" horiz-adv-x="427" 
d="M58 637l160 113l160 -113l-39 -39l-121 87l-121 -87z" />
    <glyph glyph-name="caron" unicode="&#x2c7;" horiz-adv-x="427" 
d="M377 712l-159 -115l-160 114l39 39l121 -87l121 87z" />
    <glyph glyph-name="breve" unicode="&#x2d8;" horiz-adv-x="452" 
d="M55 684l38 39q53 -53 133 -53q81 0 132 53l38 -39q-68 -71 -170 -71t-171 71z" />
    <glyph glyph-name="dotaccent" unicode="&#x2d9;" horiz-adv-x="238" 
d="M81 607v93h76v-93h-76z" />
    <glyph glyph-name="ring" unicode="&#x2da;" horiz-adv-x="289" 
d="M69 672q0 36 21.5 58t56.5 22t56.5 -22t21.5 -58q0 -35 -21.5 -57t-56.5 -22t-56.5 22t-21.5 57zM101 672q0 -20 13 -33t33 -13t32.5 13t12.5 33q0 21 -12.5 34t-32.5 13t-33 -13t-13 -34z" />
    <glyph glyph-name="ogonek" unicode="&#x2db;" horiz-adv-x="303" 
d="M169 0h55q-9 -11 -23 -29.5t-37 -61.5t-23 -70q0 -21 11 -33t32 -12q34 0 59 25l30 -31q-38 -41 -90 -41q-39 0 -64 23t-25 59q0 38 19 80.5t37 66.5z" />
    <glyph glyph-name="tilde" unicode="&#x2dc;" horiz-adv-x="471" 
d="M88 626l-10.5 10.5l-12 12l-10.5 10.5q55 55 112 55q28 0 76.5 -18.5t71.5 -18.5q37 0 69 31q23 -22 34 -33q-54 -55 -110 -55q-28 0 -76.5 19t-71.5 19q-37 0 -72 -32z" />
    <glyph glyph-name="hungarumlaut" unicode="&#x2dd;" horiz-adv-x="553" 
d="M239 750l46 -47l-161 -131l-31 32zM469 750l46 -47l-161 -131l-31 32z" />
    <glyph glyph-name="tonos" unicode="&#x384;" horiz-adv-x="323" 
d="M189 756l47 -47l-102 -132l-31 31z" />
    <glyph glyph-name="dieresistonos" unicode="&#x385;" horiz-adv-x="508" 
d="M58 607v93h76v-93h-76zM366 607v93h76v-93h-76zM288 821l47 -46l-102 -133l-31 31z" />
    <glyph glyph-name="Alphatonos" unicode="&#x386;" horiz-adv-x="815" 
d="M-10 0v56h75l302 644h82l300 -644h76v-56h-232v56h75l-66 143h-388l-68 -143h75v-56h-231zM408 616l-164 -351h328zM215 708l47 -47l-102 -132l-31 31z" />
    <glyph glyph-name="Epsilontonos" unicode="&#x388;" horiz-adv-x="833" 
d="M134 703l47 -47l-102 -132l-31 31zM764 0h-548v55h75v589h-75v56h541v-139h-69v73h-316v-244h334v-66h-334v-259h324v73h68v-138z" />
    <glyph glyph-name="Etatonos" unicode="&#x389;" horiz-adv-x="975" 
d="M133 708l47 -47l-102 -133l-31 32zM715 644v56h230v-56h-74v-588h74v-56h-230v56h74v268h-415v-268h74v-56h-230v56h74v588h-74v56h230v-56h-74v-254h415v254h-74z" />
    <glyph glyph-name="Iotatonos" unicode="&#x38a;" horiz-adv-x="478" 
d="M133 708l47 -47l-102 -133l-31 32zM218 644v56h230v-56h-74v-588h74v-56h-230v56h74v588h-74z" />
    <glyph glyph-name="Omicrontonos" unicode="&#x38c;" horiz-adv-x="899" 
d="M140 708l47 -47l-102 -132l-31 31zM144 350q0 158 97.5 256.5t254.5 98.5q156 0 254.5 -99t98.5 -256t-98.5 -256t-254.5 -99q-157 0 -254.5 98.5t-97.5 256.5zM225 350q0 -127 76 -208t195 -81q120 0 195.5 80.5t75.5 208.5t-75.5 208.5t-195.5 80.5q-119 0 -195 -81
t-76 -208z" />
    <glyph glyph-name="Upsilontonos" unicode="&#x38e;" horiz-adv-x="945" 
d="M134 708l47 -47l-102 -132l-31 31zM717 644v56h238v-56h-82l-245 -382v-206h75v-56h-231v56h75v206l-246 382h-81v56h238v-56h-72l201 -309l202 309h-72z" />
    <glyph glyph-name="Omegatonos" unicode="&#x38f;" horiz-adv-x="901" 
d="M136 708l47 -47l-102 -133l-32 32zM574 0v66q90 24 143 100.5t53 183.5q0 128 -75.5 208.5t-196.5 80.5q-119 0 -195 -81t-76 -208q0 -107 53.5 -183.5t143.5 -100.5v-66h-278v66h141q-66 43 -103.5 116.5t-37.5 167.5q0 157 98 256t254 99q157 0 255 -98.5t98 -256.5
q0 -94 -37.5 -167.5t-104.5 -116.5h142v-66h-277z" />
    <glyph glyph-name="iotadieresistonos" unicode="&#x390;" horiz-adv-x="434" 
d="M114 444v56h146v-388q0 -25 14 -40.5t37 -15.5q25 0 40 15l40 -41q-33 -35 -88 -35q-53 0 -86 33.5t-33 88.5v327h-70zM30 607v93h76v-93h-76zM338 607v93h76v-93h-76zM260 821l47 -46l-102 -133l-31 31z" />
    <glyph glyph-name="Alpha" unicode="&#x391;" horiz-adv-x="815" 
d="M-10 0v56h75l302 644h82l300 -644h76v-56h-232v56h75l-66 143h-388l-68 -143h75v-56h-231zM408 616l-164 -351h328z" />
    <glyph glyph-name="Beta" unicode="&#x392;" horiz-adv-x="635" 
d="M30 644v56h335q79 0 129 -48.5t50 -125.5q0 -53 -24.5 -94t-65.5 -62q58 -16 93.5 -64.5t35.5 -115.5q0 -84 -54 -137t-141 -53h-358v56h75v588h-75zM186 66h177q60 0 97.5 37t37.5 96t-37.5 96t-97.5 37h-177v-266zM342 634h-156v-236h156q54 0 87.5 33t33.5 85
t-33.5 85t-87.5 33z" />
    <glyph glyph-name="Gamma" unicode="&#x393;" horiz-adv-x="622" 
d="M562 562h-68v72h-308v-578h74v-56h-230v56h75v588h-75v56h532v-138z" />
    <glyph glyph-name="uni0394" unicode="&#x394;" horiz-adv-x="864" 
d="M800 0h-735l327 700h82zM433 613l-252 -547h502z" />
    <glyph glyph-name="Epsilon" unicode="&#x395;" horiz-adv-x="633" 
d="M577 0h-548v55h75v589h-75v56h541v-139h-69v73h-316v-244h334v-66h-334v-259h324v73h68v-138z" />
    <glyph glyph-name="Zeta" unicode="&#x396;" horiz-adv-x="731" 
d="M666 0h-602v42q81 99 241.5 296.5t240.5 295.5h-405v-73h-68v139h587v-43q-80 -98 -240.5 -296t-241.5 -296h420v73h68v-138z" />
    <glyph glyph-name="Eta" unicode="&#x397;" horiz-adv-x="787" 
d="M527 644v56h231v-56h-75v-588h75v-56h-231v56h75v268h-416v-268h74v-56h-230v56h75v588h-75v56h230v-56h-74v-254h416v254h-75z" />
    <glyph glyph-name="Theta" unicode="&#x398;" horiz-adv-x="804" 
d="M50 350q0 158 97.5 256.5t254.5 98.5q156 0 254.5 -99t98.5 -256t-98.5 -256t-254.5 -99q-157 0 -254.5 98.5t-97.5 256.5zM131 350q0 -127 76 -208t195 -81q120 0 195.5 80.5t75.5 208.5t-75.5 208.5t-195.5 80.5q-119 0 -195 -81t-76 -208zM196 327v56h412v-56h-412z
" />
    <glyph glyph-name="Iota" unicode="&#x399;" horiz-adv-x="290" 
d="M30 644v56h230v-56h-74v-588h74v-56h-230v56h75v588h-75z" />
    <glyph glyph-name="Kappa" unicode="&#x39a;" horiz-adv-x="697" 
d="M456 0v56h63l-244 286l-89 -90v-196h74v-56h-230v56h75v588h-75v56h230v-56h-74v-288l289 288h-53v56h230v-56h-75l-248 -248l283 -340h78v-56h-234z" />
    <glyph glyph-name="Lambda" unicode="&#x39b;" horiz-adv-x="809" 
d="M-10 0v56h72l302 644h82l300 -644h73v-56h-228v56h67l-253 555l-254 -555h67v-56h-228z" />
    <glyph glyph-name="Mu" unicode="&#x39c;" horiz-adv-x="986" 
d="M726 0v56h74v524l-276 -580h-62l-276 580v-524h74v-56h-230v56h75v588h-75v56h181l282 -591l282 591h181v-56h-74v-588h74v-56h-230z" />
    <glyph glyph-name="Nu" unicode="&#x39d;" horiz-adv-x="810" 
d="M549 644v56h231v-56h-75v-644h-81l-438 577v-521h74v-56h-230v56h75v588h-75v56h156l438 -577v521h-75z" />
    <glyph glyph-name="Xi" unicode="&#x39e;" horiz-adv-x="673" 
d="M69 0v138h69v-73h396v73h68v-138h-533zM145 561h-68v139h518v-139h-69v73h-381v-73zM567 324h-463v66h463v-66z" />
    <glyph glyph-name="Omicron" unicode="&#x39f;" horiz-adv-x="804" 
d="M50 350q0 158 97.5 256.5t254.5 98.5q156 0 254.5 -99t98.5 -256t-98.5 -256t-254.5 -99q-157 0 -254.5 98.5t-97.5 256.5zM131 350q0 -127 76 -208t195 -81q120 0 195.5 80.5t75.5 208.5t-75.5 208.5t-195.5 80.5q-119 0 -195 -81t-76 -208z" />
    <glyph glyph-name="Pi" unicode="&#x3a0;" horiz-adv-x="780" 
d="M30 644v56h720v-56h-75v-588h75v-56h-231v56h75v578h-408v-578h74v-56h-230v56h75v588h-75z" />
    <glyph glyph-name="Rho" unicode="&#x3a1;" horiz-adv-x="617" 
d="M30 644v56h321q96 0 156 -60.5t60 -157.5q0 -96 -60 -157t-156 -61h-165v-208h74v-56h-230v56h75v588h-75zM343 634h-157v-304h157q64 0 103.5 42.5t39.5 109.5t-39.5 109.5t-103.5 42.5z" />
    <glyph glyph-name="Sigma" unicode="&#x3a3;" horiz-adv-x="668" 
d="M598 0h-533v35l264 322l-257 308v35h518v-138h-68v72h-327l230 -277l-241 -291h345v72h69v-138z" />
    <glyph glyph-name="Tau" unicode="&#x3a4;" horiz-adv-x="745" 
d="M257 0v56h75v578h-204v-72h-68v138h626v-138h-69v72h-204v-578h75v-56h-231z" />
    <glyph glyph-name="Upsilon" unicode="&#x3a5;" horiz-adv-x="715" 
d="M487 644v56h238v-56h-82l-245 -382v-206h75v-56h-231v56h75v206l-246 382h-81v56h238v-56h-72l201 -309l202 309h-72z" />
    <glyph glyph-name="Phi" unicode="&#x3a6;" horiz-adv-x="767" 
d="M268 644v56h231v-56h-75v-54q130 -1 211.5 -67.5t81.5 -172.5t-81.5 -173t-211.5 -67v-54h75v-56h-231v56h75v54q-130 0 -211.5 67t-81.5 173t81.5 173t211.5 67v54h-75zM424 524v-348q94 0 153 48t59 125q0 78 -59 126t-153 49zM343 176v348q-93 0 -152.5 -48.5
t-59.5 -125.5t59.5 -125.5t152.5 -48.5z" />
    <glyph glyph-name="Chi" unicode="&#x3a7;" horiz-adv-x="752" 
d="M510 0v56h63l-197 245l-198 -245h65v-56h-235v56h79l241 301l-229 287h-79v56h235v-56h-64l185 -231l185 231h-63v56h235v-56h-80l-228 -287l241 -301h79v-56h-235z" />
    <glyph glyph-name="Psi" unicode="&#x3a8;" horiz-adv-x="774" 
d="M30 644v56h230v-56h-74v-219q0 -75 51 -122t133 -47v444h81v-444q85 0 137.5 47t52.5 122v47q0 142 -66 205l38 38q109 -107 109 -243v-52q0 -102 -75 -166t-196 -64v-134h75v-56h-231v56h75v134q-117 0 -191 64t-74 166v224h-75z" />
    <glyph glyph-name="uni03A9" unicode="&#x3a9;" horiz-adv-x="814" 
d="M482 0v66q90 24 143 100.5t53 183.5q0 128 -75.5 208.5t-195.5 80.5q-119 0 -195 -81t-76 -208q0 -107 53.5 -183.5t142.5 -100.5v-66h-282v66h146q-67 42 -104 116t-37 168q0 158 97.5 256.5t254.5 98.5t255 -98.5t98 -256.5q0 -94 -37.5 -167.5t-104.5 -116.5h147v-66
h-283z" />
    <glyph glyph-name="Iotadieresis" unicode="&#x3aa;" horiz-adv-x="341" 
d="M55 644v56h231v-56h-75v-588h75v-56h-231v56h75v588h-75zM37 775v93h76v-93h-76zM228 775v93h76v-93h-76z" />
    <glyph glyph-name="Upsilondieresis" unicode="&#x3ab;" horiz-adv-x="715" 
d="M487 644v56h238v-56h-82l-245 -382v-206h75v-56h-231v56h75v206l-246 382h-81v56h238v-56h-72l201 -309l202 309h-72zM205 807v93h76v-93h-76zM435 807v93h76v-93h-76z" />
    <glyph glyph-name="alphatonos" unicode="&#x3ac;" horiz-adv-x="610" 
d="M437 0v115q-25 -55 -74.5 -87t-114.5 -32q-89 0 -145 68t-56 176q0 118 78 191.5t202 73.5q109 0 186 -35v-414h69v-56h-145zM437 208v217q-55 19 -125 19q-83 0 -136 -56.5t-53 -147.5q0 -82 44 -132.5t113 -50.5q67 0 111 43.5t46 107.5zM317 756l47 -47l-102 -132
l-31 31z" />
    <glyph glyph-name="epsilontonos" unicode="&#x3ad;" horiz-adv-x="484" 
d="M414 368h-66v58q-44 18 -102 18q-47 0 -77 -23.5t-30 -59.5t27.5 -58.5t72.5 -22.5h89v-55h-102q-44 0 -71 -23.5t-27 -60.5t37.5 -61t97.5 -24q87 0 134 49l35 -35q-73 -75 -188 -75q-86 0 -139 37t-53 96q0 45 28 79.5t75 47.5q-44 14 -68 45t-24 71q0 60 47 97t125 37
q110 0 179 -39v-98zM275 756l47 -47l-102 -132l-31 31z" />
    <glyph glyph-name="etatonos" unicode="&#x3ae;" horiz-adv-x="650" 
d="M404 0v55h70v247q0 64 -38 103t-99 39q-68 0 -114 -55.5t-48 -135.5v-198h70v-55h-216v55h70v389h-70v56h146v-129q27 62 77.5 98t116.5 36q80 0 130.5 -53t50.5 -138v-259h70v-55h-216zM349 756l47 -47l-102 -132l-31 31z" />
    <glyph glyph-name="iotatonos" unicode="&#x3af;" horiz-adv-x="327" 
d="M30 444v56h146v-388q0 -25 14 -40.5t37 -15.5q25 0 40 15l40 -41q-33 -35 -88 -35q-53 0 -86 33.5t-33 88.5v327h-70zM158 756l47 -47l-102 -132l-31 31z" />
    <glyph glyph-name="upsilondieresistonos" unicode="&#x3b0;" horiz-adv-x="614" 
d="M30 500h146v-275q0 -75 43.5 -122t112.5 -47q70 0 113 47t43 122v79q0 121 -43 167l43 44q34 -33 55 -89.5t21 -121.5v-79q0 -102 -64.5 -166t-167.5 -64t-167.5 64t-64.5 166v219h-70v56zM132 607v93h76v-93h-76zM440 607v93h76v-93h-76zM362 821l47 -46l-102 -133
l-31 31z" />
    <glyph glyph-name="alpha" unicode="&#x3b1;" horiz-adv-x="610" 
d="M437 0v115q-25 -55 -74.5 -87t-114.5 -32q-89 0 -145 68t-56 176q0 118 78 191.5t202 73.5q109 0 186 -35v-414h69v-56h-145zM437 208v217q-55 19 -125 19q-83 0 -136 -56.5t-53 -147.5q0 -82 44 -132.5t113 -50.5q67 0 111 43.5t46 107.5z" />
    <glyph glyph-name="beta" unicode="&#x3b2;" horiz-adv-x="568" 
d="M80 548q0 81 57 131.5t148 50.5q92 0 149 -48.5t57 -125.5q0 -57 -32 -99t-88 -61q68 -16 107.5 -69t39.5 -128q0 -90 -64 -146.5t-166 -56.5q-75 0 -132 30v-176h-76v698zM243 365v55h25q65 0 106 35t41 89q0 56 -36 90.5t-94 34.5q-57 0 -93 -37t-36 -96v-453
q50 -26 125 -26q72 0 116.5 42.5t44.5 110.5q0 69 -40 112t-104 43h-55z" />
    <glyph glyph-name="gamma" unicode="&#x3b3;" horiz-adv-x="601" 
d="M394 444v56h217v-56h-71l-202 -444v-225h-76v225l-201 444h-71v56h217v-56h-72l165 -363l165 363h-71z" />
    <glyph glyph-name="delta" unicode="&#x3b4;" 
d="M524 605h-66v59h-245q6 -2 38.5 -20t85.5 -56.5t101 -85.5t83.5 -115t35.5 -137q0 -113 -71 -184t-184 -71t-184 71t-71 184t69.5 184t181.5 71q34 0 60 -10q-49 48 -112.5 90t-102.5 61l-39 18v61h420v-120zM481 250q0 67 -52 147q-48 47 -127 47t-129 -54t-50 -140
t50 -140t129 -54q80 0 129.5 54t49.5 140z" />
    <glyph glyph-name="epsilon" unicode="&#x3b5;" horiz-adv-x="484" 
d="M414 368h-66v58q-44 18 -102 18q-47 0 -77 -23.5t-30 -59.5t27.5 -58.5t72.5 -22.5h89v-55h-102q-44 0 -71 -23.5t-27 -60.5t37.5 -61t97.5 -24q87 0 134 49l35 -35q-73 -75 -188 -75q-86 0 -139 37t-53 96q0 45 28 79.5t75 47.5q-44 14 -68 45t-24 71q0 60 47 97t125 37
q110 0 179 -39v-98z" />
    <glyph glyph-name="zeta" unicode="&#x3b6;" horiz-adv-x="516" 
d="M149 605h-66v120h398v-61q-14 -11 -38 -30t-85.5 -75t-108 -108.5t-85 -120t-38.5 -119.5q0 -154 308 -154v-57q0 -39 -24.5 -83.5t-59.5 -79.5l-29 29q53 53 53 132q-153 9 -238.5 61.5t-85.5 151.5q0 59 34 127.5t83 124t98 102.5t83 73l34 26h-233v-59z" />
    <glyph glyph-name="eta" unicode="&#x3b7;" horiz-adv-x="650" 
d="M404 0v55h70v247q0 64 -38 103t-99 39q-68 0 -114 -55.5t-48 -135.5v-198h70v-55h-216v55h70v389h-70v56h146v-129q27 62 77.5 98t116.5 36q80 0 130.5 -53t50.5 -138v-259h70v-55h-216z" />
    <glyph glyph-name="theta" unicode="&#x3b8;" horiz-adv-x="590" 
d="M50 362q0 163 68 265.5t177 102.5t177 -102.5t68 -265.5t-68 -265t-177 -102t-177 102t-68 265zM295 56q72 0 118 77.5t51 202.5h-338q5 -125 51 -202.5t118 -77.5zM295 669q-71 0 -117.5 -76t-51.5 -199h338q-5 124 -51 199.5t-118 75.5z" />
    <glyph glyph-name="iota" unicode="&#x3b9;" horiz-adv-x="327" 
d="M30 444v56h146v-388q0 -25 14 -40.5t37 -15.5q25 0 40 15l40 -41q-33 -35 -88 -35q-53 0 -86 33.5t-33 88.5v327h-70z" />
    <glyph glyph-name="kappa" unicode="&#x3ba;" horiz-adv-x="572" 
d="M356 0v56h58l-160 175l-78 -69v-106h70v-56h-216v56h70v388h-70v56h146v-246l64 54l134 136h-52v56h213v-56h-67l-166 -166l200 -222h62v-56h-208z" />
    <glyph glyph-name="lambda" unicode="&#x3bb;" horiz-adv-x="611" 
d="M-10 0v56h71l220 443l-53 124q-18 46 -71 46q-39 0 -62 -23l-41 41q41 43 106 43q95 0 129 -80l261 -594h71v-56h-217v56h71l-158 359l-180 -359h70v-56h-217z" />
    <glyph glyph-name="uni03BC" unicode="&#x3bc;" horiz-adv-x="652" 
d="M31 444v56h146v-295q0 -67 38.5 -108t98.5 -41q70 0 115 56.5t47 139.5v192h-70v56h146v-444h70v-56h-146v133q-26 -64 -77 -101t-117 -37q-70 0 -106 54v-218h71v-56h-217v56h71v613h-70z" />
    <glyph glyph-name="nu" unicode="&#x3bd;" horiz-adv-x="601" 
d="M-10 444v56h217v-56h-72l165 -363l165 363h-70v56h216v-56h-71l-201 -444h-77l-201 444h-71z" />
    <glyph glyph-name="xi" unicode="&#x3be;" horiz-adv-x="482" 
d="M275 669q-55 0 -90 -34.5t-35 -90.5q0 -54 41 -89t106 -35h88v-55h-118q-64 0 -104 -43t-40 -112q0 -78 82.5 -115.5t226.5 -37.5v-57q0 -39 -24.5 -83t-59.5 -80l-30 29q52 52 54 132q-152 8 -238.5 58t-86.5 143q0 75 40 128t107 69q-56 19 -88 61t-32 99
q0 77 55.5 125.5t144.5 48.5q101 0 174 -68l-43 -42q-51 49 -130 49z" />
    <glyph glyph-name="omicron" unicode="&#x3bf;" 
d="M47 250q0 113 71 184t184 71t184 -71t71 -184t-71 -184t-184 -71t-184 71t-71 184zM123 250q0 -86 50 -140t129 -54q80 0 129.5 54t49.5 140t-49.5 140t-129.5 54q-79 0 -129 -54t-50 -140z" />
    <glyph glyph-name="pi" unicode="&#x3c0;" horiz-adv-x="638" 
d="M391 0v55h70v384h-286v-384h70v-55h-216v55h70v389h-70v56h578v-56h-70v-389h70v-55h-216z" />
    <glyph glyph-name="rho" unicode="&#x3c1;" horiz-adv-x="610" 
d="M80 -225v495q0 105 67.5 170t176.5 65q106 0 172.5 -71t66.5 -184t-71.5 -183.5t-185.5 -70.5q-87 0 -150 39v-260h-76zM156 270v-179q60 -34 144 -34q83 0 135 54t52 139q0 86 -45 140t-118 54q-74 0 -121 -48.5t-47 -125.5z" />
    <glyph glyph-name="uni03C2" unicode="&#x3c2;" horiz-adv-x="535" 
d="M482 356h-66v65q-43 23 -110 23q-81 0 -132 -54t-51 -140q0 -99 82.5 -146t226.5 -47v-57q0 -39 -24.5 -83t-59.5 -80l-30 29q52 52 54 132q-152 9 -238.5 72t-86.5 180q0 113 71 184t184 71q110 0 180 -48v-101z" />
    <glyph glyph-name="sigma" unicode="&#x3c3;" horiz-adv-x="645" 
d="M47 250q0 111 71 180.5t184 69.5h290v-61h-128q93 -64 93 -189q0 -113 -71 -184t-184 -71t-184 71t-71 184zM123 250q0 -86 50 -140t129 -54q80 0 129.5 54t49.5 140q0 84 -49.5 136.5t-129.5 52.5q-79 0 -129 -53t-50 -136z" />
    <glyph glyph-name="tau" unicode="&#x3c4;" horiz-adv-x="590" 
d="M530 369h-66v70h-131v-327q0 -25 14 -40.5t37 -15.5q25 0 40 15l40 -41q-33 -35 -88 -35q-53 0 -86 33.5t-33 88.5v322h-131v-70h-66v131h470v-131z" />
    <glyph glyph-name="upsilon" unicode="&#x3c5;" horiz-adv-x="614" 
d="M30 500h146v-275q0 -75 43.5 -122t112.5 -47q70 0 113 47t43 122v79q0 121 -43 167l43 44q34 -33 55 -89.5t21 -121.5v-79q0 -102 -64.5 -166t-167.5 -64t-167.5 64t-64.5 166v219h-70v56z" />
    <glyph glyph-name="phi" unicode="&#x3c6;" horiz-adv-x="696" 
d="M125 250q0 -85 51 -137.5t134 -52.5v441h76q116 0 189 -69.5t73 -181.5t-73 -181.5t-189 -69.5v-224h-76v224q-117 0 -190 69.5t-73 181.5q0 143 117 233l50 -50q-89 -67 -89 -183zM386 440v-380q82 0 133.5 52.5t51.5 137.5q0 84 -51.5 137t-133.5 53z" />
    <glyph glyph-name="chi" unicode="&#x3c7;" horiz-adv-x="578" 
d="M360 0v55h59q-23 29 -67.5 84t-63.5 79q-25 -33 -74 -93.5t-56 -69.5h60v-55h-211v55h64q28 34 82 101t81 100q-51 62 -153 188h-64v56h210v-56h-60q20 -26 60.5 -75.5t60.5 -75.5q105 131 121 151h-59v56h211v-56h-66q-73 -91 -152 -188q28 -34 81.5 -101t81.5 -100h64
v-55h-210z" />
    <glyph glyph-name="psi" unicode="&#x3c8;" horiz-adv-x="695" 
d="M263 559v56h145v-559q72 0 116.5 47t44.5 122v82q0 110 -52 164l43 44q39 -36 62 -91.5t23 -116.5v-82q0 -102 -65.5 -166t-171.5 -64v-164h70v-56h-215v56h69v164q-103 0 -167.5 64t-64.5 166v219h-70v56h146v-275q0 -75 43.5 -122t112.5 -47v503h-69z" />
    <glyph glyph-name="omega" unicode="&#x3c9;" horiz-adv-x="741" 
d="M126 306v-138q0 -50 29 -81t75 -31q45 0 73.5 31.5t28.5 80.5v245h76v-245q1 -50 29.5 -81t74.5 -31t74.5 31t28.5 81v139q0 110 -52 164l43 44q38 -37 61.5 -92t23.5 -116v-139q0 -77 -49 -125t-127 -48q-100 0 -145 75q-45 -75 -144 -75q-78 0 -127 48t-49 125v138
q0 62 23.5 117.5t61.5 90.5l43 -43q-52 -55 -52 -165z" />
    <glyph glyph-name="iotadieresis" unicode="&#x3ca;" horiz-adv-x="375" 
d="M74 444v56h146v-388q0 -25 14 -40.5t37 -15.5q25 0 40 15l40 -41q-33 -35 -88 -35q-53 0 -86 33.5t-33 88.5v327h-70zM31 607v93h76v-93h-76zM261 607v93h76v-93h-76z" />
    <glyph glyph-name="upsilondieresis" unicode="&#x3cb;" horiz-adv-x="614" 
d="M30 500h146v-275q0 -75 43.5 -122t112.5 -47q70 0 113 47t43 122v79q0 121 -43 167l43 44q34 -33 55 -89.5t21 -121.5v-79q0 -102 -64.5 -166t-167.5 -64t-167.5 64t-64.5 166v219h-70v56zM175 607v93h76v-93h-76zM405 607v93h76v-93h-76z" />
    <glyph glyph-name="omicrontonos" unicode="&#x3cc;" 
d="M47 250q0 113 71 184t184 71t184 -71t71 -184t-71 -184t-184 -71t-184 71t-71 184zM123 250q0 -86 50 -140t129 -54q80 0 129.5 54t49.5 140t-49.5 140t-129.5 54q-79 0 -129 -54t-50 -140zM326 756l47 -47l-102 -132l-31 31z" />
    <glyph glyph-name="upsilontonos" unicode="&#x3cd;" horiz-adv-x="614" 
d="M30 500h146v-275q0 -75 43.5 -122t112.5 -47q70 0 113 47t43 122v79q0 121 -43 167l43 44q34 -33 55 -89.5t21 -121.5v-79q0 -102 -64.5 -166t-167.5 -64t-167.5 64t-64.5 166v219h-70v56zM352 756l47 -47l-102 -132l-31 31z" />
    <glyph glyph-name="omegatonos" unicode="&#x3ce;" horiz-adv-x="741" 
d="M126 306v-138q0 -50 29 -81t75 -31q45 0 73.5 31.5t28.5 80.5v245h76v-245q1 -50 29.5 -81t74.5 -31t74.5 31t28.5 81v139q0 110 -52 164l43 44q38 -37 61.5 -92t23.5 -116v-139q0 -77 -49 -125t-127 -48q-100 0 -145 75q-45 -75 -144 -75q-78 0 -127 48t-49 125v138
q0 62 23.5 117.5t61.5 90.5l43 -43q-52 -55 -52 -165zM395 756l47 -47l-102 -132l-31 31z" />
    <glyph glyph-name="uni0400" unicode="&#x400;" horiz-adv-x="647" 
d="M577 0h-548v55h75v589h-75v56h541v-139h-69v73h-316v-244h334v-66h-334v-259h324v73h68v-138zM240 903l47 47q25 -25 73.5 -74t72.5 -73q-15 -16 -31 -31q-27 22 -81 65.5t-81 65.5z" />
    <glyph glyph-name="afii10023" unicode="&#x401;" horiz-adv-x="645" 
d="M575 0h-548v55h75v589h-75v56h540v-139h-68v73h-316v-244h333v-66h-333v-259h323v73h69v-138zM177 807v93h76v-93h-76zM407 807v93h76v-93h-76z" />
    <glyph glyph-name="afii10051" unicode="&#x402;" horiz-adv-x="870" 
d="M255 0v56h75v578h-204v-72h-69v138h626v-138h-68v72h-204v-320q25 64 76.5 101.5t117.5 37.5q82 0 133.5 -53t51.5 -138v-322q0 -76 -46 -123t-120 -47q-75 0 -122 49l41 39q27 -27 73 -27q41 0 67 28.5t26 74.5v316q0 61 -38 99t-99 38q-69 0 -114 -54t-47 -133v-144h75
v-56h-231z" />
    <glyph glyph-name="afii10052" unicode="&#x403;" horiz-adv-x="622" 
d="M562 562h-68v72h-308v-578h74v-56h-230v56h75v588h-75v56h532v-138zM374 950l46 -47l-161 -131l-31 32z" />
    <glyph glyph-name="afii10053" unicode="&#x404;" horiz-adv-x="716" 
d="M658 508h-68v90q-73 41 -182 41q-113 0 -188 -68.5t-87 -180.5h442v-66h-443q8 -118 83.5 -190.5t192.5 -72.5q135 0 207 83l48 -48q-99 -101 -259 -101q-158 0 -256 98.5t-98 256.5q0 157 98.5 256t255.5 99q155 0 254 -66v-131z" />
    <glyph glyph-name="afii10054" unicode="&#x405;" horiz-adv-x="555" 
d="M484 508h-68v94q-60 37 -146 37q-62 0 -98.5 -33.5t-36.5 -86.5q0 -45 38 -75t92 -49t108 -39.5t92 -58.5t38 -94q0 -93 -66 -150.5t-166 -57.5q-132 0 -224 64v130h69v-92q62 -36 154 -36q67 0 109.5 38.5t42.5 99.5q0 41 -38 69t-92 46t-108 39t-92 62t-38 102
q0 84 59 136t150 52q129 0 221 -66v-131z" />
    <glyph glyph-name="afii10055" unicode="&#x406;" horiz-adv-x="290" 
d="M30 644v56h230v-56h-74v-588h74v-56h-230v56h75v588h-75z" />
    <glyph glyph-name="afii10056" unicode="&#x407;" horiz-adv-x="341" 
d="M55 644v56h231v-56h-75v-588h75v-56h-231v56h75v588h-75zM37 775v93h76v-93h-76zM228 775v93h76v-93h-76z" />
    <glyph glyph-name="afii10057" unicode="&#x408;" horiz-adv-x="608" 
d="M347 644v56h231v-56h-75v-394q0 -113 -71.5 -184t-185.5 -71t-189 50v130h68v-90q45 -24 116 -24q80 0 130.5 52.5t50.5 136.5v394h-75z" />
    <glyph glyph-name="afii10058" unicode="&#x409;" horiz-adv-x="1173" 
d="M175 644v56h626v-56h-74v-214h185q94 0 153.5 -60t59.5 -155t-59.5 -155t-153.5 -60h-341v56h75v578h-315q0 -148 -4.5 -248.5t-15.5 -179.5t-31.5 -123t-50 -66t-72.5 -22q-60 0 -107 43l45 46q27 -23 58 -23q53 0 74 127.5t22 455.5h-74zM727 66h176q63 0 102 41.5
t39 107.5t-39 107.5t-102 41.5h-176v-298z" />
    <glyph glyph-name="afii10059" unicode="&#x40a;" horiz-adv-x="1139" 
d="M537 644v56h231v-56h-75v-214h185q95 0 154.5 -60t59.5 -155t-59.5 -155t-154.5 -60h-341v56h75v268h-426v-268h74v-56h-230v56h75v588h-75v56h230v-56h-74v-254h426v254h-75zM693 66h177q62 0 101 42t39 107q0 66 -39 107.5t-101 41.5h-177v-298z" />
    <glyph glyph-name="afii10060" unicode="&#x40b;" horiz-adv-x="895" 
d="M637 0v56h75v194q0 61 -38 99t-99 38q-69 0 -114.5 -53.5t-47.5 -132.5v-145h75v-56h-231v56h75v578h-204v-72h-68v138h626v-138h-69v72h-204v-316q27 62 78 98.5t116 36.5q83 0 134.5 -53t51.5 -138v-206h75v-56h-231z" />
    <glyph glyph-name="afii10061" unicode="&#x40c;" horiz-adv-x="697" 
d="M456 0v56h63l-244 286l-89 -90v-196h74v-56h-230v56h75v588h-75v56h230v-56h-74v-288l289 288h-53v56h230v-56h-75l-248 -248l283 -340h78v-56h-234zM411 950l46 -47l-161 -131l-31 32z" />
    <glyph glyph-name="uni040D" unicode="&#x40d;" horiz-adv-x="810" 
d="M549 0v56h75v521l-438 -577h-156v56h75v588h-75v56h230v-56h-74v-521l438 577h156v-56h-75v-588h75v-56h-231zM308 903l46 47l147 -146l-32 -32z" />
    <glyph glyph-name="afii10062" unicode="&#x40e;" horiz-adv-x="725" 
d="M503 644v56h232v-56h-77l-323 -555q-53 -94 -164 -94q-86 0 -142 54l46 45q30 -33 91 -33q66 0 102 60l54 92l-251 431h-76v56h232v-56h-71l209 -356l208 356h-70zM193 884l38 39q53 -53 133 -53q81 0 132 53l38 -39q-68 -71 -170 -71t-171 71z" />
    <glyph glyph-name="afii10145" unicode="&#x40f;" horiz-adv-x="797" 
d="M439 0v-175h-81v175h-328v56h75v588h-75v56h230v-56h-74v-578h425v578h-74v56h230v-56h-74v-588h74v-56h-328z" />
    <glyph glyph-name="afii10017" unicode="&#x410;" horiz-adv-x="815" 
d="M593 0v56h75l-66 143h-388l-68 -143h75v-56h-231v56h75l276 588h-82v56h190l300 -644h76v-56h-232zM408 616l-164 -351h328z" />
    <glyph glyph-name="afii10018" unicode="&#x411;" horiz-adv-x="636" 
d="M542 562h-69v72h-287v-229h199q88 0 143.5 -56.5t55.5 -145.5q0 -90 -55.5 -146.5t-143.5 -56.5h-355v56h75v588h-75v56h512v-138zM186 66h192q56 0 91 38.5t35 98.5t-35 98.5t-91 38.5h-192v-274z" />
    <glyph glyph-name="afii10019" unicode="&#x412;" horiz-adv-x="635" 
d="M30 644v56h335q79 0 129 -48.5t50 -125.5q0 -53 -24.5 -94t-65.5 -62q58 -16 93.5 -64.5t35.5 -115.5q0 -84 -54 -137t-141 -53h-358v56h75v588h-75zM186 66h177q60 0 97.5 37t37.5 96t-37.5 96t-97.5 37h-177v-266zM342 634h-156v-236h156q54 0 87.5 33t33.5 85
t-33.5 85t-87.5 33z" />
    <glyph glyph-name="afii10020" unicode="&#x413;" horiz-adv-x="622" 
d="M562 562h-68v72h-308v-578h74v-56h-230v56h75v588h-75v56h532v-138z" />
    <glyph glyph-name="afii10021" unicode="&#x414;" horiz-adv-x="868" 
d="M156 644v56h624v-56h-74v-578h102v-241h-81v175h-586v-175h-81v241h93q42 19 59.5 149.5t18.5 428.5h-75zM242 66h383v568h-313q0 -248 -15 -381t-55 -187z" />
    <glyph glyph-name="afii10022" unicode="&#x415;" horiz-adv-x="645" 
d="M575 0h-548v55h75v589h-75v56h540v-139h-68v73h-316v-244h333v-66h-333v-259h323v73h69v-138z" />
    <glyph glyph-name="afii10024" unicode="&#x416;" horiz-adv-x="1033" 
d="M797 0v56h62l-218 281l-83 -85v-196h74v-56h-230v56h74v196l-83 85l-219 -281h63v-56h-229v56h73l258 336l-227 252h-74v56h230v-56h-58l266 -293v293h-74v56h230v-56h-74v-293l266 293h-58v56h229v-56h-73l-227 -252l257 -336h74v-56h-229z" />
    <glyph glyph-name="afii10025" unicode="&#x417;" horiz-adv-x="595" 
d="M146 511h-68v128q83 66 216 66q93 0 151.5 -50.5t58.5 -130.5q0 -53 -24.5 -94.5t-65.5 -62.5q58 -16 93 -64t35 -115q0 -86 -67.5 -139.5t-175.5 -53.5q-149 0 -247 101l43 43q73 -78 203 -78q72 0 116 38.5t44 98.5q0 58 -37.5 94.5t-98.5 36.5h-135v66h115
q54 0 87.5 33.5t33.5 85.5q0 55 -38 90t-99 35q-81 0 -140 -36v-92z" />
    <glyph glyph-name="afii10026" unicode="&#x418;" horiz-adv-x="810" 
d="M549 0v56h75v521l-438 -577h-156v56h75v588h-75v56h230v-56h-74v-521l438 577h156v-56h-75v-588h75v-56h-231z" />
    <glyph glyph-name="afii10027" unicode="&#x419;" horiz-adv-x="810" 
d="M549 0v56h75v521l-438 -577h-156v56h75v588h-75v56h230v-56h-74v-521l438 577h156v-56h-75v-588h75v-56h-231zM224 848l39 38q53 -53 142 -53t142 53l38 -38q-68 -71 -180 -71q-113 0 -181 71z" />
    <glyph glyph-name="afii10028" unicode="&#x41a;" horiz-adv-x="697" 
d="M456 0v56h63l-244 286l-89 -90v-196h74v-56h-230v56h75v588h-75v56h230v-56h-74v-288l289 288h-53v56h230v-56h-75l-248 -248l283 -340h78v-56h-234z" />
    <glyph glyph-name="afii10029" unicode="&#x41b;" horiz-adv-x="826" 
d="M566 0v56h75v578h-310q0 -148 -4.5 -248.5t-15.5 -179.5t-31.5 -123t-50 -66t-72.5 -22q-60 0 -107 43l45 46q27 -23 58 -23q53 0 74 127.5t22 455.5h-74v56h622v-56h-75v-588h75v-56h-231z" />
    <glyph glyph-name="afii10030" unicode="&#x41c;" horiz-adv-x="986" 
d="M726 0v56h74v524l-276 -580h-62l-276 580v-524h74v-56h-230v56h75v588h-75v56h181l282 -591l282 591h181v-56h-74v-588h74v-56h-230z" />
    <glyph glyph-name="afii10031" unicode="&#x41d;" horiz-adv-x="787" 
d="M527 644v56h231v-56h-75v-588h75v-56h-231v56h75v268h-416v-268h74v-56h-230v56h75v588h-75v56h230v-56h-74v-254h416v254h-75z" />
    <glyph glyph-name="afii10032" unicode="&#x41e;" horiz-adv-x="804" 
d="M50 350q0 158 97.5 256.5t254.5 98.5q156 0 254.5 -99t98.5 -256t-98.5 -256t-254.5 -99q-157 0 -254.5 98.5t-97.5 256.5zM131 350q0 -127 76 -208t195 -81q120 0 195.5 80.5t75.5 208.5t-75.5 208.5t-195.5 80.5q-119 0 -195 -81t-76 -208z" />
    <glyph glyph-name="afii10033" unicode="&#x41f;" horiz-adv-x="780" 
d="M30 644v56h720v-56h-75v-588h75v-56h-231v56h75v578h-408v-578h74v-56h-230v56h75v588h-75z" />
    <glyph glyph-name="afii10034" unicode="&#x420;" horiz-adv-x="619" 
d="M30 644v56h321q96 0 156 -60.5t60 -157.5q0 -96 -60 -157t-156 -61h-165v-208h74v-56h-230v56h75v588h-75zM343 634h-157v-304h157q64 0 103.5 42.5t39.5 109.5t-39.5 109.5t-103.5 42.5z" />
    <glyph glyph-name="afii10035" unicode="&#x421;" horiz-adv-x="720" 
d="M658 506h-68v91q-74 42 -182 42q-123 0 -200 -80.5t-77 -208.5t77 -208.5t200 -80.5q135 0 207 83l48 -48q-99 -101 -259 -101q-157 0 -255.5 98.5t-98.5 256.5t98.5 256.5t255.5 98.5q155 0 254 -71v-128z" />
    <glyph glyph-name="afii10036" unicode="&#x422;" horiz-adv-x="745" 
d="M257 0v56h75v578h-204v-72h-68v138h626v-138h-69v72h-204v-578h75v-56h-231z" />
    <glyph glyph-name="afii10037" unicode="&#x423;" horiz-adv-x="725" 
d="M503 644v56h232v-56h-77l-323 -555q-53 -94 -164 -94q-86 0 -142 54l46 45q30 -33 91 -33q66 0 102 60l54 92l-251 431h-76v56h232v-56h-71l209 -356l208 356h-70z" />
    <glyph glyph-name="afii10038" unicode="&#x424;" horiz-adv-x="767" 
d="M268 644v56h231v-56h-75v-54q130 -1 211.5 -67.5t81.5 -172.5t-81.5 -173t-211.5 -67v-54h75v-56h-231v56h75v54q-130 0 -211.5 67t-81.5 173t81.5 173t211.5 67v54h-75zM424 524v-348q94 0 153 48t59 125q0 78 -59 126t-153 49zM343 176v348q-93 0 -152.5 -48.5
t-59.5 -125.5t59.5 -125.5t152.5 -48.5z" />
    <glyph glyph-name="afii10039" unicode="&#x425;" horiz-adv-x="752" 
d="M510 0v56h63l-197 245l-198 -245h65v-56h-235v56h79l241 301l-229 287h-79v56h235v-56h-64l185 -231l185 231h-63v56h235v-56h-80l-228 -287l241 -301h79v-56h-235z" />
    <glyph glyph-name="afii10040" unicode="&#x426;" horiz-adv-x="850" 
d="M30 644v56h230v-56h-74v-578h398v578h-75v56h231v-56h-75v-578h125v-241h-81v175h-679v56h75v588h-75z" />
    <glyph glyph-name="afii10041" unicode="&#x427;" horiz-adv-x="735" 
d="M474 644v56h231v-56h-75v-589h75v-55h-231v55h75v321q-32 -60 -94 -94.5t-144 -34.5q-93 0 -150 55t-57 145v197h-75v56h231v-56h-75v-182q0 -67 45.5 -108t117.5 -41q88 0 144.5 54t56.5 133v144h-75z" />
    <glyph glyph-name="afii10042" unicode="&#x428;" horiz-adv-x="1145" 
d="M457 644v56h231v-56h-75v-578h346v578h-75v56h231v-56h-75v-588h75v-56h-1085v56h75v588h-75v56h230v-56h-74v-578h346v578h-75z" />
    <glyph glyph-name="afii10043" unicode="&#x429;" horiz-adv-x="1225" 
d="M884 644v56h231v-56h-75v-578h125v-241h-81v175h-1054v56h75v588h-75v56h230v-56h-74v-578h346v578h-75v56h231v-56h-75v-578h346v578h-75z" />
    <glyph glyph-name="afii10044" unicode="&#x42a;" horiz-adv-x="809" 
d="M207 0v56h75v578h-154v-72h-68v138h378v-56h-75v-214h185q95 0 154.5 -60t59.5 -155t-59.5 -155t-154.5 -60h-341zM363 66h177q62 0 101 42t39 107q0 66 -39 107.5t-101 41.5h-177v-298z" />
    <glyph glyph-name="afii10045" unicode="&#x42b;" horiz-adv-x="900" 
d="M30 644v56h230v-56h-74v-214h185q94 0 153.5 -60t59.5 -155t-59.5 -155t-153.5 -60h-341v56h75v588h-75zM639 644v56h231v-56h-75v-588h75v-56h-231v56h75v588h-75zM186 66h177q62 0 101 42t39 107q0 66 -39 107.5t-101 41.5h-177v-298z" />
    <glyph glyph-name="afii10046" unicode="&#x42c;" horiz-adv-x="632" 
d="M30 644v56h230v-56h-74v-214h185q94 0 153.5 -60t59.5 -155t-59.5 -155t-153.5 -60h-341v56h75v588h-75zM186 66h177q62 0 101 42t39 107q0 66 -39 107.5t-101 41.5h-177v-298z" />
    <glyph glyph-name="afii10047" unicode="&#x42d;" horiz-adv-x="716" 
d="M123 508h-68v131q99 66 257 66q157 0 255.5 -98.5t98.5 -256.5t-98.5 -256.5t-256.5 -98.5t-259 101l48 48q75 -83 208 -83q116 0 191.5 73t83.5 190h-378v66h376q-11 111 -86 180t-187 69q-113 0 -185 -42v-89z" />
    <glyph glyph-name="afii10048" unicode="&#x42e;" horiz-adv-x="1052" 
d="M30 644v56h230v-56h-74v-254h154q12 141 102.5 228t227.5 87q148 0 240.5 -98.5t92.5 -256.5t-92.5 -256.5t-240.5 -98.5q-141 0 -232 91t-99 238h-153v-268h74v-56h-230v56h75v588h-75zM419 350q0 -127 70.5 -208t180.5 -81q112 0 182 80.5t70 208.5t-70 208.5
t-182 80.5q-110 0 -180.5 -81t-70.5 -208z" />
    <glyph glyph-name="afii10049" unicode="&#x42f;" horiz-adv-x="635" 
d="M375 0v56h74v244h-103l-173 -244h69v-56h-234v56h78l175 244q-88 0 -142.5 55.5t-54.5 144.5t55.5 144.5t143.5 55.5h342v-56h-74v-588h74v-56h-230zM449 634h-177q-55 0 -91 -37.5t-36 -96.5t35.5 -97t91.5 -38h177v269z" />
    <glyph glyph-name="afii10065" unicode="&#x430;" horiz-adv-x="575" 
d="M402 0v114q-25 -55 -72.5 -86.5t-109.5 -31.5q-74 0 -121 39.5t-47 101.5q0 72 66 117t170 45q57 0 114 -11v30q0 57 -36.5 91.5t-94.5 34.5q-76 0 -129 -22v-60h-66v98q76 45 191 45q94 0 152.5 -51.5t58.5 -133.5v-264h70v-56h-146zM402 236q-46 15 -109 15
q-73 0 -119 -30t-46 -77q0 -40 33.5 -64t85.5 -24q67 0 111 52.5t44 127.5z" />
    <glyph glyph-name="afii10066" unicode="&#x431;" horiz-adv-x="588" 
d="M492 669q-31 -24 -74.5 -39.5t-82 -21t-78 -19t-68 -33.5t-46.5 -65t-18 -112q26 57 77.5 90.5t115.5 33.5q97 0 159.5 -70.5t62.5 -182.5q0 -114 -68.5 -184.5t-178.5 -70.5q-108 0 -176 70.5t-68 184.5v100q0 80 19.5 138t49.5 88t73 50.5t81 27.5t83 18.5t71 24.5v53
h66v-81zM294 55q76 0 123 53.5t47 139.5t-47 140t-123 54q-74 0 -121.5 -54t-47.5 -140q0 -84 46.5 -138t122.5 -55z" />
    <glyph glyph-name="afii10067" unicode="&#x432;" horiz-adv-x="546" 
d="M30 444v56h302q60 0 97.5 -36t37.5 -93q0 -79 -66 -111q42 -13 67.5 -46.5t25.5 -78.5q0 -60 -40 -97.5t-104 -37.5h-320v56h70v388h-70zM176 230v-169h153q40 0 64.5 23.5t24.5 60.5q0 38 -25.5 61.5t-67.5 23.5h-149zM176 439v-156h130q39 0 62 21.5t23 56.5t-23 56.5
t-62 21.5h-130z" />
    <glyph glyph-name="afii10068" unicode="&#x433;" horiz-adv-x="507" 
d="M447 369h-66v70h-206v-384h70v-55h-216v55h70v389h-70v56h418v-131z" />
    <glyph glyph-name="afii10069" unicode="&#x434;" horiz-adv-x="717" 
d="M134 444v56h505v-56h-70v-383h88v-216h-76v155h-445v-155h-76v216h49q89 0 94 383h-69zM280 439q0 -295 -67 -378h280v378h-213z" />
    <glyph glyph-name="afii10070" unicode="&#x435;" horiz-adv-x="568" 
d="M520 229h-397q5 -77 56.5 -125.5t130.5 -48.5q92 0 142 55q7 -6 14 -13.5t15.5 -16l13.5 -13.5q-72 -72 -189 -72q-115 0 -187 70.5t-72 184.5q0 113 66 184t171 71t170.5 -71t65.5 -184v-21zM124 282h320q-2 72 -46.5 117t-111.5 45q-66 0 -110.5 -44.5t-51.5 -117.5z
" />
    <glyph glyph-name="afii10072" unicode="&#x436;" horiz-adv-x="881" 
d="M33 500h210v-56h-49l114 -124l94 -77v201h-70v56h216v-56h-70v-201l95 78l113 123h-49v56h211v-56h-66l-147 -154l171 -234h67v-56h-213v56h62l-136 190l-108 -83v-107h70v-56h-216v56h70v107l-107 83l-137 -191h62v-55h-212v55h66l171 234l-147 155h-65v56z" />
    <glyph glyph-name="afii10073" unicode="&#x437;" horiz-adv-x="489" 
d="M131 365h-66v98q68 42 175 42q78 0 126 -36t48 -95q0 -38 -21 -68.5t-58 -45.5q46 -13 74 -48t28 -81q0 -61 -55 -98.5t-144 -37.5q-114 0 -186 75l36 35q48 -50 136 -50q60 0 98.5 25t38.5 63t-30 62.5t-78 24.5h-104v55h85q47 0 75 22t28 57t-30.5 58t-76.5 23
q-56 0 -99 -20v-60z" />
    <glyph glyph-name="afii10074" unicode="&#x438;" horiz-adv-x="645" 
d="M399 0v56h70v333l-293 -389h-146v56h70v388h-70v56h216v-56h-70v-334l293 390h146v-56h-70v-388h70v-56h-216z" />
    <glyph glyph-name="afii10075" unicode="&#x439;" horiz-adv-x="645" 
d="M399 0v56h70v334l-293 -390h-146v56h70v388h-70v56h216v-56h-70v-334l293 390h146v-56h-70v-388h70v-56h-216zM149 674l39 39q52 -54 135 -54q82 0 134 54l39 -39q-69 -71 -173 -71q-105 0 -174 71z" />
    <glyph glyph-name="afii10076" unicode="&#x43a;" horiz-adv-x="590" 
d="M370 0v56h62l-145 191l-111 -86v-105h70v-56h-216v56h70v388h-70v56h216v-56h-70v-201l98 78l121 123h-50v56h211v-56h-65l-154 -154l179 -234h67v-56h-213z" />
    <glyph glyph-name="afii10077" unicode="&#x43b;" horiz-adv-x="673" 
d="M427 0v56h70v383h-203q0 -239 -32.5 -341.5t-118.5 -102.5q-51 0 -93 43l40 41q23 -23 48 -23q43 0 61 87.5t19 300.5h-70v56h495v-56h-70v-388h70v-56h-216z" />
    <glyph glyph-name="afii10078" unicode="&#x43c;" horiz-adv-x="812" 
d="M564 0v56h72l-27 329l-178 -385h-51l-177 385l-28 -329h73v-56h-218v56h72l31 388h-65v56h157l181 -389l180 389h158v-56h-66l32 -388h72v-56h-218z" />
    <glyph glyph-name="afii10079" unicode="&#x43d;" horiz-adv-x="645" 
d="M29 444v56h216v-56h-70v-157h294v157h-70v56h216v-56h-70v-389h70v-55h-216v55h70v172h-294v-172h70v-55h-216v55h70v389h-70z" />
    <glyph glyph-name="afii10080" unicode="&#x43e;" 
d="M47 250q0 113 71 184t184 71t184 -71t71 -184t-71 -184t-184 -71t-184 71t-71 184zM123 250q0 -86 50 -140t129 -54q80 0 129.5 54t49.5 140t-49.5 140t-129.5 54q-79 0 -129 -54t-50 -140z" />
    <glyph glyph-name="afii10081" unicode="&#x43f;" horiz-adv-x="638" 
d="M391 0v55h70v384h-286v-384h70v-55h-216v55h70v389h-70v56h578v-56h-70v-389h70v-55h-216z" />
    <glyph glyph-name="afii10082" unicode="&#x440;" horiz-adv-x="617" 
d="M29 444v56h146v-134q25 63 75 100t116 37q90 0 146.5 -70.5t56.5 -182.5q0 -113 -69 -183t-179 -70q-85 0 -146 37v-203h70v-56h-216v56h70v613h-70zM175 253v-161q59 -35 139 -35q79 0 129 53.5t50 139.5q0 87 -44 139.5t-115 52.5q-70 0 -114.5 -54.5t-44.5 -134.5z
" />
    <glyph glyph-name="afii10083" unicode="&#x441;" horiz-adv-x="540" 
d="M482 357h-66v65q-41 22 -110 22q-81 0 -132 -54t-51 -140t51 -140t132 -54q88 0 139 53l42 -41q-70 -73 -186 -73q-113 0 -183.5 71t-70.5 184t71 184t184 71q110 0 180 -48v-100z" />
    <glyph glyph-name="afii10084" unicode="&#x442;" horiz-adv-x="590" 
d="M187 0v56h70v383h-131v-70h-66v131h470v-131h-66v70h-131v-383h70v-56h-216z" />
    <glyph glyph-name="afii10085" unicode="&#x443;" horiz-adv-x="600" 
d="M394 444v56h216v-56h-71l-247 -541q-60 -133 -151 -133q-71 0 -113 43l40 40q21 -22 67 -22q30 0 51.5 25t43.5 73l32 72l-202 443h-70v56h217v-56h-72l164 -359l165 359h-70z" />
    <glyph glyph-name="afii10086" unicode="&#x444;" horiz-adv-x="696" 
d="M240 669v56h146v-224q116 0 189 -69.5t73 -181.5t-73 -181.5t-189 -69.5v-168h70v-56h-216v56h70v168q-117 0 -190 69.5t-73 181.5t73 181.5t190 69.5v168h-70zM386 440v-380q82 0 133.5 52.5t51.5 137.5q0 84 -51.5 137t-133.5 53zM310 60v380q-82 0 -133.5 -53
t-51.5 -137q0 -85 51 -137.5t134 -52.5z" />
    <glyph glyph-name="afii10087" unicode="&#x445;" horiz-adv-x="578" 
d="M360 0v55h59q-23 29 -67.5 84t-63.5 79q-25 -33 -74 -93.5t-56 -69.5h60v-55h-211v55h64q28 34 82 101t81 100q-51 62 -153 188h-64v56h210v-56h-60q20 -26 60.5 -75.5t60.5 -75.5q105 131 121 151h-59v56h211v-56h-66q-73 -91 -152 -188q28 -34 81.5 -101t81.5 -100h64
v-55h-210z" />
    <glyph glyph-name="afii10088" unicode="&#x446;" horiz-adv-x="695" 
d="M382 444v56h216v-56h-70v-383h107v-216h-76v155h-529v56h70v388h-70v56h216v-56h-70v-383h276v383h-70z" />
    <glyph glyph-name="afii10089" unicode="&#x447;" horiz-adv-x="628" 
d="M381 0v55h70v219q-25 -52 -72 -82t-107 -30q-77 0 -125 52t-48 135v95h-70v56h216v-56h-70v-87q0 -60 35 -97t92 -37q63 0 105 46t44 113v62h-70v56h216v-56h-70v-389h70v-55h-216z" />
    <glyph glyph-name="afii10090" unicode="&#x448;" horiz-adv-x="890" 
d="M337 444v56h216v-56h-70v-383h231v383h-70v56h216v-56h-70v-388h70v-56h-830v56h70v388h-70v56h216v-56h-70v-383h231v383h-70z" />
    <glyph glyph-name="afii10091" unicode="&#x449;" horiz-adv-x="947" 
d="M644 444v56h216v-56h-70v-383h98v-216h-76v155h-782v56h70v388h-70v56h216v-56h-70v-383h231v383h-70v56h216v-56h-70v-383h231v383h-70z" />
    <glyph glyph-name="afii10092" unicode="&#x44a;" horiz-adv-x="680" 
d="M173 0v56h69v383h-116v-70h-66v131h328v-56h-70v-129h156q72 0 117 -43.5t45 -113.5t-45 -114t-117 -44h-301zM318 255v-194h140q45 0 73 27t28 70t-28 70t-73 27h-140z" />
    <glyph glyph-name="afii10093" unicode="&#x44b;" horiz-adv-x="781" 
d="M30 444v56h216v-56h-70v-129h156q71 0 116 -43.5t45 -113.5t-45 -114t-116 -44h-302v56h70v388h-70zM535 444v56h216v-56h-70v-388h70v-56h-216v56h70v388h-70zM176 255v-194h139q46 0 74 27t28 70t-28 70t-74 27h-139z" />
    <glyph glyph-name="afii10094" unicode="&#x44c;" horiz-adv-x="538" 
d="M30 444v56h216v-56h-70v-129h156q71 0 116 -43.5t45 -113.5t-45 -114t-116 -44h-302v56h70v388h-70zM176 255v-194h139q46 0 74 27t28 70t-28 70t-74 27h-139z" />
    <glyph glyph-name="afii10095" unicode="&#x44d;" horiz-adv-x="540" 
d="M123 358h-66v101q70 46 181 46q113 0 183.5 -71t70.5 -184q0 -114 -71 -184.5t-184 -70.5q-115 0 -185 72l42 42q52 -54 139 -54q76 0 126 48t55 126h-259v56h257q-9 72 -58 115.5t-121 43.5q-64 0 -110 -23v-63z" />
    <glyph glyph-name="afii10096" unicode="&#x44e;" horiz-adv-x="818" 
d="M30 444v56h216v-56h-70v-156h116q11 98 76 157.5t162 59.5q107 0 173.5 -71t66.5 -184t-66.5 -184t-173.5 -71q-101 0 -166.5 64t-71.5 168h-116v-171h70v-56h-216v56h70v388h-70zM367 250q0 -86 45 -140t118 -54t118.5 54t45.5 140t-45.5 140t-118.5 54t-118 -54
t-45 -140z" />
    <glyph glyph-name="afii10097" unicode="&#x44f;" horiz-adv-x="549" 
d="M303 0v56h70v151h-118l-102 -151h65v-56h-210v56h64l106 153q-60 7 -96 46t-36 96q0 66 45.5 107.5t118.5 41.5h309v-56h-70v-388h70v-56h-216zM373 263v176h-147q-46 0 -75 -24.5t-29 -63.5t29 -63.5t75 -24.5h147z" />
    <glyph glyph-name="uni0450" unicode="&#x450;" horiz-adv-x="568" 
d="M520 229h-397q5 -77 56.5 -125.5t130.5 -48.5q92 0 142 55q7 -6 14 -13.5t15.5 -16l13.5 -13.5q-72 -72 -189 -72q-115 0 -187 70.5t-72 184.5q0 113 66 184t171 71t170.5 -71t65.5 -184v-21zM124 282h320q-2 72 -46.5 117t-111.5 45q-66 0 -110.5 -44.5t-51.5 -117.5z
M186 703l46 47l147 -146l-32 -32z" />
    <glyph glyph-name="afii10071" unicode="&#x451;" horiz-adv-x="568" 
d="M520 229h-397q5 -77 56.5 -125.5t130.5 -48.5q92 0 142 55q7 -6 14 -13.5t15.5 -16l13.5 -13.5q-72 -72 -189 -72q-115 0 -187 70.5t-72 184.5q0 113 66 184t171 71t170.5 -71t65.5 -184v-21zM124 282h320q-2 72 -46.5 117t-111.5 45q-66 0 -110.5 -44.5t-51.5 -117.5z
M130 607v93h76v-93h-76zM360 607v93h76v-93h-76z" />
    <glyph glyph-name="afii10099" unicode="&#x452;" horiz-adv-x="648" 
d="M47 0v56h70v534h-87v48h87v87h76v-87h274v-48h-274v-223q26 63 77 100.5t117 37.5q80 0 130.5 -53t50.5 -137v-375q0 -76 -46.5 -123t-120.5 -47t-121 49l40 40q28 -28 76 -28q42 0 69 30t27 77v364q0 64 -38 103t-99 39q-69 0 -114.5 -55t-47.5 -136v-197h70v-56h-216z
" />
    <glyph glyph-name="afii10100" unicode="&#x453;" horiz-adv-x="507" 
d="M447 369h-66v70h-206v-384h70v-55h-216v55h70v389h-70v56h418v-131zM311 750l46 -47l-161 -131l-31 32z" />
    <glyph glyph-name="afii10101" unicode="&#x454;" horiz-adv-x="540" 
d="M482 356h-66v65q-48 23 -110 23q-73 0 -121.5 -43.5t-58.5 -115.5h276v-56h-278q5 -77 55.5 -125.5t126.5 -48.5q88 0 139 54l42 -42q-70 -72 -186 -72q-113 0 -183.5 70.5t-70.5 184.5q0 113 70.5 184t183.5 71q109 0 181 -48v-101z" />
    <glyph glyph-name="afii10102" unicode="&#x455;" horiz-adv-x="447" 
d="M377 365h-66v58q-34 21 -90 21q-40 0 -64.5 -21t-24.5 -54q0 -29 27 -49.5t66 -34t77.5 -29t65.5 -44t27 -69.5q0 -65 -51.5 -106.5t-125.5 -41.5q-98 0 -166 49v94h66v-58q38 -24 99 -24q44 0 73 24t29 61q0 28 -27 47t-66 31.5t-77.5 28t-65.5 45.5t-27 73
q0 61 46.5 100.5t114.5 39.5q97 0 160 -46v-95z" />
    <glyph glyph-name="afii10103" unicode="&#x456;" horiz-adv-x="275" 
d="M29 444v56h146v-445h70v-55h-216v55h70v389h-70zM99 607v93h76v-93h-76z" />
    <glyph glyph-name="afii10104" unicode="&#x457;" horiz-adv-x="326" 
d="M55 444v56h146v-444h70v-56h-216v56h70v388h-70zM218 607v93h76v-93h-76zM32 607v93h76v-93h-76z" />
    <glyph glyph-name="afii10105" unicode="&#x458;" horiz-adv-x="256" 
d="M30 444v56h146v-560q0 -76 -46.5 -123t-120.5 -47t-121 49l40 40q28 -28 76 -28q42 0 69 30t27 77v506h-70zM100 607v93h76v-93h-76z" />
    <glyph glyph-name="afii10106" unicode="&#x459;" horiz-adv-x="945" 
d="M148 444v56h505v-56h-70v-129h156q72 0 116.5 -43.5t44.5 -113.5q0 -71 -44.5 -114.5t-116.5 -43.5h-302v56h70v383h-213q0 -239 -32.5 -341.5t-118.5 -102.5q-51 0 -93 43l40 41q23 -23 48 -23q43 0 61 87.5t19 300.5h-70zM583 255v-194h139q46 0 74 27t28 70t-28 70
t-74 27h-139z" />
    <glyph glyph-name="afii10107" unicode="&#x45a;" horiz-adv-x="907" 
d="M30 444v56h216v-56h-70v-156h293v156h-70v56h216v-56h-70v-129h156q72 0 116.5 -43.5t44.5 -113.5q0 -71 -44.5 -114.5t-116.5 -43.5h-302v56h70v171h-293v-171h70v-56h-216v56h70v388h-70zM545 255v-194h139q46 0 74 27t28 70t-28 70t-74 27h-139z" />
    <glyph glyph-name="afii10108" unicode="&#x45b;" horiz-adv-x="667" 
d="M47 0v56h70v534h-87v48h87v87h76v-87h274v-48h-274v-223q26 63 77 100.5t117 37.5q80 0 130.5 -53t50.5 -137v-259h70v-56h-216v56h70v246q0 64 -38 103t-99 39q-69 0 -114.5 -55t-47.5 -136v-197h70v-56h-216z" />
    <glyph glyph-name="afii10109" unicode="&#x45c;" horiz-adv-x="588" 
d="M340 750l46 -47l-161 -131l-31 32zM368 0v56h61l-145 191l-111 -86v-105h70v-56h-216v56h70v388h-70v56h216v-56h-70v-201l98 78l122 123h-50v56h211v-56h-66l-154 -154l179 -234h67v-56h-212z" />
    <glyph glyph-name="uni045D" unicode="&#x45d;" horiz-adv-x="645" 
d="M399 0v56h70v333l-293 -389h-146v56h70v388h-70v56h216v-56h-70v-334l293 390h146v-56h-70v-388h70v-56h-216zM226 703l46 47l147 -146l-32 -32z" />
    <glyph glyph-name="afii10110" unicode="&#x45e;" horiz-adv-x="600" 
d="M394 444v56h216v-56h-71l-247 -541q-60 -133 -151 -133q-71 0 -113 43l40 40q21 -22 67 -22q30 0 51.5 25t43.5 73l32 72l-202 443h-70v56h217v-56h-72l164 -359l165 359h-70zM129 684l38 39q53 -53 133 -53q81 0 132 53l38 -39q-68 -71 -170 -71t-171 71z" />
    <glyph glyph-name="afii10193" unicode="&#x45f;" horiz-adv-x="640" 
d="M358 0v-155h-76v155h-252v56h70v388h-70v56h216v-56h-70v-383h288v383h-70v56h216v-56h-70v-388h70v-56h-252z" />
    <glyph glyph-name="afii10050" unicode="&#x490;" 
d="M30 644v56h434v100h81v-166h-359v-578h74v-56h-230v56h75v588h-75z" />
    <glyph glyph-name="afii10098" unicode="&#x491;" horiz-adv-x="490" 
d="M30 444v56h324v125h76v-186h-254v-383h70v-56h-216v56h70v388h-70z" />
    <glyph glyph-name="afii10846" unicode="&#x4d9;" horiz-adv-x="568" 
d="M126 359h-66v98q74 48 201 48q115 0 187 -71t72 -184q0 -114 -66 -184.5t-171 -70.5t-170.5 70.5t-65.5 183.5v21h397q-4 77 -54.5 125.5t-128.5 48.5q-82 0 -135 -29v-56zM443 217h-320q2 -72 46.5 -117t111.5 -45q66 0 110.5 44.5t51.5 117.5z" />
    <glyph glyph-name="Wgrave" unicode="&#x1e80;" horiz-adv-x="1173" 
d="M951 644v56h232v-56h-78l-226 -644h-87l-205 596l-206 -596h-88l-226 644h-77v56h233v-56h-78l190 -540l208 596h87l207 -596l190 540h-76zM491 903l46 47l147 -146l-32 -32z" />
    <glyph glyph-name="wgrave" unicode="&#x1e81;" horiz-adv-x="881" 
d="M674 444v56h217v-56h-72l-163 -444h-71l-144 396l-144 -396h-72l-163 444h-72v56h218v-56h-72l127 -345l143 401h70l142 -401l127 345h-71zM344 703l46 47l147 -146l-32 -32z" />
    <glyph glyph-name="Wacute" unicode="&#x1e82;" horiz-adv-x="1173" 
d="M951 644v56h232v-56h-78l-226 -644h-87l-205 596l-206 -596h-88l-226 644h-77v56h233v-56h-78l190 -540l208 596h87l207 -596l190 540h-76zM637 950l46 -47l-161 -131l-31 32z" />
    <glyph glyph-name="wacute" unicode="&#x1e83;" horiz-adv-x="881" 
d="M674 444v56h217v-56h-72l-163 -444h-71l-144 396l-144 -396h-72l-163 444h-72v56h218v-56h-72l127 -345l143 401h70l142 -401l127 345h-71zM490 750l46 -47l-161 -131l-31 32z" />
    <glyph glyph-name="Wdieresis" unicode="&#x1e84;" horiz-adv-x="1173" 
d="M951 644v56h232v-56h-78l-226 -644h-87l-205 596l-206 -596h-88l-226 644h-77v56h233v-56h-78l190 -540l208 596h87l207 -596l190 540h-76zM434 807v93h76v-93h-76zM664 807v93h76v-93h-76z" />
    <glyph glyph-name="wdieresis" unicode="&#x1e85;" horiz-adv-x="881" 
d="M674 444v56h217v-56h-72l-163 -444h-71l-144 396l-144 -396h-72l-163 444h-72v56h218v-56h-72l127 -345l143 401h70l142 -401l127 345h-71zM287 607v93h76v-93h-76zM517 607v93h76v-93h-76z" />
    <glyph glyph-name="Ygrave" unicode="&#x1ef2;" horiz-adv-x="706" 
d="M482 644v56h233v-56h-77l-245 -382v-206h75v-56h-231v56h75v206l-246 382h-76v56h233v-56h-72l201 -309l202 309h-72zM256 903l46 47l147 -146l-32 -32z" />
    <glyph glyph-name="ygrave" unicode="&#x1ef3;" horiz-adv-x="600" 
d="M394 444v56h216v-56h-71l-247 -541q-60 -133 -151 -133q-71 0 -113 43l40 40q21 -22 67 -22q30 0 51.5 25t43.5 73l32 72l-202 443h-70v56h217v-56h-72l164 -359l165 359h-70zM203 703l46 47l147 -146l-32 -32z" />
    <glyph glyph-name="figuredash" unicode="&#x2012;" horiz-adv-x="582" 
d="M501 330h-420v60h420v-60z" />
    <glyph glyph-name="endash" unicode="&#x2013;" horiz-adv-x="661" 
d="M581 260h-500v60h500v-60z" />
    <glyph glyph-name="emdash" unicode="&#x2014;" horiz-adv-x="1002" 
d="M921 260h-840v60h840v-60z" />
    <glyph glyph-name="quoteleft" unicode="&#x2018;" horiz-adv-x="278" 
d="M187 715l34 -34q-64 -63 -64 -227h-76q0 155 106 261z" />
    <glyph glyph-name="quoteright" unicode="&#x2019;" horiz-adv-x="278" 
d="M91 444l-34 34q64 63 64 227h76q0 -155 -106 -261z" />
    <glyph glyph-name="quotesinglbase" unicode="&#x201a;" horiz-adv-x="238" 
d="M50 -150l-33 33q64 65 64 228h76q0 -156 -107 -261z" />
    <glyph glyph-name="quotereversed" unicode="&#x201b;" horiz-adv-x="278" 
d="M216 483l-33 -34q-107 105 -107 251h76q0 -153 64 -217z" />
    <glyph glyph-name="quotedblleft" unicode="&#x201c;" horiz-adv-x="467" 
d="M187 715l34 -34q-64 -63 -64 -227h-76q0 155 106 261zM376 715l33 -34q-63 -63 -63 -227h-77q0 154 107 261z" />
    <glyph glyph-name="quotedblright" unicode="&#x201d;" horiz-adv-x="467" 
d="M91 444l-34 34q64 63 64 227h76q0 -155 -106 -261zM279 444l-33 34q64 64 64 227h76q0 -80 -30 -147.5t-77 -113.5z" />
    <glyph glyph-name="quotedblbase" unicode="&#x201e;" horiz-adv-x="426" 
d="M50 -150l-33 33q64 65 64 228h76q0 -156 -107 -261zM239 -150l-33 33q63 64 63 228h77q0 -154 -107 -261z" />
    <glyph glyph-name="uni201F" unicode="&#x201f;" horiz-adv-x="467" 
d="M405 483l-33 -34q-107 105 -107 251h76q0 -153 64 -217zM216 483l-33 -34q-107 105 -107 251h76q0 -153 64 -217z" />
    <glyph glyph-name="dagger" unicode="&#x2020;" horiz-adv-x="478" 
d="M51 465v60h150v200h76v-200h150v-60h-150v-565h-76v565h-150z" />
    <glyph glyph-name="daggerdbl" unicode="&#x2021;" horiz-adv-x="478" 
d="M51 99v62h150v304h-150v60h150v200h76v-200h150v-60h-150v-304h150v-62h-150v-199h-76v199h-150z" />
    <glyph glyph-name="bullet" unicode="&#x2022;" horiz-adv-x="310" 
d="M53 322q0 44 29.5 73t74.5 29q44 0 70.5 -29t26.5 -73q0 -43 -26.5 -71t-70.5 -28q-45 0 -74.5 28.5t-29.5 70.5z" />
    <glyph glyph-name="ellipsis" unicode="&#x2026;" horiz-adv-x="659" 
d="M81 0v111h76v-111h-76zM292 0v111h76v-111h-76zM502 0v111h76v-111h-76z" />
    <glyph glyph-name="perthousand" unicode="&#x2030;" horiz-adv-x="1335" 
d="M297 0h-83l418 725h83zM53 562q0 74 46 120t120 46t119.5 -46t45.5 -120t-46 -119.5t-119 -45.5q-74 0 -120 46t-46 119zM118 562q0 -47 28.5 -77.5t72.5 -30.5t72.5 30.5t28.5 77.5q0 48 -28.5 78.5t-72.5 30.5t-72.5 -30.5t-28.5 -78.5zM543 162q0 74 46 120t120 46
t119.5 -46t45.5 -120t-46 -119.5t-119 -45.5q-74 0 -120 46t-46 119zM608 162q0 -47 28.5 -77.5t72.5 -30.5t72.5 30.5t28.5 77.5q0 48 -28.5 78.5t-72.5 30.5t-72.5 -30.5t-28.5 -78.5zM951 162q0 74 46 120t120 46t119.5 -46t45.5 -120t-46 -119.5t-119 -45.5
q-74 0 -120 46t-46 119zM1016 162q0 -47 28.5 -77.5t72.5 -30.5t72.5 30.5t28.5 77.5q0 48 -28.5 78.5t-72.5 30.5t-72.5 -30.5t-28.5 -78.5z" />
    <glyph glyph-name="guilsinglleft" unicode="&#x2039;" horiz-adv-x="395" 
d="M271 72l-203 203l203 203l46 -47l-156 -156l156 -156z" />
    <glyph glyph-name="guilsinglright" unicode="&#x203a;" horiz-adv-x="395" 
d="M124 478l203 -203l-203 -203l-47 47l157 156l-157 156z" />
    <glyph glyph-name="fraction" unicode="&#x2044;" horiz-adv-x="508" 
d="M50 -100h-67l476 825h67z" />
    <glyph glyph-name="Euro" unicode="&#x20ac;" horiz-adv-x="780" 
d="M24 239v57h88q-4 34 -4 52q0 19 4 55h-88v57h99q32 112 123 178.5t217 66.5q158 0 259 -101q-8 -9 -24 -25l-24 -24q-74 84 -208 84q-93 0 -161 -48.5t-95 -130.5h348v-57h-365q-4 -24 -4 -54t4 -53h365v-57h-348q27 -83 95 -131t161 -48q135 0 208 84l48 -48
q-99 -101 -260 -101q-127 0 -217 65.5t-122 178.5h-99z" />
    <glyph glyph-name="afii61352" unicode="&#x2116;" horiz-adv-x="1200" 
d="M30 644v56h156l438 -577v577h81v-700h-81l-438 577v-521h74v-56h-230v56h75v588h-75zM805 531q0 77 48.5 125t124.5 48t124 -48t48 -125t-48 -124.5t-124 -47.5q-77 0 -125 48t-48 124zM862 531q0 -56 32 -91.5t84 -35.5t84.5 35.5t32.5 91.5t-32.5 91.5t-84.5 35.5
t-84 -35.5t-32 -91.5zM1147 202h-338v48h338v-48z" />
    <glyph glyph-name="trademark" unicode="&#x2122;" horiz-adv-x="902" 
d="M890 390v-40h-136v40h40v223q-86 -176 -129 -263h-35q-44 87 -130 263v-223h40v-40h-136v40h40v269h-40v41h105q92 -180 138 -269q46 89 138 269h105v-41h-40v-269h40zM285 390v-40h-136v40h40v264h-91v-45h-43v91h324v-91h-43v45h-91v-264h40z" />
    <glyph glyph-name="Omega" unicode="&#x2126;" horiz-adv-x="804" 
d="M477 0v66q90 24 143 100.5t53 183.5q0 128 -75.5 208.5t-195.5 80.5q-119 0 -195 -81t-76 -208q0 -107 53 -183.5t143 -100.5v-66h-277v66h141q-67 42 -104 116t-37 168q0 158 97.5 256.5t254.5 98.5q156 0 254.5 -99t98.5 -256q0 -94 -38 -167.5t-104 -116.5h142v-66
h-278z" />
    <glyph glyph-name="arrowleft" unicode="&#x2190;" horiz-adv-x="1092" 
d="M405 -3l-354 354l354 353l49 -50l-268 -268h830v-71h-830l269 -268z" />
    <glyph glyph-name="arrowup" unicode="&#x2191;" horiz-adv-x="809" 
d="M369 -211v830l-268 -269l-50 51l354 354l353 -354l-50 -50l-268 268v-830h-71z" />
    <glyph glyph-name="arrowright" unicode="&#x2192;" horiz-adv-x="1092" 
d="M76 315v71h830l-269 268l50 50l354 -353l-354 -354l-50 50l269 268h-830z" />
    <glyph glyph-name="arrowdown" unicode="&#x2193;" horiz-adv-x="809" 
d="M405 -216l-354 354l50 51l268 -269v830h71v-830l268 268l50 -50z" />
    <glyph glyph-name="uni2196" unicode="&#x2196;" horiz-adv-x="834" 
d="M76 200v500h500v-71h-380l587 -586l-50 -51l-586 587v-379h-71z" />
    <glyph glyph-name="uni2197" unicode="&#x2197;" horiz-adv-x="834" 
d="M258 629v71h500v-500h-71v379l-586 -587l-50 51l586 586h-379z" />
    <glyph glyph-name="uni2198" unicode="&#x2198;" horiz-adv-x="834" 
d="M258 0v71h379l-586 586l50 51l586 -587v379h71v-500h-500z" />
    <glyph glyph-name="uni2199" unicode="&#x2199;" horiz-adv-x="834" 
d="M76 0v500h71v-379l586 587l50 -51l-587 -586h380v-71h-500z" />
    <glyph glyph-name="Delta" unicode="&#x2206;" horiz-adv-x="854" 
d="M794 0h-734l326 700h83zM428 613l-252 -547h502z" />
    <glyph glyph-name="product" unicode="&#x220f;" horiz-adv-x="780" 
d="M30 644v56h720v-56h-75v-588h75v-56h-231v56h75v578h-408v-578h74v-56h-230v56h75v588h-75z" />
    <glyph glyph-name="summation" unicode="&#x2211;" horiz-adv-x="668" 
d="M598 0h-533v35l264 322l-257 308v35h518v-138h-68v72h-327l230 -277l-241 -291h345v72h69v-138z" />
    <glyph glyph-name="minus" unicode="&#x2212;" horiz-adv-x="582" 
d="M501 330h-420v60h420v-60z" />
    <glyph glyph-name="Scedilla.small" horiz-adv-x="474" 
d="M144 -159q5 4 15 14t15 14q27 -29 57 -29q44 0 44 34q0 12 -7 20t-17.5 14.5t-20.5 15t-17.5 26.5t-8.5 45q-88 4 -152 51v100h66v-65q46 -27 108 -27q52 0 85 28t33 72q0 30 -29.5 50.5t-72 34t-85 30t-72 48t-29.5 78.5q0 66 50 106.5t126 40.5q102 0 172 -48v-100h-65
v64q-42 24 -99 24q-50 0 -78 -23t-28 -61q0 -33 29.5 -56t72 -37t85 -29.5t72 -45t29.5 -72.5q0 -68 -49 -112.5t-124 -50.5q1 -28 12 -44.5t24 -21t24 -19t11 -40.5q0 -32 -24.5 -52t-62.5 -20q-51 0 -89 43z" />
    <glyph glyph-name="Scircumflex.small" horiz-adv-x="474" 
d="M404 394h-65v64q-42 24 -99 24q-50 0 -78 -23t-28 -61q0 -33 29.5 -56t72 -37t85 -29.5t72 -45t29.5 -72.5q0 -73 -56 -118.5t-138 -45.5q-102 0 -176 52v100h66v-65q46 -27 108 -27q52 0 85 28t33 72q0 30 -29.5 50.5t-72 34t-85 30t-72 48t-29.5 78.5q0 66 50 106.5
t126 40.5q102 0 172 -48v-100zM77 657l160 113l160 -113l-39 -39l-121 87l-121 -87z" />
    <glyph glyph-name="Scommaaccent.small" horiz-adv-x="474" 
d="M404 394h-65v64q-42 24 -99 24q-50 0 -78 -23t-28 -61q0 -33 29.5 -56t72 -37t85 -29.5t72 -45t29.5 -72.5q0 -73 -56 -118.5t-138 -45.5q-102 0 -176 52v100h66v-65q46 -27 108 -27q52 0 85 28t33 72q0 30 -29.5 50.5t-72 34t-85 30t-72 48t-29.5 78.5q0 66 50 106.5
t126 40.5q102 0 172 -48v-100zM174 -286l-27 27q54 54 54 179h60q0 -119 -87 -206z" />
    <glyph glyph-name="Tcommaaccent.small" horiz-adv-x="629" 
d="M208 0v56h68v423h-150v-65h-66v125h510v-125h-66v65h-150v-423h68v-56h-214zM258 -286l-27 27q54 54 54 179h60q0 -119 -87 -206z" />
    <glyph glyph-name="Ubreve.small" horiz-adv-x="691" 
d="M30 482v56h214v-56h-68v-247q0 -81 47 -131t122 -50q77 0 123.5 49.5t46.5 131.5v247h-68v56h214v-56h-68v-247q0 -112 -67.5 -176.5t-180.5 -64.5t-180 64.5t-67 176.5v247h-68zM173 704l38 39q53 -53 133 -53q81 0 132 53l38 -39q-68 -71 -170 -71t-171 71z" />
    <glyph glyph-name="Ucircumflexsmall" horiz-adv-x="691" 
d="M30 482v56h214v-56h-68v-247q0 -81 47 -131t122 -50q77 0 123.5 49.5t46.5 131.5v247h-68v56h214v-56h-68v-247q0 -112 -67.5 -176.5t-180.5 -64.5t-180 64.5t-67 176.5v247h-68zM184 657l160 113l160 -113l-39 -39l-121 87l-121 -87z" />
    <glyph glyph-name="Udieresissmall" horiz-adv-x="691" 
d="M30 482v56h214v-56h-68v-247q0 -81 47 -131t122 -50q77 0 123.5 49.5t46.5 131.5v247h-68v56h214v-56h-68v-247q0 -112 -67.5 -176.5t-180.5 -64.5t-180 64.5t-67 176.5v247h-68zM193 627v93h76v-93h-76zM423 627v93h76v-93h-76z" />
    <glyph glyph-name="Uhungarumlaut.small" horiz-adv-x="691" 
d="M30 482v56h214v-56h-68v-247q0 -81 47 -131t122 -50q77 0 123.5 49.5t46.5 131.5v247h-68v56h214v-56h-68v-247q0 -112 -67.5 -176.5t-180.5 -64.5t-180 64.5t-67 176.5v247h-68zM305 770l46 -47l-161 -131l-31 32zM535 770l46 -47l-161 -131l-31 32z" />
    <glyph glyph-name="Ugravesmall" horiz-adv-x="691" 
d="M30 482v56h214v-56h-68v-247q0 -81 47 -131t122 -50q77 0 123.5 49.5t46.5 131.5v247h-68v56h214v-56h-68v-247q0 -112 -67.5 -176.5t-180.5 -64.5t-180 64.5t-67 176.5v247h-68zM248 723l46 47l147 -146l-32 -32z" />
    <glyph glyph-name="Umacron.small" horiz-adv-x="691" 
d="M30 482v56h214v-56h-68v-247q0 -81 47 -131t122 -50q77 0 123.5 49.5t46.5 131.5v247h-68v56h214v-56h-68v-247q0 -112 -67.5 -176.5t-180.5 -64.5t-180 64.5t-67 176.5v247h-68zM498 669h-306v51h306v-51z" />
    <glyph glyph-name="Uogonek.small" horiz-adv-x="691" 
d="M30 482v56h214v-56h-68v-247q0 -81 47 -131t122 -50q77 0 123.5 49.5t46.5 131.5v247h-68v56h214v-56h-68v-247q0 -96 -51 -158t-139 -78q-7 -7 -24.5 -31t-37.5 -63.5t-20 -65.5q0 -21 11 -33t32 -12q34 0 59 25l30 -31q-38 -41 -90 -41q-39 0 -64 23t-25 59
q0 79 70 165q-113 1 -179.5 65t-66.5 176v247h-68z" />
    <glyph glyph-name="Uring.small" horiz-adv-x="691" 
d="M30 482v56h214v-56h-68v-247q0 -81 47 -131t122 -50q77 0 123.5 49.5t46.5 131.5v247h-68v56h214v-56h-68v-247q0 -112 -67.5 -176.5t-180.5 -64.5t-180 64.5t-67 176.5v247h-68zM266 692q0 36 21.5 58t56.5 22t56.5 -22t21.5 -58q0 -35 -21.5 -57t-56.5 -22t-56.5 22
t-21.5 57zM298 692q0 -20 13 -33t33 -13t32.5 13t12.5 33q0 21 -12.5 34t-32.5 13t-33 -13t-13 -34z" />
    <glyph glyph-name="Utilde.small" horiz-adv-x="691" 
d="M30 482v56h214v-56h-68v-247q0 -81 47 -131t122 -50q77 0 123.5 49.5t46.5 131.5v247h-68v56h214v-56h-68v-247q0 -112 -67.5 -176.5t-180.5 -64.5t-180 64.5t-67 176.5v247h-68zM196 646l-33 33q55 55 112 55q28 0 76.5 -18.5t71.5 -18.5q37 0 69 31q23 -22 34 -33
q-54 -55 -110 -55q-28 0 -76.5 19t-71.5 19q-37 0 -72 -32z" />
    <glyph glyph-name="Wcircumflex.small" horiz-adv-x="958" 
d="M751 483v56h217v-56h-72l-176 -483h-84l-157 444l-158 -444h-84l-176 483h-71v56h217v-56h-72l142 -388l160 444h84l159 -444l142 388h-71zM319 657l160 113l160 -113l-39 -39l-121 87l-121 -87z" />
    <glyph glyph-name="Wdieresis.small" horiz-adv-x="958" 
d="M751 483v56h217v-56h-72l-176 -483h-84l-157 444l-158 -444h-84l-176 483h-71v56h217v-56h-72l142 -388l160 444h84l159 -444l142 388h-71zM326 627v93h76v-93h-76zM556 627v93h76v-93h-76z" />
    <glyph glyph-name="Wgrave.small" horiz-adv-x="958" 
d="M751 483v56h217v-56h-72l-176 -483h-84l-157 444l-158 -444h-84l-176 483h-71v56h217v-56h-72l142 -388l160 444h84l159 -444l142 388h-71zM383 723l46 47l147 -146l-32 -32z" />
    <glyph glyph-name="Ycircumflex.small" horiz-adv-x="563" 
d="M360 483v56h213v-56h-67l-186 -284v-143h68v-56h-214v56h68v143l-186 284h-66v56h212v-56h-66l145 -217l146 217h-67zM120 657l160 113l160 -113l-39 -39l-121 87l-121 -87z" />
    <glyph glyph-name="Ydieresissmall" horiz-adv-x="563" 
d="M360 483v56h213v-56h-67l-186 -284v-143h68v-56h-214v56h68v143l-186 284h-66v56h212v-56h-66l145 -217l146 217h-67zM129 627v93h76v-93h-76zM359 627v93h76v-93h-76z" />
    <glyph glyph-name="Ygrave.small" horiz-adv-x="563" 
d="M360 483v56h213v-56h-67l-186 -284v-143h68v-56h-214v56h68v143l-186 284h-66v56h212v-56h-66l145 -217l146 217h-67zM184 723l46 47l147 -146l-32 -32z" />
    <glyph glyph-name="Zcaronsmall" horiz-adv-x="622" 
d="M137 414h-66v125h480v-38q-63 -74 -189 -221.5t-189 -220.5h318v65h65v-124h-492v37q63 74 189 221t189 221h-305v-65zM468 732l-159 -115l-160 114l39 39l121 -87l121 87z" />
    <glyph glyph-name="Zdotaccent.small" horiz-adv-x="622" 
d="M137 414h-66v125h480v-38q-63 -74 -189 -221.5t-189 -220.5h318v65h65v-124h-492v37q63 74 189 221t189 221h-305v-65zM269 627v93h76v-93h-76z" />
    <glyph glyph-name="OEsmall" horiz-adv-x="1003" 
d="M926 414h-66v64h-243v-174h278v-60h-278v-185h249v65h66v-124h-390v91q-70 -95 -209 -95q-127 0 -205.5 75t-78.5 198q0 122 79 198t205 76q138 0 209 -99v95h384v-125zM127 269q0 -94 58 -154.5t148 -60.5q92 0 149.5 60t57.5 155q0 94 -57.5 153.5t-149.5 59.5
q-90 0 -148 -59.5t-58 -153.5z" />
    <glyph glyph-name="AEsmall" horiz-adv-x="756" 
d="M687 0h-421v56h68v94h-152l-47 -94h68v-56h-213v56h68q102 202 212 427h-74v56h484v-125h-66v65h-202v-175h237v-59h-237v-185h209v65h66v-125zM210 210h124v246q-24 -50 -124 -246z" />
    <glyph glyph-name="AEacute.small" horiz-adv-x="756" 
d="M687 0h-421v56h68v94h-152l-47 -94h68v-56h-213v56h68q102 202 212 427h-74v56h484v-125h-66v65h-202v-175h237v-59h-237v-185h209v65h66v-125zM210 210h124v246q-24 -50 -124 -246zM482 770l46 -47l-161 -131l-31 32z" />
    <glyph glyph-name="Oslashsmall" horiz-adv-x="668" 
d="M186 -40h-74l50 83q-53 36 -82.5 94t-29.5 131q0 122 78.5 198t204.5 76q64 0 115 -21l34 55h73l-50 -83q53 -37 83 -95t30 -130q0 -121 -79.5 -197.5t-205.5 -76.5q-63 0 -114 21zM540 268q0 107 -71 164l-217 -363q34 -15 81 -15q92 0 149.5 60t57.5 154zM127 268
q0 -106 71 -164l218 361q-39 17 -83 17q-90 0 -148 -60t-58 -154z" />
    <glyph glyph-name="Oslashacute.small" horiz-adv-x="668" 
d="M186 -40h-74l50 83q-53 36 -82.5 94t-29.5 131q0 122 78.5 198t204.5 76q64 0 115 -21l34 55h73l-50 -83q53 -37 83 -95t30 -130q0 -121 -79.5 -197.5t-205.5 -76.5q-63 0 -114 21zM540 268q0 107 -71 164l-217 -363q34 -15 81 -15q92 0 149.5 60t57.5 154zM127 268
q0 -106 71 -164l218 361q-39 17 -83 17q-90 0 -148 -60t-58 -154zM381 760l46 -47l-161 -131l-31 32z" />
    <glyph glyph-name="ampersandsmall" horiz-adv-x="600" 
d="M385 229v55h185v-55h-71q-7 -84 -52 -142l78 -53l-46 -44q-32 20 -77 53q-67 -50 -170 -50q-79 0 -129.5 43t-50.5 112q0 52 28 85.5t78 60.5q-37 64 -37 120t40 91.5t102 35.5q60 0 98 -32.5t38 -85.5q0 -29 -11.5 -52.5t-36 -42.5t-43.5 -30t-54 -28q53 -71 142 -143
q32 44 39 102h-50zM352 83q-97 79 -157 156q-70 -40 -70 -91q0 -44 30 -72t77 -28q70 0 120 35zM194 414q0 -41 26 -91q35 16 54 27t35.5 30.5t16.5 42.5q0 29 -17.5 46.5t-45.5 17.5q-30 0 -49.5 -20.5t-19.5 -52.5z" />
    <glyph glyph-name="w.alt" horiz-adv-x="891" 
d="M766 195v109q0 122 -44 167l44 44q34 -33 55 -89.5t21 -121.5v-109q0 -88 -57 -144t-147 -56q-111 0 -167 77q-58 -77 -166 -77q-91 0 -148 55.5t-57 144.5v249h-70v56h146v-305q0 -62 35.5 -100.5t93.5 -38.5q55 0 90.5 37t37.5 96v6v105q0 121 -31 165l44 44
q28 -33 45.5 -88.5t17.5 -120.5v-105q0 -61 36 -100t93 -39t92.5 38.5t35.5 100.5z" />
    <glyph glyph-name="wacute.alt" horiz-adv-x="891" 
d="M433 195v105q0 121 -31 165l44 44q28 -33 45.5 -88.5t17.5 -120.5v-105v-6q1 -59 37 -96t92 -37q57 0 92.5 38.5t35.5 100.5v109q0 122 -44 167l44 44q34 -33 55 -89.5t21 -121.5v-109q0 -88 -57 -144t-147 -56q-111 0 -167 77q-58 -77 -166 -77q-91 0 -148 55.5
t-57 144.5v249h-70v56h146v-305q0 -62 35.5 -100.5t93.5 -38.5q57 0 92.5 38.5t35.5 100.5zM520 750l46 -47l-161 -131l-31 32z" />
    <glyph glyph-name="wcircumflex.alt" horiz-adv-x="891" 
d="M433 195v105q0 121 -31 165l44 44q28 -33 45.5 -88.5t17.5 -120.5v-105q0 -61 36 -100t93 -39t92.5 38.5t35.5 100.5v109q0 122 -44 167l44 44q34 -33 55 -89.5t21 -121.5v-109q0 -88 -57 -144t-147 -56q-111 0 -167 77q-58 -77 -166 -77q-91 0 -148 55.5t-57 144.5v249
h-70v56h146v-305q0 -62 35.5 -100.5t93.5 -38.5q57 0 92.5 38.5t35.5 100.5zM310 637l160 113l160 -113l-39 -39l-121 87l-121 -87z" />
    <glyph glyph-name="wdieresis.alt" horiz-adv-x="891" 
d="M766 195v109q0 122 -44 167l44 44q34 -33 55 -89.5t21 -121.5v-109q0 -88 -57 -144t-147 -56q-111 0 -167 77q-58 -77 -166 -77q-91 0 -148 55.5t-57 144.5v249h-70v56h146v-305q0 -62 35.5 -100.5t93.5 -38.5q55 0 90.5 37t37.5 96v6v105q0 121 -31 165l44 44
q28 -33 45.5 -88.5t17.5 -120.5v-105q0 -61 36 -100t93 -39t92.5 38.5t35.5 100.5zM548 607v93h76v-93h-76zM318 607v93h76v-93h-76z" />
    <glyph glyph-name="wgrave.alt" horiz-adv-x="891" 
d="M433 195v105q0 121 -31 165l44 44q28 -33 45.5 -88.5t17.5 -120.5v-105v-6q1 -59 37 -96t92 -37q57 0 92.5 38.5t35.5 100.5v109q0 122 -44 167l44 44q34 -33 55 -89.5t21 -121.5v-109q0 -88 -57 -144t-147 -56q-111 0 -167 77q-58 -77 -166 -77q-91 0 -148 55.5
t-57 144.5v249h-70v56h146v-305q0 -62 35.5 -100.5t93.5 -38.5q57 0 92.5 38.5t35.5 100.5zM374 703l46 47l147 -146l-32 -32z" />
    <glyph glyph-name="Dcroat.small" horiz-adv-x="654" 
d="M42 483v56h283q124 0 202 -75t78 -195q0 -119 -78 -194t-202 -75h-283v56h68v189h-80v59h80v179h-68zM370 245h-183v-185h138q89 0 146 58.5t57 150.5q0 93 -57 151.5t-146 58.5h-138v-175h183v-59z" />
    <glyph glyph-name="Ethsmall" horiz-adv-x="654" 
d="M42 483v56h283q124 0 202 -75t78 -195q0 -119 -78 -194t-202 -75h-283v56h68v189h-80v59h80v179h-68zM370 245h-183v-185h138q89 0 146 58.5t57 150.5q0 93 -57 151.5t-146 58.5h-138v-175h183v-59z" />
    <glyph glyph-name="Eng.small" horiz-adv-x="685" 
d="M30 0v56h68v427h-68v56h146l333 -426v370h-69v56h215v-56h-69v-543q0 -76 -46.5 -123t-120.5 -47q-75 0 -122 49l41 40q26 -28 76 -28q42 0 68.5 30t26.5 77v62l-333 425v-369h68v-56h-214z" />
    <glyph glyph-name="Thornsmall" horiz-adv-x="512" 
d="M80 0v539h77v-88h129q77 0 126.5 -47.5t49.5 -123.5q0 -75 -49 -122.5t-127 -47.5h-129v-110h-77zM277 390h-120v-221h120q47 0 77.5 31.5t30.5 79.5q0 49 -30.5 79.5t-77.5 30.5z" />
    <glyph glyph-name="Racute.small" horiz-adv-x="539" 
d="M333 0v55h60q-20 27 -62 84t-65 87h-91v-171h69v-55h-215v55h69v428h-69v56h295q72 0 117.5 -44t45.5 -113q0 -62 -37.5 -104t-98.5 -50q19 -25 61.5 -83t66.5 -90h60v-55h-206zM315 478h-140v-192h126q48 0 78 24.5t30 71.5q0 42 -26.5 69t-67.5 27zM336 770l46 -47
l-161 -131l-31 32z" />
    <glyph glyph-name="Oacutesmall" horiz-adv-x="668" 
d="M50 268q0 122 78.5 198t204.5 76t205.5 -76.5t79.5 -197.5t-79.5 -197.5t-205.5 -76.5t-204.5 76t-78.5 198zM127 268q0 -94 58 -154t148 -60q92 0 149.5 60t57.5 154q0 95 -57.5 154.5t-149.5 59.5q-90 0 -148 -60t-58 -154zM383 770l46 -47l-161 -131l-31 32z" />
    <glyph glyph-name="Nacute.small" horiz-adv-x="685" 
d="M440 483v56h215v-56h-69v-483h-77l-333 426v-370h68v-56h-214v56h68v427h-68v56h146l333 -426v370h-69zM393 770l46 -47l-161 -131l-31 32z" />
    <glyph glyph-name="Lacute.small" horiz-adv-x="560" 
d="M500 0h-471v55h69v428h-69v56h215v-56h-69v-424h259v65h66v-124zM357 770l46 -47l-161 -131l-31 32z" />
    <glyph glyph-name="Scaronsmall" horiz-adv-x="474" 
d="M404 394h-65v64q-42 24 -99 24q-50 0 -78 -23t-28 -61q0 -33 29.5 -56t72 -37t85 -29.5t72 -45t29.5 -72.5q0 -73 -56 -118.5t-138 -45.5q-102 0 -176 52v100h66v-65q46 -27 108 -27q52 0 85 28t33 72q0 30 -29.5 50.5t-72 34t-85 30t-72 48t-29.5 78.5q0 66 50 106.5
t126 40.5q102 0 172 -48v-100zM396 732l-159 -115l-160 114l39 39l121 -87l121 87z" />
    <glyph glyph-name="Kcommaaccent.small" horiz-adv-x="599" 
d="M383 0v56h58l-179 207l-86 -59v-148h68v-56h-214v56h68v427h-68v56h214v-56h-68v-197l71 49l153 148h-50v56h211v-56h-65l-180 -176l213 -251h62v-56h-208zM262 -286l-27 27q54 54 54 179h60q0 -119 -87 -206z" />
    <glyph glyph-name="Jcircumflex.small" horiz-adv-x="564" 
d="M267 482v56h214v-56h-69v-291q0 -88 -57.5 -142.5t-150.5 -54.5q-91 0 -152 36v96h66v-55q37 -17 86 -17q58 0 94.5 38t36.5 99v291h-68zM214 657l160 113l160 -113l-39 -39l-121 87l-121 -87z" />
    <glyph glyph-name="W.alt" horiz-adv-x="1168" 
d="M946 644v56h232v-56h-76q-12 -26 -301 -644h-81q-5 11 -137 292q-16 -34 -43.5 -92.5t-50.5 -107.5t-43 -92h-80q-100 214 -300 644h-76v56h232v-56h-72q172 -374 257 -561q23 50 68.5 148.5t68.5 147.5q-42 90 -149 321h83q70 -154 105 -230q36 76 106 230h84
q-22 -48 -47 -101.5t-55.5 -118.5t-47.5 -101q67 -144 136 -296q172 374 257 561h-70z" />
    <glyph glyph-name="Wacute.alt" horiz-adv-x="1168" 
d="M946 644v56h232v-56h-76q-12 -26 -301 -644h-81q-5 11 -137 292q-16 -34 -43.5 -92.5t-50.5 -107.5t-43 -92h-80q-100 214 -300 644h-76v56h232v-56h-72q172 -374 257 -561q23 50 68.5 148.5t68.5 147.5q-42 90 -149 321h83q70 -154 105 -230q36 76 106 230h84
q-22 -48 -47 -101.5t-55.5 -118.5t-47.5 -101q67 -144 136 -296q172 374 257 561h-70zM629 950l46 -47l-161 -131l-31 32z" />
    <glyph glyph-name="Wcircumflex.alt" horiz-adv-x="1168" 
d="M946 644v56h232v-56h-76q-12 -26 -301 -644h-81q-5 11 -137 292q-16 -34 -43.5 -92.5t-50.5 -107.5t-43 -92h-80q-100 214 -300 644h-76v56h232v-56h-72q172 -374 257 -561q23 50 68.5 148.5t68.5 147.5q-42 90 -149 321h83q70 -154 105 -230q36 76 106 230h84
q-22 -48 -47 -101.5t-55.5 -118.5t-47.5 -101q67 -144 136 -296q172 374 257 561h-70zM419 837l160 113l160 -113l-39 -39l-121 87l-121 -87z" />
    <glyph glyph-name="Wdieresis.alt" horiz-adv-x="1168" 
d="M946 644v56h232v-56h-76q-12 -26 -301 -644h-81q-5 11 -137 292q-16 -34 -43.5 -92.5t-50.5 -107.5t-43 -92h-80q-100 214 -300 644h-76v56h232v-56h-72q172 -374 257 -561q23 50 68.5 148.5t68.5 147.5q-42 90 -149 321h83q70 -154 105 -230q36 76 106 230h84
q-22 -48 -47 -101.5t-55.5 -118.5t-47.5 -101q67 -144 136 -296q172 374 257 561h-70zM426 807v93h76v-93h-76zM656 807v93h76v-93h-76z" />
    <glyph glyph-name="Wgrave.alt" horiz-adv-x="1168" 
d="M946 644v56h232v-56h-76q-12 -26 -301 -644h-81q-5 11 -137 292q-16 -34 -43.5 -92.5t-50.5 -107.5t-43 -92h-80q-100 214 -300 644h-76v56h232v-56h-72q172 -374 257 -561q23 50 68.5 148.5t68.5 147.5q-42 90 -149 321h83q70 -154 105 -230q36 76 106 230h84
q-22 -48 -47 -101.5t-55.5 -118.5t-47.5 -101q67 -144 136 -296q172 374 257 561h-70zM483 903l46 47l147 -146l-32 -32z" />
    <glyph glyph-name="Wsmall.alt" horiz-adv-x="932" 
d="M731 483v56h211v-56h-64q-24 -46 -120 -246.5t-114 -236.5h-77q-19 39 -54 112t-47 97q-91 -186 -102 -209h-76q-21 42 -116.5 241.5t-116.5 241.5h-65v56h212v-56h-67q20 -41 96.5 -204t96.5 -203q33 71 101 213q-12 23 -65 134.5t-55 115.5h79q9 -18 39.5 -83.5
t38.5 -83.5q8 18 38.5 84t39.5 83h80q-6 -13 -57.5 -120.5t-62.5 -129.5q4 -8 45.5 -97t55.5 -116q20 40 95.5 203t95.5 204h-65z" />
    <glyph glyph-name="Wacute.smallalt" horiz-adv-x="932" 
d="M731 483v56h211v-56h-64q-24 -46 -120 -246.5t-114 -236.5h-77q-19 39 -54 112t-47 97q-91 -186 -102 -209h-76q-21 42 -116.5 241.5t-116.5 241.5h-65v56h212v-56h-67q20 -41 96.5 -204t96.5 -203q33 71 101 213q-12 23 -65 134.5t-55 115.5h79q9 -18 39.5 -83.5
t38.5 -83.5q8 18 38.5 84t39.5 83h80q-6 -13 -57.5 -120.5t-62.5 -129.5q4 -8 45.5 -97t55.5 -116q20 40 95.5 203t95.5 204h-65zM517 770l46 -47l-161 -131l-31 32z" />
    <glyph glyph-name="Wcircumflex.smallalt" horiz-adv-x="932" 
d="M731 483v56h211v-56h-64q-24 -46 -120 -246.5t-114 -236.5h-77q-19 39 -54 112t-47 97q-91 -186 -102 -209h-76q-21 42 -116.5 241.5t-116.5 241.5h-65v56h212v-56h-67q20 -41 96.5 -204t96.5 -203q33 71 101 213q-12 23 -65 134.5t-55 115.5h79q9 -18 39.5 -83.5
t38.5 -83.5q8 18 38.5 84t39.5 83h80q-6 -13 -57.5 -120.5t-62.5 -129.5q4 -8 45.5 -97t55.5 -116q20 40 95.5 203t95.5 204h-65zM306 657l160 113l160 -113l-39 -39l-121 87l-121 -87z" />
    <glyph glyph-name="Wdieresis.smallalt" horiz-adv-x="932" 
d="M731 483v56h211v-56h-64q-24 -46 -120 -246.5t-114 -236.5h-77q-19 39 -54 112t-47 97q-91 -186 -102 -209h-76q-21 42 -116.5 241.5t-116.5 241.5h-65v56h212v-56h-67q20 -41 96.5 -204t96.5 -203q33 71 101 213q-12 23 -65 134.5t-55 115.5h79q9 -18 39.5 -83.5
t38.5 -83.5q8 18 38.5 84t39.5 83h80q-6 -13 -57.5 -120.5t-62.5 -129.5q4 -8 45.5 -97t55.5 -116q20 40 95.5 203t95.5 204h-65zM313 627v93h76v-93h-76zM543 627v93h76v-93h-76z" />
    <glyph glyph-name="Wgrave.smallalt" horiz-adv-x="932" 
d="M731 483v56h211v-56h-64q-24 -46 -120 -246.5t-114 -236.5h-77q-19 39 -54 112t-47 97q-91 -186 -102 -209h-76q-21 42 -116.5 241.5t-116.5 241.5h-65v56h212v-56h-67q20 -41 96.5 -204t96.5 -203q33 71 101 213q-12 23 -65 134.5t-55 115.5h79q9 -18 39.5 -83.5
t38.5 -83.5q8 18 38.5 84t39.5 83h80q-6 -13 -57.5 -120.5t-62.5 -129.5q4 -8 45.5 -97t55.5 -116q20 40 95.5 203t95.5 204h-65zM370 723l46 47l147 -146l-32 -32z" />
    <glyph glyph-name="a.alt" horiz-adv-x="612" 
d="M437 0v115q-25 -55 -74.5 -87t-114.5 -32q-89 0 -145 68t-56 176q0 118 78 191.5t202 73.5q109 0 186 -35v-414h69v-56h-145zM437 208v217q-55 19 -125 19q-83 0 -136 -56.5t-53 -147.5q0 -82 44 -132.5t113 -50.5q67 0 111 43.5t46 107.5z" />
    <glyph glyph-name="aacute.alt" horiz-adv-x="612" 
d="M437 0v115q-25 -55 -74.5 -87t-114.5 -32q-89 0 -145 68t-56 176q0 118 78 191.5t202 73.5q109 0 186 -35v-414h69v-56h-145zM437 208v217q-55 19 -125 19q-83 0 -136 -56.5t-53 -147.5q0 -82 44 -132.5t113 -50.5q67 0 111 43.5t46 107.5zM349 750l46 -47l-161 -131
l-31 32z" />
    <glyph glyph-name="abreve.alt" horiz-adv-x="612" 
d="M437 0v115q-25 -55 -74.5 -87t-114.5 -32q-89 0 -145 68t-56 176q0 118 78 191.5t202 73.5q109 0 186 -35v-414h69v-56h-145zM437 208v217q-55 19 -125 19q-83 0 -136 -56.5t-53 -147.5q0 -82 44 -132.5t113 -50.5q67 0 111 43.5t46 107.5zM131 684l38 39q53 -53 133 -53
q81 0 132 53l38 -39q-68 -71 -170 -71t-171 71z" />
    <glyph glyph-name="acircumflex.alt" horiz-adv-x="612" 
d="M437 0v115q-25 -55 -74.5 -87t-114.5 -32q-89 0 -145 68t-56 176q0 118 78 191.5t202 73.5q109 0 186 -35v-414h69v-56h-145zM437 208v217q-55 19 -125 19q-83 0 -136 -56.5t-53 -147.5q0 -82 44 -132.5t113 -50.5q67 0 111 43.5t46 107.5zM139 637l160 113l160 -113
l-39 -39l-121 87l-121 -87z" />
    <glyph glyph-name="adieresis.alt" horiz-adv-x="612" 
d="M437 0v115q-25 -55 -74.5 -87t-114.5 -32q-89 0 -145 68t-56 176q0 118 78 191.5t202 73.5q109 0 186 -35v-414h69v-56h-145zM437 208v217q-55 19 -125 19q-83 0 -136 -56.5t-53 -147.5q0 -82 44 -132.5t113 -50.5q67 0 111 43.5t46 107.5zM144 607v93h76v-93h-76z
M374 607v93h76v-93h-76z" />
    <glyph glyph-name="agrave.alt" horiz-adv-x="612" 
d="M437 0v115q-25 -55 -74.5 -87t-114.5 -32q-89 0 -145 68t-56 176q0 118 78 191.5t202 73.5q109 0 186 -35v-414h69v-56h-145zM437 208v217q-55 19 -125 19q-83 0 -136 -56.5t-53 -147.5q0 -82 44 -132.5t113 -50.5q67 0 111 43.5t46 107.5zM203 703l46 47l147 -146
l-32 -32z" />
    <glyph glyph-name="amacron.alt" horiz-adv-x="612" 
d="M437 0v115q-25 -55 -74.5 -87t-114.5 -32q-89 0 -145 68t-56 176q0 118 78 191.5t202 73.5q109 0 186 -35v-414h69v-56h-145zM437 208v217q-55 19 -125 19q-83 0 -136 -56.5t-53 -147.5q0 -82 44 -132.5t113 -50.5q67 0 111 43.5t46 107.5zM455 649h-306v51h306v-51z" />
    <glyph glyph-name="aogonek.alt" horiz-adv-x="612" 
d="M437 0v115q-25 -55 -74.5 -87t-114.5 -32q-89 0 -145 68t-56 176q0 118 78 191.5t202 73.5q109 0 186 -35v-414h69v-56h-69q-9 -11 -23 -29.5t-37 -61.5t-23 -70q0 -21 11 -33t32 -12q34 0 59 25l30 -31q-38 -41 -90 -41q-39 0 -64 23t-25 59q0 38 18.5 80.5t37.5 66.5
l19 24h-21zM437 208v217q-55 19 -125 19q-83 0 -136 -56.5t-53 -147.5q0 -82 44 -132.5t113 -50.5q67 0 111 43.5t46 107.5z" />
    <glyph glyph-name="aring.alt" horiz-adv-x="612" 
d="M437 0v115q-25 -55 -74.5 -87t-114.5 -32q-89 0 -145 68t-56 176q0 118 78 191.5t202 73.5q109 0 186 -35v-414h69v-56h-145zM437 208v217q-55 19 -125 19q-83 0 -136 -56.5t-53 -147.5q0 -82 44 -132.5t113 -50.5q67 0 111 43.5t46 107.5zM221 672q0 36 21.5 58t56.5 22
t56.5 -22t21.5 -58q0 -35 -21.5 -57t-56.5 -22t-56.5 22t-21.5 57zM253 672q0 -20 13 -33t33 -13t32.5 13t12.5 33q0 21 -12.5 34t-32.5 13t-33 -13t-13 -34z" />
    <glyph glyph-name="atilde.alt" horiz-adv-x="612" 
d="M437 0v115q-25 -55 -74.5 -87t-114.5 -32q-89 0 -145 68t-56 176q0 118 78 191.5t202 73.5q109 0 186 -35v-414h69v-56h-145zM437 208v217q-55 19 -125 19q-83 0 -136 -56.5t-53 -147.5q0 -82 44 -132.5t113 -50.5q67 0 111 43.5t46 107.5zM149 626l-10.5 10.5l-12 12
l-10.5 10.5q55 55 112 55q28 0 76.5 -18.5t71.5 -18.5q37 0 69 31q23 -22 34 -33q-54 -55 -110 -55q-28 0 -76.5 19t-71.5 19q-37 0 -72 -32z" />
    <glyph glyph-name="K.alt" horiz-adv-x="698" 
d="M457 0v56h62l-219 269h-114v-269h74v-56h-230v56h75v588h-75v56h230v-56h-74v-254h114l206 254h-62v56h234v-56h-79l-228 -285l242 -303h77v-56h-233z" />
    <glyph glyph-name="Kcommaaccent.alt" horiz-adv-x="698" 
d="M457 0v56h62l-219 269h-114v-269h74v-56h-230v56h75v588h-75v56h230v-56h-74v-254h114l206 254h-62v56h234v-56h-79l-228 -285l242 -303h77v-56h-233zM331 -286l-27 27q54 54 54 179h60q0 -119 -87 -206z" />
    <glyph glyph-name="k.alt" horiz-adv-x="564" 
d="M353 0v56h57l-141 171h-93v-171h70v-56h-216v56h70v613h-70v56h146v-437h96l123 156h-64v56h209v-56h-63l-144 -184l165 -204h58v-56h-203z" />
    <glyph glyph-name="kcommaaccent.alt" horiz-adv-x="564" 
d="M353 0v56h57l-141 171h-93v-171h70v-56h-216v56h70v613h-70v56h146v-437h96l123 156h-64v56h209v-56h-63l-144 -184l165 -204h58v-56h-203zM266 -286l-27 27q54 54 54 179h60q0 -119 -87 -206z" />
    <glyph glyph-name="IJ.small" horiz-adv-x="587" 
d="M342 483v56h214v-56h-68v-516q0 -88 -58 -142.5t-150 -54.5q-93 0 -152 36v96h66v-54q34 -18 85 -18q58 0 94.5 38t36.5 99v516h-68zM30 483v56h214v-56h-68v-427h68v-56h-214v56h68v427h-68z" />
    <glyph glyph-name="Iacutesmall" horiz-adv-x="274" 
d="M30 483v56h214v-56h-68v-427h68v-56h-214v56h68v427h-68zM189 770l46 -47l-161 -131l-31 32z" />
    <glyph glyph-name="Rcommaaccent.small" horiz-adv-x="539" 
d="M333 0v55h60q-20 27 -62 84t-65 87h-91v-171h69v-55h-215v55h69v428h-69v56h295q72 0 117.5 -44t45.5 -113q0 -62 -37.5 -104t-98.5 -50q19 -25 61.5 -83t66.5 -90h60v-55h-206zM315 478h-140v-192h126q48 0 78 24.5t30 71.5q0 42 -26.5 69t-67.5 27zM240 -286l-27 27
q54 54 54 179h60q0 -119 -87 -206z" />
    <glyph glyph-name="Ksmall.alt" horiz-adv-x="588" 
d="M373 0v56h57l-161 190h-93v-190h68v-56h-214v56h68v427h-68v56h214v-56h-68v-178h94l149 178h-59v56h216v-56h-70l-171 -204l183 -223h63v-56h-208z" />
    <glyph glyph-name="Kcommaaccent.smallalt" horiz-adv-x="588" 
d="M373 0v56h57l-161 190h-93v-190h68v-56h-214v56h68v427h-68v56h214v-56h-68v-178h94l149 178h-59v56h216v-56h-70l-171 -204l183 -223h63v-56h-208zM262 -286l-27 27q54 54 54 179h60q0 -119 -87 -206z" />
    <glyph glyph-name="Lslashsmall" horiz-adv-x="619" 
d="M89 483v56h213v-56h-67v-141l94 52l28 -48l-122 -68v-218h258v65h66v-125h-470v56h67v179l-93 -51l-28 47l121 67v185h-67z" />
    <glyph glyph-name="Tbar.small" horiz-adv-x="629" 
d="M570 414h-66v65h-151v-160h156v-55h-156v-208h69v-56h-215v56h69v208h-155v55h155v160h-150v-65h-66v125h510v-125z" />
    <glyph glyph-name="Hcircumflex.small" horiz-adv-x="675" 
d="M431 483v56h214v-56h-68v-427h68v-56h-214v56h68v189h-323v-189h68v-56h-214v56h68v427h-68v56h214v-56h-68v-179h323v179h-68zM177 657l160 113l160 -113l-39 -39l-121 87l-121 -87z" />
    <glyph glyph-name="v.alt" horiz-adv-x="614" 
d="M488 225v79q0 121 -43 167l43 44q34 -33 55 -89.5t21 -121.5v-79q0 -102 -64.5 -166t-167.5 -64t-167.5 64t-64.5 166v219h-70v56h146v-275q0 -75 43.5 -122t112.5 -47q70 0 113 47t43 122z" />
    <glyph glyph-name="i.alt" horiz-adv-x="329" 
d="M30 444v56h146v-388q0 -25 14 -40.5t37 -15.5q25 0 40 15l40 -41q-33 -35 -88 -35q-53 0 -86 33.5t-33 88.5v327h-70zM100 607v93h76v-93h-76z" />
    <glyph glyph-name="iacute.alt" horiz-adv-x="327" 
d="M30 444v56h146v-388q0 -25 14 -40.5t37 -15.5q25 0 40 15l40 -41q-33 -35 -88 -35q-53 0 -86 33.5t-33 88.5v327h-70zM189 750l46 -47l-161 -131l-31 32z" />
    <glyph glyph-name="ibreve.alt" horiz-adv-x="408" 
d="M93 444v56h146v-388q0 -25 14 -40.5t37 -15.5q25 0 40 15l40 -41q-35 -35 -88 -35t-86 33.5t-33 88.5v327h-70zM30 684l38 39q53 -53 133 -53q81 0 132 53l38 -39q-68 -71 -170 -71q-103 0 -171 71z" />
    <glyph glyph-name="icircumflex.alt" horiz-adv-x="394" 
d="M31 637l160 113l160 -113l-39 -39l-121 87l-121 -87zM82 444v56h146v-388q0 -25 14 -40.5t37 -15.5q25 0 40 15l40 -41q-33 -35 -88 -35q-53 0 -86 33.5t-33 88.5v327h-70z" />
    <glyph glyph-name="idieresis.alt" horiz-adv-x="375" 
d="M75 444v56h145v-388q0 -25 14.5 -40.5t36.5 -15.5q27 0 40 15l41 -41q-35 -35 -88 -35t-86.5 33.5t-33.5 88.5v327h-69zM30 607v93h76v-93h-76zM260 607v93h76v-93h-76z" />
    <glyph glyph-name="igrave.alt" horiz-adv-x="327" 
d="M30 444v56h146v-388q0 -25 14 -40.5t37 -15.5q25 0 40 15l40 -41q-33 -35 -88 -35q-53 0 -86 33.5t-33 88.5v327h-70zM42 703l46 47l147 -146l-32 -32z" />
    <glyph glyph-name="imacron.alt" horiz-adv-x="372" 
d="M337 649h-306v51h306v-51zM75 444v56h146v-388q0 -25 14 -40.5t37 -15.5q25 0 40 15l40 -41q-33 -35 -88 -35q-53 0 -86 33.5t-33 88.5v327h-70z" />
    <glyph glyph-name="iogonek.alt" horiz-adv-x="377" 
d="M30 444v56h146v-388q0 -25 14 -40.5t37 -15.5q25 0 40 15l40 -41l-2 -2q-81 -104 -81 -159q0 -21 11 -33t32 -12q34 0 59 25l30 -31q-38 -41 -90 -41q-39 0 -64 23t-25 59q0 62 49 136h-7q-53 0 -86 33.5t-33 88.5v327h-70zM100 607v93h76v-93h-76z" />
    <glyph glyph-name="itilde.alt" horiz-adv-x="418" 
d="M62 626l-10.5 10.5l-12 12l-10.5 10.5q55 55 112 55q28 0 76.5 -18.5t71.5 -18.5q37 0 69 31q23 -22 34 -33q-54 -55 -110 -55q-28 0 -76.5 19t-71.5 19q-37 0 -72 -32zM103 444v56h146v-388q0 -25 14 -40.5t37 -15.5q25 0 40 15l40 -41q-33 -35 -88 -35q-53 0 -86 33.5
t-33 88.5v327h-70z" />
    <glyph glyph-name="ij.alt" horiz-adv-x="552" 
d="M30 444v56h146v-388q0 -25 14 -40.5t37 -15.5q25 0 40 15l40 -41q-33 -35 -88 -35q-53 0 -86 33.5t-33 88.5v327h-70zM100 607v93h76v-93h-76zM351 444v56h146v-560q0 -76 -46.5 -123t-120.5 -47t-121 49l40 40q28 -28 76 -28q42 0 69 30t27 77v506h-70zM421 607v93h76
v-93h-76z" />
    <glyph glyph-name="dotlessi.alt" horiz-adv-x="327" 
d="M30 444v56h146v-388q0 -25 14 -40.5t37 -15.5q25 0 40 15l40 -41q-33 -35 -88 -35q-53 0 -86 33.5t-33 88.5v327h-70z" />
    <glyph glyph-name="Rcaron.small" horiz-adv-x="539" 
d="M333 0v55h60q-20 27 -62 84t-65 87h-91v-171h69v-55h-215v55h69v428h-69v56h295q72 0 117.5 -44t45.5 -113q0 -62 -37.5 -104t-98.5 -50q19 -25 61.5 -83t66.5 -90h60v-55h-206zM315 478h-140v-192h126q48 0 78 24.5t30 71.5q0 42 -26.5 69t-67.5 27zM443 732l-159 -115
l-160 114l39 39l121 -87l121 87z" />
    <glyph glyph-name="Otildesmall" horiz-adv-x="668" 
d="M50 268q0 122 78.5 198t204.5 76t205.5 -76.5t79.5 -197.5t-79.5 -197.5t-205.5 -76.5t-204.5 76t-78.5 198zM127 268q0 -94 58 -154t148 -60q92 0 149.5 60t57.5 154q0 95 -57.5 154.5t-149.5 59.5q-90 0 -148 -60t-58 -154zM183 646l-33 33q55 55 112 55
q28 0 76.5 -18.5t71.5 -18.5q37 0 69 31q23 -22 34 -33q-54 -55 -110 -55q-28 0 -76.5 19t-71.5 19q-37 0 -72 -32z" />
    <glyph glyph-name="Gbreve.small" horiz-adv-x="624" 
d="M541 396h-66v57q-53 29 -136 29q-94 0 -153 -59.5t-59 -154.5t59 -154.5t153 -59.5q75 0 127 38v141h-147v60h225v-220q-81 -79 -209 -79q-127 0 -206 76t-79 198q0 121 79.5 197.5t205.5 76.5q125 0 206 -50v-96zM146 704l38 39q53 -53 133 -53q81 0 132 53l38 -39
q-68 -71 -170 -71t-171 71z" />
    <glyph glyph-name="Eacutesmall" horiz-adv-x="560" 
d="M483 414h-66v65h-242v-175h277v-60h-277v-185h249v65h66v-124h-461v55h69v428h-69v56h454v-125zM350 770l46 -47l-161 -131l-31 32z" />
    <glyph glyph-name="Dcaron.small" horiz-adv-x="643" 
d="M30 483v56h284q124 0 201.5 -75t77.5 -195q0 -119 -77.5 -194t-201.5 -75h-284v56h68v427h-68zM516 269q0 93 -56.5 151.5t-145.5 58.5h-138v-419h138q89 0 145.5 58.5t56.5 150.5zM478 732l-159 -115l-160 114l39 39l121 -87l121 87z" />
    <glyph glyph-name="Cacute.small" horiz-adv-x="596" 
d="M536 394h-66v59q-50 29 -131 29q-94 0 -153 -59.5t-59 -154.5t59 -154.5t153 -59.5q103 0 159 62l46 -43q-81 -79 -209 -79q-127 0 -206 76t-79 198t79.5 198t205.5 76q123 0 201 -53v-95zM362 770l46 -47l-161 -131l-31 32z" />
    <glyph glyph-name="Aacutesmall" horiz-adv-x="664" 
d="M458 0v56h70l-46 94h-300l-46 -94h69v-56h-215v56h69l207 427h-74v56h180l232 -483h70v-56h-216zM331 462l-121 -252h244zM382 770l46 -47l-161 -131l-31 32z" />
    <glyph glyph-name="zero.fitted" horiz-adv-x="622" 
d="M53 350q0 158 70.5 256.5t186.5 98.5t186.5 -98.5t70.5 -256.5t-70.5 -256.5t-186.5 -98.5t-186.5 98.5t-70.5 256.5zM132 349q0 -129 49 -210t129 -81t129 81t49 210q0 130 -49 211.5t-129 81.5t-129 -81.5t-49 -211.5z" />
    <glyph glyph-name="one.fitted" horiz-adv-x="622" 
d="M101 0v63h197v553l-192 -107l-34 59l226 132h78v-637h165v-63h-440z" />
    <glyph glyph-name="two.fitted" horiz-adv-x="622" 
d="M152 501h-69v133q92 71 222 71q97 0 160 -56t63 -146q0 -59 -36 -126.5t-87.5 -121t-103 -98t-87.5 -69.5l-36 -25h367v-63h-466v63q15 10 40 28t89 71t113 103t89 114.5t40 115.5q0 65 -41 106t-110 41q-86 0 -147 -41v-100z" />
    <glyph glyph-name="three.fitted" horiz-adv-x="622" 
d="M151 506h-68v133q88 66 228 66q96 0 156 -48.5t60 -126.5q0 -56 -34.5 -98.5t-94.5 -61.5q70 -20 110 -68t40 -113q0 -86 -66.5 -140t-172.5 -54q-148 0 -241 98l44 45q67 -80 192 -80q73 0 119.5 39.5t46.5 101.5t-47 101t-121 39h-50v61h51q64 0 104.5 33.5t40.5 86.5
q0 54 -39.5 88t-102.5 34q-90 0 -155 -39v-97z" />
    <glyph glyph-name="four.fitted" horiz-adv-x="622" 
d="M428 0v128h-377v42l366 530h89v-512h65v-60h-65v-128h-78zM144 188h284v407z" />
    <glyph glyph-name="five.fitted" horiz-adv-x="622" 
d="M500 562h-68v75h-243v-217h116q101 0 164.5 -61t63.5 -159q0 -92 -64.5 -148.5t-164.5 -56.5q-142 0 -238 99l42 42q75 -78 188 -78q73 0 116 40t43 104q0 70 -43.5 112.5t-112.5 42.5h-189v343h390v-138z" />
    <glyph glyph-name="six.fitted" horiz-adv-x="617" 
d="M324 642q-77 0 -128 -73t-57 -192q64 58 160 58q113 0 184.5 -61.5t71.5 -155.5q0 -99 -65.5 -161t-169.5 -62q-118 0 -188.5 98t-70.5 257t72 257t191 98t195 -73l-43 -43q-55 53 -152 53zM318 58q70 0 114 44.5t44 115.5q0 67 -50 110.5t-129 43.5q-50 0 -92 -19.5
t-66 -54.5q8 -108 57 -174t122 -66z" />
    <glyph glyph-name="seven.fitted" horiz-adv-x="622" 
d="M137 562h-69v138h485v-42l-314 -658h-80l304 637h-326v-75z" />
    <glyph glyph-name="eight.fitted" horiz-adv-x="622" 
d="M89 531q0 77 61.5 125.5t161.5 48.5t161.5 -48.5t61.5 -125.5q0 -56 -34 -97.5t-94 -60.5q70 -20 110 -68.5t40 -113.5q0 -87 -68 -141.5t-177 -54.5t-177.5 54.5t-68.5 141.5q0 65 40 113.5t110 68.5q-59 19 -93 61t-34 97zM144 201q0 -63 46.5 -103t120.5 -40t121 40
t47 103q0 64 -47 104t-121 40t-120.5 -40t-46.5 -104zM167 520q0 -53 40.5 -86.5t104.5 -33.5t104.5 33.5t40.5 86.5q0 54 -40.5 88t-104.5 34t-104.5 -34t-40.5 -88z" />
    <glyph glyph-name="nine.fitted" horiz-adv-x="617" 
d="M279 58q82 0 135.5 71.5t59.5 188.5q-63 -66 -162 -66q-111 0 -180.5 63t-69.5 163q0 101 64.5 164t168.5 63q117 0 187.5 -98t70.5 -257t-75 -257t-200 -98q-124 0 -202 73l42 42q60 -52 161 -52zM297 642q-70 0 -113.5 -45.5t-43.5 -118.5q0 -72 48.5 -117t126.5 -45
q52 0 94.5 22.5t64.5 62.5q-9 112 -57 176.5t-120 64.5z" />
    <glyph glyph-name="oneoldstyle" horiz-adv-x="516" 
d="M57 0v63h181v393l-164 -91l-34 59l198 116h78v-477h170v-63h-429z" />
    <glyph glyph-name="twooldstyle" horiz-adv-x="534" 
d="M122 371h-66v100q87 74 211 74q89 0 146.5 -42t57.5 -110q0 -44 -30.5 -94t-71.5 -89t-87.5 -74.5t-73 -52.5t-33.5 -20h309v-63h-432v63q7 4 19.5 10.5t48 28t67.5 43t71.5 52t67.5 59t47.5 60.5t19.5 59q0 47 -36 77t-98 30q-80 0 -137 -40v-71z" />
    <glyph glyph-name="threeoldstyle" horiz-adv-x="575" 
d="M135 371h-65v100q85 74 221 74q94 0 152 -48t58 -125q0 -55 -34.5 -96.5t-94.5 -59.5q70 -20 110.5 -67.5t40.5 -112.5q0 -85 -65.5 -138t-169.5 -53q-144 0 -236 98l45 45q66 -80 186 -80q71 0 116 39t45 101q0 63 -47 102.5t-121 39.5h-39v60h41q64 0 104.5 32.5
t40.5 83.5t-38 83.5t-99 32.5q-86 0 -151 -43v-68z" />
    <glyph glyph-name="fouroldstyle" horiz-adv-x="645" 
d="M454 -150v150h-389v42l378 498h90v-479h87v-61h-87v-150h-79zM163 61h291v375z" />
    <glyph glyph-name="fiveoldstyle" horiz-adv-x="550" 
d="M470 407h-66v70h-246v-212h117q101 0 164.5 -60.5t63.5 -157.5q0 -91 -64.5 -146.5t-164.5 -55.5q-142 0 -239 99l42 42q75 -78 189 -78q73 0 116 39t43 102q0 69 -43 111t-113 42h-189v338h390v-133z" />
    <glyph glyph-name="sevenoldstyle" horiz-adv-x="627" 
d="M126 407h-66v133h502v-42l-331 -648h-81l320 627h-344v-70z" />
    <glyph glyph-name="eightoldstyle" horiz-adv-x="596" 
d="M75 531q0 77 62 125.5t161 48.5q100 0 162 -48.5t62 -125.5q0 -56 -34.5 -97.5t-94.5 -60.5q70 -20 110.5 -68.5t40.5 -113.5q0 -87 -68.5 -141.5t-177.5 -54.5t-177.5 54.5t-68.5 141.5q0 65 40.5 113.5t110.5 68.5q-60 19 -94 61t-34 97zM131 201q0 -63 46.5 -103
t119.5 -40q74 0 121 40t47 103q0 64 -47 104t-121 40q-73 0 -119.5 -40t-46.5 -104zM154 520q0 -53 40.5 -86.5t104.5 -33.5t104 33.5t40 86.5q0 54 -40 88t-104 34t-104.5 -34t-40.5 -88z" />
    <glyph glyph-name="zerooldstyle" 
d="M47 270q0 122 71 198.5t184 76.5t184 -76.5t71 -198.5t-71 -198.5t-184 -76.5t-184 76.5t-71 198.5zM123 270q0 -94 50 -153t129 -59q80 0 129.5 59t49.5 153t-49.5 153t-129.5 59q-79 0 -129 -59t-50 -153z" />
    <glyph glyph-name="zero.taboldstyle" 
d="M52 270q0 122 70 198.5t180 76.5q111 0 181 -76.5t70 -198.5t-70 -198.5t-181 -76.5q-110 0 -180 76.5t-70 198.5zM128 270q0 -94 48.5 -153t125.5 -59q78 0 126.5 59t48.5 153t-48.5 153t-126.5 59q-77 0 -125.5 -59t-48.5 -153z" />
    <glyph glyph-name="one.taboldstyle" 
d="M97 0v63h180v393l-163 -91l-34 59l197 116h79v-477h170v-63h-429z" />
    <glyph glyph-name="two.taboldstyle" 
d="M156 371h-66v100q87 74 212 74q90 0 149 -42t59 -110q0 -43 -30 -91.5t-71.5 -88t-87 -73.5t-76 -53.5t-37.5 -23.5h-1h316v-63h-440v63q14 7 37.5 20t83.5 51.5t106 74.5t83.5 82.5t37.5 83.5q0 47 -36.5 77t-99.5 30q-79 0 -139 -41v-70z" />
    <glyph glyph-name="three.taboldstyle" 
d="M152 371h-66v100q87 74 222 74q94 0 152 -48t58 -125q0 -55 -34.5 -96.5t-94.5 -59.5q70 -20 110.5 -67.5t40.5 -111.5q0 -85 -65.5 -138.5t-169.5 -53.5q-144 0 -236 98l44 45q66 -80 187 -80q71 0 116 39t45 101q0 63 -47 102.5t-121 39.5h-40v60h42q64 0 104 32.5
t40 83.5t-37.5 83.5t-98.5 32.5q-87 0 -151 -44v-67z" />
    <glyph glyph-name="four.taboldstyle" 
d="M402 -150v150h-347v45l336 495h90v-477h64v-63h-64v-150h-79zM148 63h254v375z" />
    <glyph glyph-name="five.taboldstyle" 
d="M494 407h-66v70h-246v-212h117q101 0 164.5 -60.5t63.5 -157.5q0 -91 -64.5 -146.5t-164.5 -55.5q-142 0 -239 99l42 42q75 -78 189 -78q73 0 115.5 39t42.5 102q0 69 -43 111t-112 42h-189v338h390v-133z" />
    <glyph glyph-name="six.taboldstyle" 
d="M322 642q-81 0 -134 -73t-60 -192q66 58 165 58q115 0 188 -61.5t73 -155.5q0 -99 -66.5 -161t-173.5 -62q-121 0 -192.5 95.5t-71.5 259.5q0 159 74 257t198 98q123 0 201 -73l-43 -43q-58 53 -158 53zM313 58q73 0 117.5 44.5t44.5 115.5q0 67 -51.5 110.5t-132.5 43.5
q-52 0 -95 -19.5t-68 -54.5q8 -113 58 -176.5t127 -63.5z" />
    <glyph glyph-name="seven.taboldstyle" 
d="M132 407h-66v133h477v-42l-311 -648h-81l300 627h-319v-70z" />
    <glyph glyph-name="eight.taboldstyle" 
d="M81 531q0 77 61.5 125.5t161.5 48.5t162 -48.5t62 -125.5q0 -56 -34.5 -97.5t-94.5 -60.5q70 -20 110.5 -68.5t40.5 -113.5q0 -87 -68.5 -141.5t-177.5 -54.5t-177.5 54.5t-68.5 141.5q0 65 40 113.5t110 68.5q-59 19 -93 61t-34 97zM136 201q0 -63 47 -103t120 -40
q74 0 121 40t47 103q0 64 -47 104t-121 40q-73 0 -120 -40t-47 -104zM159 520q0 -53 40.5 -86.5t104.5 -33.5t104.5 33.5t40.5 86.5q0 54 -40.5 88t-104.5 34t-104.5 -34t-40.5 -88z" />
    <glyph glyph-name="nine.taboldstyle" 
d="M275 -92q87 0 141 73.5t59 198.5q-64 -75 -167 -75q-114 0 -185.5 62.5t-71.5 162.5q0 95 66.5 155t172.5 60q120 0 192 -97t72 -253q0 -157 -75 -253.5t-205 -96.5q-131 0 -214 73l43 42q63 -52 172 -52zM293 482q-72 0 -117.5 -42.5t-45.5 -109.5q0 -72 50.5 -117
t130.5 -45q52 0 95.5 25t68.5 65q-9 99 -59 161.5t-123 62.5z" />
    <glyph glyph-name="afii10024.alt" horiz-adv-x="1024" 
d="M787 0v56h63l-203 269h-94v-269h74v-56h-230v56h75v269h-94l-203 -269h63v-56h-230v56h73l228 303l-215 285h-76v56h233v-56h-65l191 -254h95v254h-75v56h230v-56h-74v-254h94l190 254h-64v56h234v-56h-78l-214 -285l228 -303h73v-56h-229z" />
    <glyph glyph-name="afii10028.alt" horiz-adv-x="695" 
d="M454 0v56h62l-219 269h-114v-269h75v-56h-231v56h75v588h-75v56h231v-56h-75v-254h115l206 254h-63v56h234v-56h-78l-229 -285l242 -303h78v-56h-234z" />
    <glyph glyph-name="afii10065.alt" horiz-adv-x="610" 
d="M437 0v115q-25 -55 -74.5 -87t-114.5 -32q-89 0 -145 68t-56 176q0 118 78 191.5t202 73.5q109 0 186 -35v-414h69v-56h-145zM437 208v217q-55 19 -125 19q-83 0 -136 -56.5t-53 -147.5q0 -82 44 -132.5t113 -50.5q67 0 111 43.5t46 107.5z" />
    <glyph glyph-name="afii10072.alt" horiz-adv-x="829" 
d="M606 0v56h59l-129 171h-84v-171h70v-56h-216v56h70v171h-83l-130 -171h60v-56h-215v56h69l154 204l-139 184h-72v56h218v-56h-65l117 -156h86v156h-70v56h216v-56h-70v-156h87l116 156h-65v56h218v-56h-72l-139 -184l154 -204h70v-56h-215z" />
    <glyph glyph-name="afii10076.alt" horiz-adv-x="579" 
d="M358 0v56h57l-141 171h-101v-171h70v-56h-216v56h70v388h-70v56h216v-56h-70v-156h104l123 156h-62v56h218v-56h-72l-146 -185l166 -203h68v-56h-214z" />
    <glyph glyph-name="afii10017.small" horiz-adv-x="664" 
d="M458 0v56h70l-46 94h-300l-46 -94h69v-56h-215v56h69l207 427h-74v56h180l232 -483h70v-56h-216zM331 462l-121 -252h244z" />
    <glyph glyph-name="afii10018.small" horiz-adv-x="543" 
d="M449 414h-66v65h-207v-164h151q73 0 118 -44t45 -114t-45 -113.5t-118 -43.5h-297v56h69v427h-69v56h419v-125zM176 60h144q42 0 68 27.5t26 69.5q0 43 -26 70.5t-68 27.5h-144v-195z" />
    <glyph glyph-name="afii10019.small" horiz-adv-x="543" 
d="M30 483v56h285q64 0 104.5 -37.5t40.5 -96.5q0 -83 -69 -120q45 -12 72.5 -49.5t27.5 -89.5q0 -65 -43 -105.5t-113 -40.5h-305v56h68v427h-68zM176 60h133q45 0 73.5 27t28.5 69t-28.5 68.5t-73.5 26.5h-133v-191zM293 479h-117v-168h117q40 0 64.5 23.5t24.5 60.5
t-24.5 60.5t-64.5 23.5z" />
    <glyph glyph-name="afii10020.small" horiz-adv-x="528" 
d="M469 414h-66v65h-227v-423h68v-56h-214v56h68v427h-68v56h439v-125z" />
    <glyph glyph-name="afii10021.small" horiz-adv-x="724" 
d="M124 483v56h527v-56h-68v-423h82v-195h-78v135h-450v-135h-77v195h76q31 14 43 109t13 314h-68zM269 479q0 -179 -11 -277.5t-40 -141.5h287v419h-236z" />
    <glyph glyph-name="afii10022.small" horiz-adv-x="560" 
d="M483 414h-66v65h-242v-175h277v-60h-277v-185h249v65h66v-124h-461v55h69v428h-69v56h454v-125z" />
    <glyph glyph-name="afii10023.small" horiz-adv-x="560" 
d="M483 414h-66v65h-242v-175h277v-60h-277v-185h249v65h66v-124h-461v55h69v428h-69v56h454v-125zM125 627v93h76v-93h-76zM355 627v93h76v-93h-76z" />
    <glyph glyph-name="afii10024.small" horiz-adv-x="876" 
d="M659 0v56h58l-154 198l-86 -62v-136h68v-56h-214v56h68v136l-86 62l-154 -198h58v-56h-209v56h63l192 248l-167 179h-67v56h213v-56h-52l136 -145l73 -57v202h-68v56h214v-56h-68v-202l73 57l136 145h-52v56h215v-56h-69l-167 -179l192 -248h63v-56h-209z" />
    <glyph glyph-name="afii10025.small" horiz-adv-x="503" 
d="M137 401h-66v94q68 49 176 49q76 0 124 -38.5t48 -100.5q0 -84 -68 -120q45 -12 72 -49.5t27 -89.5q0 -67 -55 -109t-145 -42q-119 0 -200 78l41 39q56 -56 158 -56q55 0 88.5 28t33.5 72q0 42 -28.5 68.5t-74.5 26.5h-101v60h85q40 0 65 23.5t25 60.5q0 38 -28.5 63
t-74.5 25q-62 0 -102 -23v-59z" />
    <glyph glyph-name="afii10026.small" horiz-adv-x="685" 
d="M440 0v56h69v370l-333 -426h-146v56h68v427h-68v56h214v-56h-68v-370l333 426h146v-56h-69v-427h69v-56h-215z" />
    <glyph glyph-name="afii10027.small" horiz-adv-x="685" 
d="M440 0v56h69v370l-333 -426h-146v56h68v427h-68v56h214v-56h-68v-370l333 426h146v-56h-69v-427h69v-56h-215zM172 704l38 39q53 -53 133 -53q81 0 132 53l38 -39q-68 -71 -170 -71t-171 71z" />
    <glyph glyph-name="afii10028.small" horiz-adv-x="599" 
d="M383 0v56h58l-179 207l-86 -59v-148h68v-56h-214v56h68v427h-68v56h214v-56h-68v-197l71 49l153 148h-50v56h211v-56h-65l-180 -176l213 -251h62v-56h-208z" />
    <glyph glyph-name="afii10029.small" horiz-adv-x="696" 
d="M453 0v56h67v423h-236q0 -144 -6 -231.5t-22 -147t-44 -82.5t-73 -23q-50 0 -89 35q27 27 42 41q22 -16 43 -16q40 0 55 92t16 336h-67v56h527v-56h-67v-427h67v-56h-213z" />
    <glyph glyph-name="afii10030.small" horiz-adv-x="828" 
d="M585 0v56h68v375l-209 -431h-58l-210 431v-375h68v-56h-214v56h68v427h-68v56h171l213 -438l214 438h170v-56h-67v-427h67v-56h-213z" />
    <glyph glyph-name="afii10031.small" horiz-adv-x="675" 
d="M431 483v56h214v-56h-68v-427h68v-56h-214v56h68v189h-323v-189h68v-56h-214v56h68v427h-68v56h214v-56h-68v-179h323v179h-68z" />
    <glyph glyph-name="Omacron.small" horiz-adv-x="668" 
d="M50 268q0 122 78.5 198t204.5 76t205.5 -76.5t79.5 -197.5t-79.5 -197.5t-205.5 -76.5t-204.5 76t-78.5 198zM127 268q0 -94 58 -154t148 -60q92 0 149.5 60t57.5 154q0 95 -57.5 154.5t-149.5 59.5q-90 0 -148 -60t-58 -154zM484 669h-306v51h306v-51z" />
    <glyph glyph-name="Ohungarumlaut.small" horiz-adv-x="668" 
d="M50 268q0 122 78.5 198t204.5 76t205.5 -76.5t79.5 -197.5t-79.5 -197.5t-205.5 -76.5t-204.5 76t-78.5 198zM127 268q0 -94 58 -154t148 -60q92 0 149.5 60t57.5 154q0 95 -57.5 154.5t-149.5 59.5q-90 0 -148 -60t-58 -154zM291 770l46 -47l-161 -131l-31 32zM521 770
l46 -47l-161 -131l-31 32z" />
    <glyph glyph-name="Ogravesmall" horiz-adv-x="668" 
d="M50 268q0 122 78.5 198t204.5 76t205.5 -76.5t79.5 -197.5t-79.5 -197.5t-205.5 -76.5t-204.5 76t-78.5 198zM127 268q0 -94 58 -154t148 -60q92 0 149.5 60t57.5 154q0 95 -57.5 154.5t-149.5 59.5q-90 0 -148 -60t-58 -154zM235 723l46 47l147 -146l-32 -32z" />
    <glyph glyph-name="Odieresissmall" horiz-adv-x="668" 
d="M50 268q0 122 78.5 198t204.5 76t205.5 -76.5t79.5 -197.5t-79.5 -197.5t-205.5 -76.5t-204.5 76t-78.5 198zM127 268q0 -94 58 -154t148 -60q92 0 149.5 60t57.5 154q0 95 -57.5 154.5t-149.5 59.5q-90 0 -148 -60t-58 -154zM178 627v93h76v-93h-76zM408 627v93h76v-93
h-76z" />
    <glyph glyph-name="Ocircumflexsmall" horiz-adv-x="668" 
d="M50 268q0 122 78.5 198t204.5 76t205.5 -76.5t79.5 -197.5t-79.5 -197.5t-205.5 -76.5t-204.5 76t-78.5 198zM127 268q0 -94 58 -154t148 -60q92 0 149.5 60t57.5 154q0 95 -57.5 154.5t-149.5 59.5q-90 0 -148 -60t-58 -154zM171 657l160 113l160 -113l-39 -39l-121 87
l-121 -87z" />
    <glyph glyph-name="Obreve.small" horiz-adv-x="668" 
d="M50 268q0 122 78.5 198t204.5 76t205.5 -76.5t79.5 -197.5t-79.5 -197.5t-205.5 -76.5t-204.5 76t-78.5 198zM127 268q0 -94 58 -154t148 -60q92 0 149.5 60t57.5 154q0 95 -57.5 154.5t-149.5 59.5q-90 0 -148 -60t-58 -154zM162 704l38 39q53 -53 133 -53q81 0 132 53
l38 -39q-68 -71 -170 -71t-171 71z" />
    <glyph glyph-name="Ntildesmall" horiz-adv-x="685" 
d="M440 483v56h215v-56h-69v-483h-77l-333 426v-370h68v-56h-214v56h68v427h-68v56h146l333 -426v370h-69zM195 646l-33 33q55 55 112 55q28 0 76.5 -18.5t71.5 -18.5q37 0 69 31q23 -22 34 -33q-54 -55 -110 -55q-28 0 -76.5 19t-71.5 19q-37 0 -72 -32z" />
    <glyph glyph-name="Ncommaaccent.small" horiz-adv-x="685" 
d="M440 483v56h215v-56h-69v-483h-77l-333 426v-370h68v-56h-214v56h68v427h-68v56h146l333 -426v370h-69zM309 -286l-27 27q54 54 54 179h60q0 -119 -87 -206z" />
    <glyph glyph-name="Ncaron.small" horiz-adv-x="685" 
d="M440 483v56h215v-56h-69v-483h-77l-333 426v-370h68v-56h-214v56h68v427h-68v56h146l333 -426v370h-69zM503 732l-159 -115l-160 114l39 39l121 -87l121 87z" />
    <glyph glyph-name="Ldot.small" horiz-adv-x="560" 
d="M500 0h-471v55h69v428h-69v56h215v-56h-69v-424h259v65h66v-124zM423 245v110h76v-110h-76z" />
    <glyph glyph-name="Lcommaaccent.small" horiz-adv-x="560" 
d="M500 0h-471v55h69v428h-69v56h215v-56h-69v-424h259v65h66v-124zM257 -286l-27 27q54 54 54 179h60q0 -119 -87 -206z" />
    <glyph glyph-name="Lcaron.small" horiz-adv-x="560" 
d="M500 0h-471v55h69v428h-69v56h215v-56h-69v-424h259v65h66v-124zM467 732l-159 -115l-160 114l39 39l121 -87l121 87z" />
    <glyph glyph-name="Itilde.small" horiz-adv-x="422" 
d="M62 646l-10.5 10.5l-12 12l-10.5 10.5q55 55 112 55q28 0 76.5 -18.5t71.5 -18.5q37 0 69 31q23 -22 34 -33q-54 -55 -110 -55q-28 0 -76.5 19t-71.5 19q-37 0 -72 -32zM104 483v56h214v-56h-68v-428h68v-55h-214v55h68v428h-68z" />
    <glyph glyph-name="Iogonek.small" horiz-adv-x="276" 
d="M124 0h-93v56h68v427h-68v56h214v-56h-68v-427h68v-56h-66q-9 -11 -23 -29.5t-37 -61.5t-23 -70q0 -21 11 -33t32 -12q34 0 59 25l30 -31q-38 -41 -90 -41q-39 0 -64 23t-25 59q0 38 18.5 80.5t37.5 66.5z" />
    <glyph glyph-name="Imacron.small" horiz-adv-x="366" 
d="M76 483v56h214v-56h-68v-427h68v-56h-214v56h68v427h-68zM337 669h-306v51h306v-51z" />
    <glyph glyph-name="Igravesmall" horiz-adv-x="274" 
d="M30 483v56h214v-56h-68v-427h68v-56h-214v56h68v427h-68zM41 723l46 47l147 -146l-32 -32z" />
    <glyph glyph-name="Idotaccent.small" horiz-adv-x="274" 
d="M30 483v56h214v-56h-68v-427h68v-56h-214v56h68v427h-68zM98 627v93h76v-93h-76z" />
    <glyph glyph-name="Idieresissmall" horiz-adv-x="366" 
d="M74 483v56h214v-56h-68v-427h68v-56h-214v56h68v427h-68zM31 627v93h76v-93h-76zM261 627v93h76v-93h-76z" />
    <glyph glyph-name="Icircumflexsmall" horiz-adv-x="380" 
d="M82 483v56h214v-56h-68v-427h68v-56h-214v56h68v427h-68zM31 657l160 113l160 -113l-39 -39l-121 87l-121 -87z" />
    <glyph glyph-name="Ibreve.small" horiz-adv-x="401" 
d="M94 483v56h214v-56h-68v-427h68v-56h-214v56h68v427h-68zM30 704l38 39q53 -53 133 -53q81 0 132 53l38 -39q-68 -71 -170 -71q-103 0 -171 71z" />
    <glyph glyph-name="Gdotaccent.small" horiz-adv-x="624" 
d="M541 396h-66v57q-53 29 -136 29q-94 0 -153 -59.5t-59 -154.5t59 -154.5t153 -59.5q75 0 127 38v141h-147v60h225v-220q-81 -79 -209 -79q-127 0 -206 76t-79 198q0 121 79.5 197.5t205.5 76.5q125 0 206 -50v-96zM280 627v93h76v-93h-76z" />
    <glyph glyph-name="Gcommaaccent.small" horiz-adv-x="624" 
d="M541 396h-66v57q-53 29 -136 29q-94 0 -153 -59.5t-59 -154.5t59 -154.5t153 -59.5q75 0 127 38v141h-147v60h225v-220q-81 -79 -209 -79q-127 0 -206 76t-79 198q0 121 79.5 197.5t205.5 76.5q125 0 206 -50v-96zM278 -286l-27 27q54 54 54 179h60q0 -119 -87 -206z" />
    <glyph glyph-name="Gcircumflex.small" horiz-adv-x="624" 
d="M541 396h-66v57q-53 29 -136 29q-94 0 -153 -59.5t-59 -154.5t59 -154.5t153 -59.5q75 0 127 38v141h-147v60h225v-220q-81 -79 -209 -79q-127 0 -206 76t-79 198q0 121 79.5 197.5t205.5 76.5q125 0 206 -50v-96zM155 657l160 113l160 -113l-39 -39l-121 87l-121 -87z
" />
    <glyph glyph-name="Eogonek.small" horiz-adv-x="565" 
d="M390 0h-361v55h69v428h-69v56h454v-125h-66v65h-242v-175h277v-60h-277v-185h249v65h66v-124h-45q-9 -11 -23 -29.5t-37 -61.5t-23 -70q0 -21 11 -33t32 -12q34 0 59 25l30 -31q-38 -41 -90 -41q-39 0 -64 23t-25 59q0 38 18.5 80.5t37.5 66.5z" />
    <glyph glyph-name="Emacron.small" horiz-adv-x="560" 
d="M483 414h-66v65h-242v-175h277v-60h-277v-185h249v65h66v-124h-461v55h69v428h-69v56h454v-125zM444 669h-306v51h306v-51z" />
    <glyph glyph-name="Egravesmall" horiz-adv-x="560" 
d="M483 414h-66v65h-242v-175h277v-60h-277v-185h249v65h66v-124h-461v55h69v428h-69v56h454v-125zM197 723l46 47l147 -146l-32 -32z" />
    <glyph glyph-name="Edotaccent.small" horiz-adv-x="560" 
d="M483 414h-66v65h-242v-175h277v-60h-277v-185h249v65h66v-124h-461v55h69v428h-69v56h454v-125zM256 627v93h76v-93h-76z" />
    <glyph glyph-name="Edieresissmall" horiz-adv-x="560" 
d="M483 414h-66v65h-242v-175h277v-60h-277v-185h249v65h66v-124h-461v55h69v428h-69v56h454v-125zM142 627v93h76v-93h-76zM372 627v93h76v-93h-76z" />
    <glyph glyph-name="Ecircumflexsmall" horiz-adv-x="560" 
d="M483 414h-66v65h-242v-175h277v-60h-277v-185h249v65h66v-124h-461v55h69v428h-69v56h454v-125zM139 657l160 113l160 -113l-39 -39l-121 87l-121 -87z" />
    <glyph glyph-name="Ecaron.small" horiz-adv-x="560" 
d="M483 414h-66v65h-242v-175h277v-60h-277v-185h249v65h66v-124h-461v55h69v428h-69v56h454v-125zM453 732l-159 -115l-160 114l39 39l121 -87l121 87z" />
    <glyph glyph-name="Ebreve.small" horiz-adv-x="560" 
d="M483 414h-66v65h-242v-175h277v-60h-277v-185h249v65h66v-124h-461v55h69v428h-69v56h454v-125zM124 704l38 39q53 -53 133 -53q81 0 132 53l38 -39q-68 -71 -170 -71t-171 71z" />
    <glyph glyph-name="Cdotaccent.small" horiz-adv-x="596" 
d="M536 394h-66v59q-50 29 -131 29q-94 0 -153 -59.5t-59 -154.5t59 -154.5t153 -59.5q103 0 159 62l46 -43q-81 -79 -209 -79q-127 0 -206 76t-79 198t79.5 198t205.5 76q123 0 201 -53v-95zM275 627v93h76v-93h-76z" />
    <glyph glyph-name="Ccircumflex.small" horiz-adv-x="596" 
d="M536 394h-66v59q-50 29 -131 29q-94 0 -153 -59.5t-59 -154.5t59 -154.5t153 -59.5q103 0 159 62l46 -43q-81 -79 -209 -79q-127 0 -206 76t-79 198t79.5 198t205.5 76q123 0 201 -53v-95zM154 657l160 113l160 -113l-39 -39l-121 87l-121 -87z" />
    <glyph glyph-name="Ccedillasmall" horiz-adv-x="596" 
d="M242 -159q5 4 15 14t15 14q27 -29 57 -29q44 0 44 34q0 15 -11 25t-24 16.5t-24 27t-12 53.5q-114 10 -183 84t-69 188q0 122 79.5 198t205.5 76q123 0 201 -53v-95h-66v59q-50 29 -131 29q-94 0 -153 -59.5t-59 -154.5t59 -154.5t153 -59.5q103 0 159 62l46 -43
q-76 -74 -197 -79q1 -28 12.5 -44t24.5 -21t23.5 -19.5t10.5 -39.5q0 -32 -24.5 -52t-62.5 -20q-51 0 -89 43z" />
    <glyph glyph-name="Ccaron.small" horiz-adv-x="596" 
d="M536 394h-66v59q-50 29 -131 29q-94 0 -153 -59.5t-59 -154.5t59 -154.5t153 -59.5q103 0 159 62l46 -43q-81 -79 -209 -79q-127 0 -206 76t-79 198t79.5 198t205.5 76q123 0 201 -53v-95zM474 732l-159 -115l-160 114l39 39l121 -87l121 87z" />
    <glyph glyph-name="Atildesmall" horiz-adv-x="664" 
d="M458 0v56h70l-46 94h-300l-46 -94h69v-56h-215v56h69l207 427h-74v56h180l232 -483h70v-56h-216zM331 462l-121 -252h244zM183 646l-33 33q55 55 112 55q28 0 76.5 -18.5t71.5 -18.5q37 0 69 31q23 -22 34 -33q-54 -55 -110 -55q-28 0 -76.5 19t-71.5 19q-37 0 -72 -32z
" />
    <glyph glyph-name="Aringsmall" horiz-adv-x="664" 
d="M458 0v56h70l-46 94h-300l-46 -94h69v-56h-215v56h69l207 427h-74v56h180l232 -483h70v-56h-216zM331 462l-121 -252h244zM253 692q0 36 21.5 58t56.5 22t56.5 -22t21.5 -58q0 -35 -21.5 -57t-56.5 -22t-56.5 22t-21.5 57zM285 692q0 -20 13 -33t33 -13t32.5 13t12.5 33
q0 21 -12.5 34t-32.5 13t-33 -13t-13 -34z" />
    <glyph glyph-name="Aogonek.small" horiz-adv-x="674" 
d="M458 0v56h70l-46 94h-300l-46 -94h69v-56h-215v56h69l207 427h-74v56h180l232 -483h70v-56h-51q-9 -11 -23 -29.5t-37 -61.5t-23 -70q0 -21 11 -33t32 -12q34 0 59 25l30 -31q-38 -41 -90 -41q-39 0 -64 23t-25 59q0 38 18.5 80.5t37.5 66.5l19 24h-110zM331 462
l-121 -252h244z" />
    <glyph glyph-name="Amacron.small" horiz-adv-x="664" 
d="M458 0v56h70l-46 94h-300l-46 -94h69v-56h-215v56h69l207 427h-74v56h180l232 -483h70v-56h-216zM331 462l-121 -252h244zM485 669h-306v51h306v-51z" />
    <glyph glyph-name="Agravesmall" horiz-adv-x="664" 
d="M458 0v56h70l-46 94h-300l-46 -94h69v-56h-215v56h69l207 427h-74v56h180l232 -483h70v-56h-216zM331 462l-121 -252h244zM236 723l46 47l147 -146l-32 -32z" />
    <glyph glyph-name="Adieresissmall" horiz-adv-x="664" 
d="M458 0v56h70l-46 94h-300l-46 -94h69v-56h-215v56h69l207 427h-74v56h180l232 -483h70v-56h-216zM331 462l-121 -252h244zM179 627v93h76v-93h-76zM409 627v93h76v-93h-76z" />
    <glyph glyph-name="Acircumflexsmall" horiz-adv-x="664" 
d="M458 0v56h70l-46 94h-300l-46 -94h69v-56h-215v56h69l207 427h-74v56h180l232 -483h70v-56h-216zM331 462l-121 -252h244zM173 657l160 113l160 -113l-39 -39l-121 87l-121 -87z" />
    <glyph glyph-name="Abreve.small" horiz-adv-x="664" 
d="M458 0v56h70l-46 94h-300l-46 -94h69v-56h-215v56h69l207 427h-74v56h180l232 -483h70v-56h-216zM331 462l-121 -252h244zM161 704l38 39q53 -53 133 -53q81 0 132 53l38 -39q-68 -71 -170 -71t-171 71z" />
    <glyph glyph-name="Zacute.small" horiz-adv-x="622" 
d="M137 414h-66v125h480v-38q-63 -74 -189 -221.5t-189 -220.5h318v65h65v-124h-492v37q63 74 189 221t189 221h-305v-65zM360 770l46 -47l-161 -131l-31 32z" />
    <glyph glyph-name="Yacutesmall" horiz-adv-x="563" 
d="M360 483v56h213v-56h-67l-186 -284v-143h68v-56h-214v56h68v143l-186 284h-66v56h212v-56h-66l145 -217l146 217h-67zM330 770l46 -47l-161 -131l-31 32z" />
    <glyph glyph-name="Wacute.small" horiz-adv-x="958" 
d="M751 483v56h217v-56h-72l-176 -483h-84l-157 444l-158 -444h-84l-176 483h-71v56h217v-56h-72l142 -388l160 444h84l159 -444l142 388h-71zM529 770l46 -47l-161 -131l-31 32z" />
    <glyph glyph-name="Uacutesmall" horiz-adv-x="691" 
d="M30 482v56h214v-56h-68v-247q0 -81 47 -131t122 -50q77 0 123.5 49.5t46.5 131.5v247h-68v56h214v-56h-68v-247q0 -112 -67.5 -176.5t-180.5 -64.5t-180 64.5t-67 176.5v247h-68zM394 770l46 -47l-161 -131l-31 32z" />
    <glyph glyph-name="Tcaron.small" horiz-adv-x="629" 
d="M208 0v56h68v423h-150v-65h-66v125h510v-125h-66v65h-150v-423h68v-56h-214zM474 732l-159 -115l-160 114l39 39l121 -87l121 87z" />
    <glyph glyph-name="Hbar.small" horiz-adv-x="698" 
d="M41 0v56h69v337h-80v55h80v91h77v-91h323v91h78v-91h80v-55h-80v-337h68v-56h-214v56h68v189h-323v-189h69v-56h-215zM187 304h323v89h-323v-89z" />
    <glyph glyph-name="dollaroldstyle" horiz-adv-x="447" 
d="M395 143q0 -58 -42 -98t-106 -48v-97h-50v96q-85 4 -145 47v95h66v-58q38 -24 99 -24q44 0 73 24t29 61q0 28 -27 47t-66 31.5t-77.5 28t-65.5 45.5t-27 73q0 56 39.5 94t101.5 44v96h50v-96q78 -7 130 -44v-95h-66v58q-34 21 -90 21q-40 0 -64.5 -21t-24.5 -54
q0 -29 27 -49.5t66 -34t77.5 -29t65.5 -44t27 -69.5z" />
    <glyph glyph-name="centoldstyle" horiz-adv-x="540" 
d="M482 344h-66v76q-41 22 -96 23v-387q80 5 125 53l42 -42q-65 -65 -167 -71v-96h-50v97q-101 9 -162 78t-61 175q0 104 61 173t162 80v97h50v-96q97 -4 162 -47v-113zM270 60v378q-67 -11 -107 -62t-40 -126q0 -76 40 -127.5t107 -62.5z" />
    <glyph glyph-name="afii10061.smallalt" horiz-adv-x="588" 
d="M373 0v56h57l-161 190h-93v-190h68v-56h-214v56h68v427h-68v56h214v-56h-68v-178h94l149 178h-59v56h216v-56h-70l-171 -204l183 -223h63v-56h-208zM338 770l46 -47l-161 -131l-31 32z" />
    <glyph glyph-name="afii10109.alt" horiz-adv-x="582" 
d="M342 750l47 -47l-162 -131l-31 32zM360 0v56h58l-142 171h-100v-171h70v-56h-216v56h70v388h-70v56h216v-56h-70v-156h103l123 156h-62v56h218v-56h-72l-145 -185l165 -203h68v-56h-214z" />
    <glyph glyph-name="afii10061.alt" horiz-adv-x="698" 
d="M411 950l47 -47l-162 -131l-31 32zM457 0v56h62l-219 269h-114v-269h74v-56h-230v56h75v588h-75v56h230v-56h-74v-254h114l206 254h-62v56h234v-56h-79l-228 -285l242 -303h77v-56h-233z" />
    <glyph glyph-name="uni018F.small" horiz-adv-x="633" 
d="M143 393h-65v90q79 56 211 56q130 0 212 -75.5t82 -196.5t-74.5 -196t-193.5 -75q-118 0 -192 75t-74 196v25h454q-8 84 -66 135.5t-147 51.5q-87 0 -147 -30v-56zM503 237h-375q9 -82 60.5 -132.5t126.5 -50.5q77 0 128.5 50.5t59.5 132.5z" />
    <glyph glyph-name="Ysmall" horiz-adv-x="563" 
d="M360 483v56h213v-56h-67l-186 -284v-143h68v-56h-214v56h68v143l-186 284h-66v56h212v-56h-66l145 -217l146 217h-67z" />
    <glyph glyph-name="Zsmall" horiz-adv-x="622" 
d="M137 414h-66v125h480v-38q-63 -74 -189 -221.5t-189 -220.5h318v65h65v-124h-492v37q63 74 189 221t189 221h-305v-65z" />
    <glyph glyph-name="afii10028.altsmall" horiz-adv-x="588" 
d="M373 0v56h57l-161 190h-93v-190h68v-56h-214v56h68v427h-68v56h214v-56h-68v-178h94l149 178h-59v56h216v-56h-70l-171 -204l183 -223h63v-56h-208z" />
    <glyph glyph-name="sixoldstyle" horiz-adv-x="591" 
d="M319 642q-80 0 -132.5 -73t-58.5 -192q66 58 165 58q111 0 181 -62t70 -158q0 -98 -65.5 -159t-169.5 -61q-118 0 -188.5 98t-70.5 257t73.5 257t195.5 98q121 0 199 -73l-43 -43q-58 53 -156 53zM307 58q70 0 114 44t44 113q0 68 -49 112.5t-126 44.5q-51 0 -94 -19.5
t-68 -54.5q8 -108 57 -174t122 -66z" />
    <glyph glyph-name="nineoldstyle" horiz-adv-x="591" 
d="M269 -92q83 0 135.5 72t57.5 191q-61 -66 -162 -66q-111 0 -180.5 62t-69.5 160q0 99 65 161t168 62q117 0 187.5 -97.5t70.5 -255.5t-73 -255t-200 -97q-130 0 -209 73l42 42q62 -52 168 -52zM285 487q-70 0 -113.5 -44.5t-43.5 -115.5t48.5 -115t126.5 -44
q52 0 94.5 22.5t64.5 61.5q-9 109 -57 172t-120 63z" />
    <glyph glyph-name="Xsmall" horiz-adv-x="612" 
d="M393 0v56h58l-145 175l-145 -175h59v-56h-212v56h66l181 219l-170 208h-72v56h218v-56h-60l135 -164l136 164h-59v56h217v-56h-71l-171 -208l180 -219h66v-56h-211z" />
    <glyph glyph-name="Wsmall" horiz-adv-x="958" 
d="M751 483v56h217v-56h-72l-176 -483h-84l-157 444l-158 -444h-84l-176 483h-71v56h217v-56h-72l142 -388l160 444h84l159 -444l142 388h-71z" />
    <glyph glyph-name="Vsmall" horiz-adv-x="655" 
d="M-10 483v56h211v-56h-65l192 -407l191 407h-64v56h210v-56h-65l-233 -483h-80l-232 483h-65z" />
    <glyph glyph-name="Usmall" horiz-adv-x="691" 
d="M30 482v56h214v-56h-68v-247q0 -81 47 -131t122 -50q77 0 123.5 49.5t46.5 131.5v247h-68v56h214v-56h-68v-247q0 -112 -67.5 -176.5t-180.5 -64.5t-180 64.5t-67 176.5v247h-68z" />
    <glyph glyph-name="afii10024.altsmall" horiz-adv-x="841" 
d="M629 0v56h58l-149 190h-79v-190h68v-56h-214v56h68v190h-79l-149 -190h59v-56h-204v56h58l171 221l-160 206h-59v56h205v-56h-60l138 -178h80v178h-68v56h214v-56h-68v-178h81l137 178h-60v56h206v-56h-60l-160 -206l171 -221h59v-56h-204z" />
    <glyph glyph-name="Tsmall" horiz-adv-x="629" 
d="M208 0v56h68v423h-150v-65h-66v125h510v-125h-66v65h-150v-423h68v-56h-214z" />
    <glyph glyph-name="Ssmall" horiz-adv-x="474" 
d="M404 394h-65v64q-42 24 -99 24q-50 0 -78 -23t-28 -61q0 -33 29.5 -56t72 -37t85 -29.5t72 -45t29.5 -72.5q0 -73 -56 -118.5t-138 -45.5q-102 0 -176 52v100h66v-65q46 -27 108 -27q52 0 85 28t33 72q0 30 -29.5 50.5t-72 34t-85 30t-72 48t-29.5 78.5q0 66 50 106.5
t126 40.5q102 0 172 -48v-100z" />
    <glyph glyph-name="Rsmall" horiz-adv-x="539" 
d="M333 0v55h60q-20 27 -62 84t-65 87h-91v-171h69v-55h-215v55h69v428h-69v56h295q72 0 117.5 -44t45.5 -113q0 -62 -37.5 -104t-98.5 -50q19 -25 61.5 -83t66.5 -90h60v-55h-206zM315 478h-140v-192h126q48 0 78 24.5t30 71.5q0 42 -26.5 69t-67.5 27z" />
    </font>
</defs>
</svg>
